<svg xmlns="http://www.w3.org/2000/svg" viewBox="0 0 3121 734">
  <defs>
    <style>
      .cls-1 {
        fill: #f5f5f5;
      }

      .cls-15, .cls-2 {
        fill: #fff;
      }

      .cls-3 {
        fill: #fffc78;
      }

      .cls-4 {
        fill: #5cb7f0;
      }

      .cls-5 {
        fill: #00c66b;
      }

      .cls-6 {
        fill: #ddd;
      }

      .cls-12, .cls-13, .cls-14, .cls-17, .cls-18, .cls-19, .cls-20, .cls-7 {
        fill: none;
      }

      .cls-12, .cls-7 {
        stroke: #fff;
      }

      .cls-12, .cls-13, .cls-14, .cls-18, .cls-19, .cls-20, .cls-7 {
        stroke-linecap: round;
        stroke-linejoin: round;
      }

      .cls-13, .cls-14, .cls-17, .cls-7 {
        stroke-width: 4px;
      }

      .cls-8 {
        fill: #bababa;
      }

      .cls-9 {
        fill: #201e1e;
      }

      .cls-10 {
        fill: #ee6055;
      }

      .cls-11, .cls-16 {
        fill: #fd812d;
      }

      .cls-12, .cls-18, .cls-19, .cls-20 {
        stroke-width: 2px;
      }

      .cls-13 {
        stroke: #5cb7f0;
      }

      .cls-14, .cls-20 {
        stroke: #ee6055;
      }

      .cls-15, .cls-16 {
        fill-rule: evenodd;
      }

      .cls-17, .cls-19 {
        stroke: #f5f5f5;
      }

      .cls-17 {
        stroke-miterlimit: 10;
      }

      .cls-18 {
        stroke: #00c66b;
      }
    </style>
  </defs>
  <title>index-hero</title>
  <g>
    <rect class="cls-2" x="963.32" y="8.82" width="200" height="35"/>
    <rect class="cls-2" x="963.32" y="63.82" width="200" height="35"/>
  </g>
  <g>
    <circle class="cls-2" cx="2673.12" cy="417.95" r="77.87"/>
    <path class="cls-17" d="M2673.12,479.9a62,62,0,1,1,62-62A62,62,0,0,1,2673.12,479.9Z"/>
    <path class="cls-17" d="M2673.12,464a46,46,0,1,1,46-46A46.1,46.1,0,0,1,2673.12,464Z"/>
    <path class="cls-17" d="M2673.12,448.08a30.13,30.13,0,1,1,30.13-30.13A30.16,30.16,0,0,1,2673.12,448.08Z"/>
    <path class="cls-17" d="M2673.12,432.16a14.22,14.22,0,1,1,14.22-14.22A14.23,14.23,0,0,1,2673.12,432.16Z"/>
  </g>
  <g>
    <rect class="cls-2" x="1675.7" y="582.53" width="75.64" height="29.29"/>
    <rect class="cls-2" x="1675.7" y="514.37" width="75.64" height="58.15"/>
  </g>
  <g>
    <rect class="cls-2" x="1524.95" y="512.37" width="92.87" height="92.87"/>
    <circle class="cls-1" cx="1571.38" cy="558.81" r="37.15"/>
  </g>
  <g>
    <rect class="cls-2" x="1524.95" y="614.55" width="92.87" height="92.87"/>
    <circle class="cls-6" cx="1571.38" cy="660.98" r="37.15"/>
  </g>
  <g>
    <rect class="cls-2" x="2699.98" y="412.02" width="156.8" height="15.53" transform="translate(2358.59 3198.16) rotate(-90)"/>
  </g>
  <g>
    <rect class="cls-2" x="2694.46" y="228.82" width="92.87" height="92.87" transform="translate(2465.65 3016.15) rotate(-90)"/>
    <circle class="cls-6" cx="2740.9" cy="275.25" r="37.15"/>
  </g>
  <g>
    <path class="cls-12" d="M1953.36,705.24H1834.57a4.9,4.9,0,0,1-4.88-4.88h0a4.9,4.9,0,0,1,4.88-4.88h113.9a4.9,4.9,0,0,0,4.88-4.88h0a4.9,4.9,0,0,0-4.88-4.88h-113.9a4.9,4.9,0,0,1-4.88-4.88h0a4.9,4.9,0,0,1,4.88-4.88h113.9a4.9,4.9,0,0,0,4.88-4.88h0a4.9,4.9,0,0,0-4.88-4.88h-113.9a4.9,4.9,0,0,1-4.88-4.88h0a4.9,4.9,0,0,1,4.88-4.88h113.9a4.9,4.9,0,0,0,4.88-4.88h0a4.9,4.9,0,0,0-4.88-4.88h-113.9a4.9,4.9,0,0,1-4.88-4.88h0a4.9,4.9,0,0,1,4.88-4.88h113.9"/>
    <polygon class="cls-2" points="2046.23 593.68 1970.69 593.68 1970.69 593.68 2046.23 514.37 2046.23 593.68"/>
  </g>
  <g>
    <rect class="cls-2" x="424.31" y="312.17" width="158.02" height="10" rx="4.44" ry="4.44" transform="translate(820.49 -186.14) rotate(90)"/>
    <rect class="cls-2" x="404.31" y="312.17" width="158.02" height="10" rx="4.44" ry="4.44" transform="translate(800.49 -166.14) rotate(90)"/>
    <rect class="cls-2" x="384.31" y="312.17" width="158.02" height="10" rx="4.44" ry="4.44" transform="translate(780.49 -146.14) rotate(90)"/>
    <rect class="cls-2" x="364.31" y="312.17" width="158.02" height="10" rx="4.44" ry="4.44" transform="translate(760.49 -126.14) rotate(90)"/>
    <rect class="cls-2" x="344.31" y="312.17" width="158.02" height="10" rx="4.44" ry="4.44" transform="translate(740.49 -106.14) rotate(90)"/>
    <rect class="cls-2" x="324.31" y="312.17" width="158.02" height="10" rx="4.44" ry="4.44" transform="translate(720.49 -86.14) rotate(90)"/>
    <rect class="cls-2" x="304.31" y="312.17" width="158.02" height="10" rx="4.44" ry="4.44" transform="translate(700.49 -66.14) rotate(90)"/>
    <rect class="cls-2" x="284.31" y="312.17" width="158.02" height="10" rx="4.44" ry="4.44" transform="translate(680.49 -46.14) rotate(90)"/>
    <rect class="cls-2" x="264.31" y="312.17" width="158.02" height="10" rx="4.44" ry="4.44" transform="translate(660.49 -26.14) rotate(90)"/>
  </g>
  <g>
    <polygon class="cls-12" points="2027.14 637.74 1988.96 637.74 1969.87 670.81 1988.96 703.87 2027.14 703.87 2046.23 670.81 2027.14 637.74"/>
    <polygon class="cls-12" points="1995.07 693.29 1982.09 670.81 1995.07 648.32 2021.03 648.32 2034.02 670.81 2021.03 693.29 1995.07 693.29"/>
    <polygon class="cls-12" points="2001.18 682.71 1994.31 670.81 2001.18 658.9 2014.93 658.9 2021.8 670.81 2014.93 682.71 2001.18 682.71"/>
  </g>
  <g>
    <rect class="cls-2" x="1970.69" y="605.95" width="74.63" height="19.2"/>
  </g>
  <g>
    <line class="cls-12" x1="2585.34" y1="638.59" x2="2632.66" y2="638.59"/>
    <line class="cls-12" x1="2585.34" y1="678.81" x2="2742.93" y2="678.81"/>
    <line class="cls-12" x1="2585.34" y1="710.98" x2="2748.03" y2="710.98"/>
    <line class="cls-12" x1="2585.34" y1="702.94" x2="2607.76" y2="702.94"/>
    <line class="cls-12" x1="2585.34" y1="686.85" x2="2687.56" y2="686.85"/>
    <line class="cls-12" x1="2585.34" y1="670.77" x2="2623.93" y2="670.77"/>
    <line class="cls-12" x1="2585.34" y1="662.72" x2="2697.76" y2="662.72"/>
    <line class="cls-12" x1="2585.34" y1="646.63" x2="2737.82" y2="646.63"/>
    <line class="cls-12" x1="2585.34" y1="630.55" x2="2692.66" y2="630.55"/>
    <line class="cls-12" x1="2585.34" y1="622.5" x2="2622.66" y2="622.5"/>
    <line class="cls-12" x1="2585.34" y1="694.9" x2="2665.62" y2="694.9"/>
    <line class="cls-12" x1="2585.34" y1="654.68" x2="2602.66" y2="654.68"/>
    <line class="cls-12" x1="2585.34" y1="614.46" x2="2642.66" y2="614.46"/>
    <line class="cls-12" x1="2642.87" y1="638.59" x2="2782.98" y2="638.59"/>
    <line class="cls-12" x1="2753.13" y1="678.81" x2="2782.98" y2="678.81"/>
    <line class="cls-12" x1="2758.24" y1="710.98" x2="2782.98" y2="710.98"/>
    <line class="cls-12" x1="2617.97" y1="702.94" x2="2782.98" y2="702.94"/>
    <line class="cls-12" x1="2697.76" y1="686.85" x2="2782.98" y2="686.85"/>
    <line class="cls-12" x1="2634.13" y1="670.77" x2="2782.98" y2="670.77"/>
    <line class="cls-12" x1="2707.97" y1="662.72" x2="2782.98" y2="662.72"/>
    <line class="cls-12" x1="2748.03" y1="646.63" x2="2782.98" y2="646.63"/>
    <line class="cls-12" x1="2702.87" y1="630.55" x2="2782.98" y2="630.55"/>
    <line class="cls-12" x1="2632.87" y1="622.5" x2="2782.98" y2="622.5"/>
    <line class="cls-12" x1="2675.83" y1="694.9" x2="2782.98" y2="694.9"/>
    <line class="cls-12" x1="2612.87" y1="654.68" x2="2782.98" y2="654.68"/>
    <line class="cls-12" x1="2652.87" y1="614.46" x2="2782.98" y2="614.46"/>
  </g>
  <g>
    <rect class="cls-7" x="967.32" y="348.5" width="12.35" height="152.68"/>
    <rect class="cls-7" x="993.32" y="398.5" width="12.35" height="102.68"/>
    <rect class="cls-7" x="1019.32" y="425.18" width="12.35" height="76"/>
  </g>
  <g>
    <path class="cls-2" d="M954.77,705.5H680.27a12.92,12.92,0,0,0-12.92-12.92V639.11a12.92,12.92,0,0,0,12.92-12.92h274.5a12.92,12.92,0,0,0,12.92,12.92v53.47A12.92,12.92,0,0,0,954.77,705.5Z"/>
    <rect class="cls-1" x="811.35" y="528.97" width="12.35" height="255.5" transform="translate(1474.25 -160.8) rotate(90)"/>
    <rect class="cls-1" x="761.35" y="598.97" width="12.35" height="155.5" transform="translate(1444.25 -90.8) rotate(90)"/>
    <rect class="cls-1" x="893.85" y="631.47" width="12.35" height="90.5" transform="translate(1576.75 -223.3) rotate(90)"/>
  </g>
  <g>
    <rect class="cls-2" x="333.32" y="8.82" width="200" height="200"/>
    <circle class="cls-3" cx="433.32" cy="108.82" r="80"/>
  </g>
  <g>
    <polygon class="cls-2" points="1110.8 564.68 1071.64 604.18 1071.64 525.02 1110.8 564.6 1110.8 564.68"/>
    <polygon class="cls-2" points="1149.96 564.68 1110.8 604.18 1110.8 525.02 1149.96 564.6 1149.96 564.68"/>
    <rect class="cls-2" x="1149.96" y="525.02" width="7.54" height="79.16"/>
  </g>
  <g>
    <line class="cls-7" x1="1218.31" y1="527.74" x2="1218.31" y2="537.74"/>
    <line class="cls-7" x1="1208.76" y1="529" x2="1211.34" y2="538.65"/>
    <line class="cls-7" x1="1199.86" y1="532.68" x2="1204.86" y2="541.34"/>
    <line class="cls-7" x1="1192.21" y1="538.55" x2="1199.28" y2="545.62"/>
    <line class="cls-7" x1="1186.35" y1="546.19" x2="1195.01" y2="551.19"/>
    <line class="cls-7" x1="1182.66" y1="555.09" x2="1192.32" y2="557.68"/>
    <line class="cls-7" x1="1181.4" y1="564.64" x2="1191.4" y2="564.64"/>
    <line class="cls-7" x1="1182.66" y1="574.19" x2="1192.32" y2="571.61"/>
    <line class="cls-7" x1="1186.35" y1="583.1" x2="1195.01" y2="578.1"/>
    <line class="cls-7" x1="1192.21" y1="590.74" x2="1199.28" y2="583.67"/>
    <line class="cls-7" x1="1199.86" y1="596.6" x2="1204.86" y2="587.94"/>
    <line class="cls-7" x1="1208.76" y1="600.29" x2="1211.34" y2="590.63"/>
    <line class="cls-7" x1="1218.31" y1="601.55" x2="1218.31" y2="591.55"/>
    <line class="cls-7" x1="1227.86" y1="600.29" x2="1225.27" y2="590.63"/>
    <line class="cls-7" x1="1236.76" y1="596.6" x2="1231.76" y2="587.94"/>
    <line class="cls-7" x1="1244.4" y1="590.74" x2="1237.33" y2="583.67"/>
    <line class="cls-7" x1="1250.27" y1="583.1" x2="1241.61" y2="578.1"/>
    <line class="cls-7" x1="1253.96" y1="574.19" x2="1244.3" y2="571.61"/>
    <line class="cls-7" x1="1255.21" y1="564.64" x2="1245.21" y2="564.64"/>
    <line class="cls-7" x1="1253.96" y1="555.09" x2="1244.3" y2="557.68"/>
    <line class="cls-7" x1="1250.27" y1="546.19" x2="1241.61" y2="551.19"/>
    <line class="cls-7" x1="1244.4" y1="538.55" x2="1237.33" y2="545.62"/>
    <line class="cls-7" x1="1236.76" y1="532.68" x2="1231.76" y2="541.34"/>
    <line class="cls-7" x1="1227.86" y1="529" x2="1225.27" y2="538.65"/>
    <circle class="cls-7" cx="1218.31" cy="564.64" r="14.09"/>
  </g>
  <g>
    <path class="cls-15" d="M1585.75,124.55H1394.31a11.67,11.67,0,0,0,0,23.34h191.44a11.67,11.67,0,1,0,0-23.34Zm-185,18.34a6.67,6.67,0,1,1,6.67-6.67A6.67,6.67,0,0,1,1400.75,142.89Zm20,0a6.67,6.67,0,1,1,6.67-6.67A6.67,6.67,0,0,1,1420.75,142.89Zm40,0a6.67,6.67,0,1,1,6.67-6.67A6.67,6.67,0,0,1,1460.75,142.89Zm-20,0a6.67,6.67,0,1,1,6.67-6.67A6.67,6.67,0,0,1,1440.75,142.89Zm40,0a6.67,6.67,0,1,1,6.67-6.67A6.67,6.67,0,0,1,1480.75,142.89Zm20,0a6.67,6.67,0,1,1,6.67-6.67A6.67,6.67,0,0,1,1500.75,142.89Zm20,0a6.67,6.67,0,1,1,6.67-6.67A6.67,6.67,0,0,1,1520.75,142.89Zm20,0a6.67,6.67,0,1,1,6.67-6.67A6.67,6.67,0,0,1,1540.75,142.89Zm20,0a6.67,6.67,0,1,1,6.67-6.67A6.67,6.67,0,0,1,1560.75,142.89Zm20,0a6.67,6.67,0,1,1,6.67-6.67A6.67,6.67,0,0,1,1580.75,142.89Z"/>
    <path class="cls-15" d="M1585.75,157.89H1394.31a11.67,11.67,0,0,0,0,23.34h191.44a11.67,11.67,0,1,0,0-23.34Zm-185,18.34a6.67,6.67,0,1,1,6.67-6.67A6.67,6.67,0,0,1,1400.75,176.23Zm20,0a6.67,6.67,0,1,1,6.67-6.67A6.67,6.67,0,0,1,1420.75,176.23Zm40,0a6.67,6.67,0,1,1,6.67-6.67A6.67,6.67,0,0,1,1460.75,176.23Zm-20,0a6.67,6.67,0,1,1,6.67-6.67A6.67,6.67,0,0,1,1440.75,176.23Zm40,0a6.67,6.67,0,1,1,6.67-6.67A6.67,6.67,0,0,1,1480.75,176.23Zm20,0a6.67,6.67,0,1,1,6.67-6.67A6.67,6.67,0,0,1,1500.75,176.23Zm20,0a6.67,6.67,0,1,1,6.67-6.67A6.67,6.67,0,0,1,1520.75,176.23Zm20,0a6.67,6.67,0,1,1,6.67-6.67A6.67,6.67,0,0,1,1540.75,176.23Zm20,0a6.67,6.67,0,1,1,6.67-6.67A6.67,6.67,0,0,1,1560.75,176.23Zm20,0a6.67,6.67,0,1,1,6.67-6.67A6.67,6.67,0,0,1,1580.75,176.23Z"/>
  </g>
  <g>
    <path class="cls-15" d="M1303.44,695.48V524a11.67,11.67,0,0,0-23.34,0V695.48a11.67,11.67,0,1,0,23.34,0Zm-18.34-165a6.67,6.67,0,1,1,6.67,6.67A6.67,6.67,0,0,1,1285.1,530.48Zm0,20a6.67,6.67,0,1,1,6.67,6.67A6.67,6.67,0,0,1,1285.1,550.48Zm0,20a6.67,6.67,0,1,1,6.67,6.67A6.67,6.67,0,0,1,1285.1,570.48Zm0,20a6.67,6.67,0,1,1,6.67,6.67A6.67,6.67,0,0,1,1285.1,590.48Zm0,20a6.67,6.67,0,1,1,6.67,6.67A6.67,6.67,0,0,1,1285.1,610.48Zm0,20a6.67,6.67,0,1,1,6.67,6.67A6.67,6.67,0,0,1,1285.1,630.48Zm0,20a6.67,6.67,0,1,1,6.67,6.67A6.67,6.67,0,0,1,1285.1,650.48Zm0,20a6.67,6.67,0,1,1,6.67,6.67A6.67,6.67,0,0,1,1285.1,670.48Zm0,20a6.67,6.67,0,1,1,6.67,6.67A6.67,6.67,0,0,1,1285.1,690.48Z"/>
    <path class="cls-15" d="M1370.57,695.48V524a11.67,11.67,0,0,0-23.34,0V695.48a11.67,11.67,0,1,0,23.34,0Zm-18.34-165a6.67,6.67,0,1,1,6.67,6.67A6.67,6.67,0,0,1,1352.23,530.48Zm0,20a6.67,6.67,0,1,1,6.67,6.67A6.67,6.67,0,0,1,1352.23,550.48Zm0,20a6.67,6.67,0,1,1,6.67,6.67A6.67,6.67,0,0,1,1352.23,570.48Zm0,20a6.67,6.67,0,1,1,6.67,6.67A6.67,6.67,0,0,1,1352.23,590.48Zm0,20a6.67,6.67,0,1,1,6.67,6.67A6.67,6.67,0,0,1,1352.23,610.48Zm0,20a6.67,6.67,0,1,1,6.67,6.67A6.67,6.67,0,0,1,1352.23,630.48Zm0,20a6.67,6.67,0,1,1,6.67,6.67A6.67,6.67,0,0,1,1352.23,650.48Zm0,20a6.67,6.67,0,1,1,6.67,6.67A6.67,6.67,0,0,1,1352.23,670.48Zm0,20a6.67,6.67,0,1,1,6.67,6.67A6.67,6.67,0,0,1,1352.23,690.48Z"/>
    <path class="cls-16" d="M1336.78,695.48V524a11.67,11.67,0,0,0-23.34,0V695.48a11.67,11.67,0,1,0,23.34,0Zm-18.34-165a6.67,6.67,0,1,1,6.67,6.67A6.67,6.67,0,0,1,1318.44,530.48Zm0,20a6.67,6.67,0,1,1,6.67,6.67A6.67,6.67,0,0,1,1318.44,550.48Zm0,20a6.67,6.67,0,1,1,6.67,6.67A6.67,6.67,0,0,1,1318.44,570.48Zm0,20a6.67,6.67,0,1,1,6.67,6.67A6.67,6.67,0,0,1,1318.44,590.48Zm0,20a6.67,6.67,0,1,1,6.67,6.67A6.67,6.67,0,0,1,1318.44,610.48Zm0,20a6.67,6.67,0,1,1,6.67,6.67A6.67,6.67,0,0,1,1318.44,630.48Zm0,20a6.67,6.67,0,1,1,6.67,6.67A6.67,6.67,0,0,1,1318.44,650.48Zm0,20a6.67,6.67,0,1,1,6.67,6.67A6.67,6.67,0,0,1,1318.44,670.48Zm0,20a6.67,6.67,0,1,1,6.67,6.67A6.67,6.67,0,0,1,1318.44,690.48Z"/>
  </g>
  <g>
    <polygon class="cls-17" points="2634 28.82 2634 36 2641.34 28.66 2634 28.82"/>
    <rect class="cls-2" x="2506.33" y="11.82" width="24.6" height="57.31"/>
    <rect class="cls-10" x="2540.93" y="11.82" width="9.94" height="57.31"/>
    <rect class="cls-2" x="2452" y="124.55" width="44.33" height="84.27"/>
  </g>
  <g>
    <line class="cls-12" x1="2455" y1="113.07" x2="2455" y2="11.82"/>
    <line class="cls-12" x1="2465" y1="113.07" x2="2465" y2="11.82"/>
    <line class="cls-12" x1="2475" y1="113.07" x2="2475" y2="11.82"/>
    <line class="cls-12" x1="2485" y1="113.07" x2="2485" y2="11.82"/>
    <line class="cls-12" x1="2495" y1="113.07" x2="2495" y2="11.82"/>
  </g>
  <g>
    <line class="cls-12" x1="2508.63" y1="208.82" x2="2508.63" y2="81.03"/>
    <line class="cls-12" x1="2518.63" y1="208.82" x2="2518.63" y2="81.03"/>
    <line class="cls-12" x1="2528.63" y1="208.82" x2="2528.63" y2="81.03"/>
  </g>
  <g>
    <polygon class="cls-2" points="2540.93 81.03 2540.93 208.82 2604 208.82 2604 11.82 2560.87 11.82 2560.87 81.03 2540.93 81.03"/>
  </g>
  <g>
    <path class="cls-2" d="M2079.32,103.82h-188a6,6,0,0,0-6-6v-83a6,6,0,0,0,6-6h188a6,6,0,0,0,6,6v83A6,6,0,0,0,2079.32,103.82Z"/>
    <rect class="cls-1" x="1905.32" y="61.07" width="160" height="16" rx="8" ry="8"/>
    <rect class="cls-1" x="1905.32" y="34.82" width="160" height="16" rx="8" ry="8"/>
  </g>
  <g>
    <rect class="cls-2" x="1787.33" y="123.61" width="78.09" height="54.69" rx="18.22" ry="18.22"/>
  </g>
  <g>
    <circle class="cls-2" cx="1895.32" cy="123.82" r="10"/>
    <circle class="cls-2" cx="2078.33" cy="123.82" r="10"/>
    <line class="cls-7" x1="1915.32" y1="118.17" x2="2058.33" y2="118.17"/>
    <line class="cls-7" x1="1915.32" y1="128.17" x2="2058.33" y2="128.17"/>
  </g>
  <g>
    <rect class="cls-2" x="1610.5" y="124.55" width="41.25" height="57.6"/>
    <circle class="cls-3" cx="1631.13" cy="153.35" r="10.13"/>
  </g>
  <g>
    <path class="cls-5" d="M2402,10.82a28,28,0,0,1,28,28v140a28,28,0,0,1-28,28h-46.68a28,28,0,0,1-28-28v-140a28,28,0,0,1,28-28H2402m0-2h-46.68a30.09,30.09,0,0,0-30,30v140a30.09,30.09,0,0,0,30,30H2402a30.09,30.09,0,0,0,30-30v-140a30.09,30.09,0,0,0-30-30Z"/>
    <path class="cls-5" d="M2402,20.82a18,18,0,0,1,18,18v140a18,18,0,0,1-18,18h-46.68a18,18,0,0,1-18-18v-140a18,18,0,0,1,18-18H2402m0-2h-46.68a20,20,0,0,0-20,20v140a20,20,0,0,0,20,20H2402a20,20,0,0,0,20-20v-140a20,20,0,0,0-20-20Z"/>
    <path class="cls-5" d="M2402,30.82a8,8,0,0,1,8,8v140a8,8,0,0,1-8,8h-46.68a8,8,0,0,1-8-8v-140a8,8,0,0,1,8-8H2402m0-2h-46.68a10,10,0,0,0-10,10v140a10,10,0,0,0,10,10H2402a10,10,0,0,0,10-10v-140a10,10,0,0,0-10-10Z"/>
    <path class="cls-5" d="M2400,40.82v136h-42.68v-136H2400m2-2h-46.68v140H2402v-140Z"/>
    <path class="cls-5" d="M2390,50.82v116h-22.68v-116H2390m2-2h-26.68v120H2392v-120Z"/>
    <line class="cls-18" x1="2378.33" y1="58.82" x2="2378.33" y2="158.82"/>
  </g>
  <g>
    <rect class="cls-2" x="1873.69" y="471.68" width="36" height="124" transform="translate(2425.37 -1358.01) rotate(90)"/>
    <circle class="cls-1" cx="1933.02" cy="533.68" r="10.67"/>
    <circle class="cls-1" cx="1891.69" cy="533.68" r="10.67"/>
    <circle class="cls-1" cx="1850.36" cy="533.68" r="10.67"/>
    <line class="cls-19" x1="1912.36" y1="523.02" x2="1912.36" y2="544.35"/>
    <line class="cls-19" x1="1871.02" y1="523.02" x2="1871.02" y2="544.35"/>
  </g>
  <g>
    <rect class="cls-2" x="2245.98" y="205.48" width="36" height="82.67" transform="translate(2017.17 2510.8) rotate(-90)"/>
    <circle class="cls-1" cx="2243.32" cy="246.82" r="10.67"/>
    <line class="cls-19" x1="2263.98" y1="257.48" x2="2263.98" y2="236.15"/>
    <line class="cls-19" x1="2273.98" y1="257.48" x2="2273.98" y2="236.15"/>
    <line class="cls-19" x1="2283.98" y1="257.48" x2="2283.98" y2="236.15"/>
    <line class="cls-19" x1="2293.98" y1="257.48" x2="2293.98" y2="236.15"/>
  </g>
  <g>
    <rect class="cls-2" x="2245.98" y="344.58" width="36" height="82.67" transform="translate(2649.9 -1878.07) rotate(90)"/>
    <circle class="cls-1" cx="2284.65" cy="385.92" r="10.67"/>
    <line class="cls-19" x1="2263.98" y1="375.25" x2="2263.98" y2="396.58"/>
    <line class="cls-19" x1="2253.98" y1="375.25" x2="2253.98" y2="396.58"/>
    <line class="cls-19" x1="2243.98" y1="375.25" x2="2243.98" y2="396.58"/>
    <line class="cls-19" x1="2233.98" y1="375.25" x2="2233.98" y2="396.58"/>
  </g>
  <g>
    <rect class="cls-2" x="2245.98" y="298.58" width="36" height="82.67" transform="translate(1924.07 2603.9) rotate(-90)"/>
    <line class="cls-19" x1="2263.98" y1="350.58" x2="2263.98" y2="329.25"/>
    <line class="cls-19" x1="2253.98" y1="350.58" x2="2253.98" y2="329.25"/>
    <line class="cls-19" x1="2243.98" y1="350.58" x2="2243.98" y2="329.25"/>
    <line class="cls-19" x1="2233.98" y1="350.58" x2="2233.98" y2="329.25"/>
    <line class="cls-19" x1="2273.98" y1="350.58" x2="2273.98" y2="329.25"/>
    <line class="cls-19" x1="2283.98" y1="350.58" x2="2283.98" y2="329.25"/>
    <line class="cls-19" x1="2293.98" y1="350.58" x2="2293.98" y2="329.25"/>
  </g>
  <g>
    <rect class="cls-2" x="2245.98" y="251.48" width="36" height="82.67" transform="translate(1971.17 2556.8) rotate(-90)"/>
    <circle class="cls-10" cx="2243.32" cy="292.82" r="10.67"/>
    <circle class="cls-10" cx="2284.65" cy="292.82" r="10.67"/>
    <line class="cls-19" x1="2263.98" y1="303.48" x2="2263.98" y2="282.15"/>
  </g>
  <g>
    <circle class="cls-2" cx="1858.69" cy="593.68" r="29"/>
    <circle class="cls-2" cx="1924.36" cy="593.68" r="29"/>
  </g>
  <g>
    <line class="cls-20" x1="2060.17" y1="512.99" x2="2060.17" y2="580.31"/>
    <line class="cls-20" x1="2068.21" y1="512.99" x2="2068.21" y2="640.31"/>
    <line class="cls-20" x1="2076.25" y1="512.99" x2="2076.25" y2="540.31"/>
    <line class="cls-20" x1="2084.3" y1="512.99" x2="2084.3" y2="600.31"/>
    <line class="cls-20" x1="2060.17" y1="590.52" x2="2060.17" y2="703.87"/>
    <line class="cls-20" x1="2068.21" y1="650.52" x2="2068.21" y2="703.87"/>
    <line class="cls-20" x1="2076.25" y1="550.52" x2="2076.25" y2="703.87"/>
    <line class="cls-20" x1="2084.3" y1="610.52" x2="2084.3" y2="703.87"/>
  </g>
  <g>
    <rect class="cls-2" x="2098.23" y="512.99" width="39.48" height="190.88"/>
  </g>
  <g>
    <circle class="cls-2" cx="783.32" cy="18.82" r="10"/>
    <circle class="cls-2" cx="813.32" cy="18.82" r="10"/>
    <circle class="cls-2" cx="843.32" cy="18.82" r="10"/>
    <circle class="cls-2" cx="873.32" cy="18.82" r="10"/>
    <circle class="cls-2" cx="903.32" cy="18.82" r="10"/>
    <circle class="cls-2" cx="933.32" cy="18.82" r="10"/>
    <circle class="cls-2" cx="783.32" cy="48.82" r="10"/>
    <circle class="cls-2" cx="813.32" cy="48.82" r="10"/>
    <circle class="cls-2" cx="843.32" cy="48.82" r="10"/>
    <circle class="cls-2" cx="873.32" cy="48.82" r="10"/>
    <circle class="cls-2" cx="903.32" cy="48.82" r="10"/>
    <circle class="cls-2" cx="933.32" cy="48.82" r="10"/>
    <circle class="cls-2" cx="783.32" cy="78.82" r="10"/>
    <circle class="cls-2" cx="813.32" cy="78.82" r="10"/>
    <circle class="cls-2" cx="843.32" cy="78.82" r="10"/>
    <circle class="cls-2" cx="873.32" cy="78.82" r="10"/>
    <circle class="cls-2" cx="903.32" cy="78.82" r="10"/>
    <circle class="cls-2" cx="933.32" cy="78.82" r="10"/>
    <circle class="cls-2" cx="783.32" cy="108.82" r="10"/>
    <circle class="cls-2" cx="813.32" cy="108.82" r="10"/>
    <circle class="cls-2" cx="843.32" cy="108.82" r="10"/>
    <circle class="cls-2" cx="873.32" cy="108.82" r="10"/>
    <circle class="cls-2" cx="903.32" cy="108.82" r="10"/>
    <circle class="cls-2" cx="933.32" cy="108.82" r="10"/>
    <circle class="cls-2" cx="783.32" cy="138.82" r="10"/>
    <circle class="cls-2" cx="813.32" cy="138.82" r="10"/>
    <circle class="cls-2" cx="843.32" cy="138.82" r="10"/>
    <circle class="cls-2" cx="873.32" cy="138.82" r="10"/>
    <circle class="cls-2" cx="903.32" cy="138.82" r="10"/>
    <circle class="cls-2" cx="933.32" cy="138.82" r="10"/>
    <circle class="cls-2" cx="783.32" cy="168.82" r="10"/>
    <circle class="cls-2" cx="813.32" cy="168.82" r="10"/>
    <circle class="cls-2" cx="843.32" cy="168.82" r="10"/>
    <circle class="cls-2" cx="873.32" cy="168.82" r="10"/>
    <circle class="cls-2" cx="903.32" cy="168.82" r="10"/>
    <circle class="cls-2" cx="933.32" cy="168.82" r="10"/>
    <circle class="cls-2" cx="783.32" cy="198.82" r="10"/>
    <circle class="cls-2" cx="813.32" cy="198.82" r="10"/>
    <circle class="cls-2" cx="843.32" cy="198.82" r="10"/>
    <circle class="cls-2" cx="873.32" cy="198.82" r="10"/>
    <circle class="cls-2" cx="903.32" cy="198.82" r="10"/>
    <circle class="cls-2" cx="933.32" cy="198.82" r="10"/>
  </g>
  <g>
    <rect class="cls-2" x="2105.32" y="8.82" width="200" height="200"/>
    <circle class="cls-1" cx="2130.32" cy="33.82" r="10"/>
    <circle class="cls-1" cx="2160.32" cy="33.82" r="10"/>
    <circle class="cls-1" cx="2190.32" cy="33.82" r="10"/>
    <circle class="cls-1" cx="2220.32" cy="33.82" r="10"/>
    <circle class="cls-1" cx="2250.32" cy="33.82" r="10"/>
    <circle class="cls-1" cx="2280.32" cy="33.82" r="10"/>
    <circle class="cls-1" cx="2130.32" cy="63.82" r="10"/>
    <circle class="cls-1" cx="2160.32" cy="63.82" r="10"/>
    <circle class="cls-1" cx="2190.32" cy="63.82" r="10"/>
    <circle class="cls-1" cx="2220.32" cy="63.82" r="10"/>
    <circle class="cls-1" cx="2250.32" cy="63.82" r="10"/>
    <circle class="cls-1" cx="2280.32" cy="63.82" r="10"/>
    <circle class="cls-1" cx="2130.32" cy="93.82" r="10"/>
    <circle class="cls-1" cx="2160.32" cy="93.82" r="10"/>
    <circle class="cls-1" cx="2190.32" cy="93.82" r="10"/>
    <circle class="cls-1" cx="2220.32" cy="93.82" r="10"/>
    <circle class="cls-1" cx="2250.32" cy="93.82" r="10"/>
    <circle class="cls-1" cx="2280.32" cy="93.82" r="10"/>
    <circle class="cls-1" cx="2130.32" cy="123.82" r="10"/>
    <circle class="cls-1" cx="2160.32" cy="123.82" r="10"/>
    <circle class="cls-1" cx="2190.32" cy="123.82" r="10"/>
    <circle class="cls-1" cx="2220.32" cy="123.82" r="10"/>
    <circle class="cls-1" cx="2250.32" cy="123.82" r="10"/>
    <circle class="cls-1" cx="2280.32" cy="123.82" r="10"/>
    <circle class="cls-1" cx="2130.32" cy="153.82" r="10"/>
    <circle class="cls-1" cx="2160.32" cy="153.82" r="10"/>
    <circle class="cls-1" cx="2190.32" cy="153.82" r="10"/>
    <circle class="cls-1" cx="2220.32" cy="153.82" r="10"/>
    <circle class="cls-1" cx="2250.32" cy="153.82" r="10"/>
    <circle class="cls-1" cx="2280.32" cy="153.82" r="10"/>
    <circle class="cls-1" cx="2130.32" cy="183.82" r="10"/>
    <circle class="cls-1" cx="2160.32" cy="183.82" r="10"/>
    <circle class="cls-1" cx="2190.32" cy="183.82" r="10"/>
    <circle class="cls-1" cx="2220.32" cy="183.82" r="10"/>
    <circle class="cls-1" cx="2250.32" cy="183.82" r="10"/>
    <circle class="cls-1" cx="2280.32" cy="183.82" r="10"/>
  </g>
  <g>
    <path class="cls-7" d="M553.32,242.5c21.67,0,21.67,80,43.33,80s21.67-80,43.33-80,21.66,80,43.33,80,21.67-80,43.33-80,21.67,80,43.33,80,21.67-80,43.33-80,21.67,80,43.33,80,21.67-80,43.34-80,21.67,80,43.34,80"/>
  </g>
  <g>
    <rect class="cls-8" x="573.32" y="355.08" width="5.16" height="63.84" rx="2.58" ry="2.58"/>
    <rect class="cls-8" x="583.32" y="355.08" width="5.16" height="63.84" rx="2.58" ry="2.58"/>
    <rect class="cls-8" x="593.32" y="355.08" width="5.16" height="63.84" rx="2.58" ry="2.58"/>
    <rect class="cls-8" x="603.32" y="355.08" width="5.16" height="63.84" rx="2.58" ry="2.58"/>
    <rect class="cls-8" x="613.32" y="355.08" width="5.16" height="63.84" rx="2.58" ry="2.58"/>
    <rect class="cls-8" x="623.32" y="355.08" width="5.16" height="63.84" rx="2.58" ry="2.58"/>
    <rect class="cls-8" x="633.32" y="355.08" width="5.16" height="63.84" rx="2.58" ry="2.58"/>
    <rect class="cls-9" x="563.32" y="367.96" width="85.16" height="38.09"/>
    <rect class="cls-8" x="668.58" y="355.18" width="5.16" height="63.84" rx="2.58" ry="2.58"/>
    <rect class="cls-8" x="678.58" y="355.18" width="5.16" height="63.84" rx="2.58" ry="2.58"/>
    <rect class="cls-8" x="688.58" y="355.18" width="5.16" height="63.84" rx="2.58" ry="2.58"/>
    <rect class="cls-8" x="698.58" y="355.18" width="5.16" height="63.84" rx="2.58" ry="2.58"/>
    <rect class="cls-8" x="708.58" y="355.18" width="5.16" height="63.84" rx="2.58" ry="2.58"/>
    <rect class="cls-8" x="718.58" y="355.18" width="5.16" height="63.84" rx="2.58" ry="2.58"/>
    <rect class="cls-8" x="728.58" y="355.18" width="5.16" height="63.84" rx="2.58" ry="2.58"/>
    <rect class="cls-9" x="658.58" y="368.06" width="85.16" height="38.09"/>
  </g>
  <g>
    <rect class="cls-2" x="773.32" y="356.18" width="170" height="6" rx="2.85" ry="2.85"/>
    <rect class="cls-2" x="773.32" y="366.18" width="170" height="6" rx="2.85" ry="2.85"/>
    <rect class="cls-2" x="773.32" y="376.18" width="170" height="6" rx="2.85" ry="2.85"/>
    <rect class="cls-2" x="773.32" y="386.18" width="170" height="6" rx="2.85" ry="2.85"/>
    <rect class="cls-2" x="773.32" y="396.18" width="170" height="6" rx="2.85" ry="2.85"/>
    <rect class="cls-2" x="773.32" y="406.18" width="170" height="6" rx="2.85" ry="2.85"/>
    <rect class="cls-2" x="773.32" y="416.18" width="170" height="6" rx="2.85" ry="2.85"/>
  </g>
  <g>
    <polygon class="cls-4" points="778.52 512.98 778.52 444.56 846.94 512.98 778.52 512.98"/>
    <path class="cls-4" d="M780.52,449.39,842.11,511H780.52V449.39m-4-9.66V515h75.24l-6.83-6.83-61.59-61.59-6.83-6.83Z"/>
  </g>
  <g>
    <polygon class="cls-10" points="1139.91 118.82 963.32 118.82 963.32 208.82 1163.32 208.82 1163.32 142.23 1139.91 118.82"/>
  </g>
  <g>
    <rect class="cls-2" x="553.32" y="8.82" width="200" height="200"/>
    <circle class="cls-3" cx="653.32" cy="108.82" r="80"/>
  </g>
  <g>
    <rect class="cls-2" x="1885.32" y="173.92" width="150" height="19.58" transform="translate(3920.63 367.43) rotate(180)"/>
    <rect class="cls-2" x="1885.32" y="144.34" width="150" height="19.58" transform="translate(3920.63 308.26) rotate(180)"/>
    <polygon class="cls-11" points="2085.32 168.92 2045.32 193.51 2045.32 144.34 2085.32 168.92"/>
  </g>
  <g>
    <circle class="cls-2" cx="1233.32" cy="53.82" r="50"/>
  </g>
  <g>
    <circle class="cls-2" cx="1692.37" cy="28.16" r="19.51"/>
    <circle class="cls-2" cx="1692.37" cy="80.49" r="19.51"/>
    <circle class="cls-2" cx="1747.04" cy="28.16" r="19.51"/>
    <circle class="cls-2" cx="1747.04" cy="80.49" r="19.51"/>
  </g>
  <g>
    <circle class="cls-2" cx="1206.65" cy="168.82" r="13.33"/>
    <circle class="cls-2" cx="1259.98" cy="168.82" r="13.33"/>
    <circle class="cls-2" cx="1233.32" cy="142.15" r="13.33"/>
    <circle class="cls-2" cx="1233.32" cy="195.48" r="13.33"/>
  </g>
  <g>
    <rect class="cls-2" x="652.61" y="424.68" width="2" height="180" transform="translate(1168.29 -138.92) rotate(90)"/>
    <rect class="cls-2" x="652.61" y="434.68" width="2" height="180" transform="translate(1178.29 -128.92) rotate(90)"/>
    <rect class="cls-2" x="652.61" y="444.68" width="2" height="180" transform="translate(1188.29 -118.92) rotate(90)"/>
    <rect class="cls-2" x="652.61" y="454.68" width="2" height="180" transform="translate(1198.29 -108.92) rotate(90)"/>
    <rect class="cls-2" x="652.61" y="464.68" width="2" height="180" transform="translate(1208.29 -98.92) rotate(90)"/>
    <rect class="cls-2" x="652.61" y="474.68" width="2" height="180" transform="translate(1218.29 -88.92) rotate(90)"/>
    <rect class="cls-2" x="652.61" y="364.68" width="2" height="180" transform="translate(1108.29 -198.92) rotate(90)"/>
    <rect class="cls-2" x="652.61" y="354.68" width="2" height="180" transform="translate(1098.29 -208.92) rotate(90)"/>
    <rect class="cls-2" x="652.61" y="374.68" width="2" height="180" transform="translate(1118.29 -188.92) rotate(90)"/>
    <rect class="cls-2" x="652.61" y="384.68" width="2" height="180" transform="translate(1128.29 -178.92) rotate(90)"/>
    <rect class="cls-2" x="652.61" y="394.68" width="2" height="180" transform="translate(1138.29 -168.92) rotate(90)"/>
    <rect class="cls-2" x="652.61" y="404.68" width="2" height="180" transform="translate(1148.29 -158.92) rotate(90)"/>
    <rect class="cls-2" x="652.61" y="414.68" width="2" height="180" transform="translate(1158.29 -148.92) rotate(90)"/>
    <rect class="cls-2" x="652.61" y="484.68" width="2" height="180" transform="translate(1228.29 -78.92) rotate(90)"/>
    <rect class="cls-2" x="652.61" y="494.68" width="2" height="180" transform="translate(1238.29 -68.92) rotate(90)"/>
    <rect class="cls-2" x="652.61" y="504.68" width="2" height="180" transform="translate(1248.29 -58.92) rotate(90)"/>
    <rect class="cls-2" x="652.61" y="514.68" width="2" height="180" transform="translate(1258.29 -48.92) rotate(90)"/>
  </g>
  <g>
    <line class="cls-7" x1="807.32" y1="442.18" x2="877.32" y2="512.18"/>
  </g>
  <g>
    <line class="cls-7" x1="1303.32" y1="78.82" x2="1532.27" y2="78.82"/>
    <line class="cls-7" x1="1303.32" y1="68.82" x2="1532.27" y2="68.82"/>
    <line class="cls-7" x1="1303.32" y1="90.07" x2="1532.27" y2="90.07"/>
    <rect class="cls-7" x="1303.32" y="58.82" width="228.96" height="41.25"/>
  </g>
  <g>
    <line class="cls-12" x1="1789.69" y1="515.68" x2="1789.69" y2="706.03"/>
    <line class="cls-12" x1="1799.69" y1="515.68" x2="1799.69" y2="706.03"/>
    <line class="cls-12" x1="1778.44" y1="515.68" x2="1778.44" y2="706.03"/>
    <rect class="cls-12" x="1768.44" y="515.68" width="41.25" height="190.34"/>
  </g>
  <g>
    <polyline class="cls-13" points="1303.32 16.32 1313.27 36.32 1323.22 16.32 1333.17 36.32 1343.12 16.32 1353.07 36.32 1363.02 16.32 1372.97 36.32 1382.93 16.32 1392.88 36.32 1402.84 16.32 1412.79 36.32 1422.74 16.32 1432.7 36.32 1442.66 16.32 1452.61 36.32 1462.57 16.32 1472.52 36.32 1482.47 16.32 1492.43 36.32 1502.39 16.32 1512.35 36.32 1522.31 16.32 1532.27 36.32"/>
  </g>
  <g>
    <circle class="cls-14" cx="475.32" cy="477.93" r="59"/>
    <line class="cls-14" x1="475.32" y1="432.17" x2="475.32" y2="441.75"/>
    <line class="cls-14" x1="463.47" y1="433.73" x2="465.95" y2="442.98"/>
    <line class="cls-14" x1="452.44" y1="438.3" x2="457.23" y2="446.6"/>
    <line class="cls-14" x1="442.96" y1="445.57" x2="449.73" y2="452.35"/>
    <line class="cls-14" x1="435.69" y1="455.05" x2="443.98" y2="459.84"/>
    <line class="cls-14" x1="431.11" y1="466.09" x2="440.37" y2="468.57"/>
    <line class="cls-14" x1="429.56" y1="477.93" x2="439.13" y2="477.93"/>
    <line class="cls-14" x1="431.11" y1="489.78" x2="440.37" y2="487.3"/>
    <line class="cls-14" x1="435.69" y1="500.81" x2="443.98" y2="496.02"/>
    <line class="cls-14" x1="442.96" y1="510.29" x2="449.73" y2="503.52"/>
    <line class="cls-14" x1="452.44" y1="517.56" x2="457.23" y2="509.27"/>
    <line class="cls-14" x1="463.47" y1="522.14" x2="465.95" y2="512.88"/>
    <line class="cls-14" x1="475.32" y1="523.7" x2="475.32" y2="514.12"/>
    <line class="cls-14" x1="487.16" y1="522.14" x2="484.68" y2="512.88"/>
    <line class="cls-14" x1="498.2" y1="517.56" x2="493.41" y2="509.27"/>
    <line class="cls-14" x1="507.68" y1="510.29" x2="500.9" y2="503.52"/>
    <line class="cls-14" x1="514.95" y1="500.81" x2="506.65" y2="496.02"/>
    <line class="cls-14" x1="519.52" y1="489.78" x2="510.27" y2="487.3"/>
    <line class="cls-14" x1="521.08" y1="477.93" x2="511.5" y2="477.93"/>
    <line class="cls-14" x1="519.52" y1="466.09" x2="510.27" y2="468.57"/>
    <line class="cls-14" x1="514.95" y1="455.05" x2="506.65" y2="459.84"/>
    <line class="cls-14" x1="507.68" y1="445.57" x2="500.9" y2="452.35"/>
    <line class="cls-14" x1="498.2" y1="438.3" x2="493.41" y2="446.6"/>
    <line class="cls-14" x1="487.16" y1="433.73" x2="484.68" y2="442.98"/>
    <circle class="cls-10" cx="475.32" cy="477.93" r="22.88"/>
  </g>
  <g>
    <rect class="cls-2" x="333.32" y="419.18" width="58.68" height="186.5"/>
  </g>
  <g>
    <circle class="cls-6" cx="438.25" cy="599.93" r="6.25"/>
    <circle class="cls-6" cx="458.25" cy="599.93" r="6.25"/>
    <circle class="cls-6" cx="478.25" cy="599.93" r="6.25"/>
    <circle class="cls-6" cx="498.25" cy="599.93" r="6.25"/>
    <circle class="cls-6" cx="518.25" cy="599.93" r="6.25"/>
    <circle class="cls-6" cx="418.25" cy="579.93" r="6.25"/>
    <circle class="cls-6" cx="438.25" cy="579.93" r="6.25"/>
    <circle class="cls-6" cx="458.25" cy="579.93" r="6.25"/>
    <circle class="cls-6" cx="478.25" cy="579.93" r="6.25"/>
    <circle class="cls-6" cx="498.25" cy="579.93" r="6.25"/>
    <circle class="cls-6" cx="518.25" cy="579.93" r="6.25"/>
    <circle class="cls-6" cx="538.25" cy="579.93" r="6.25"/>
    <circle class="cls-6" cx="438.25" cy="559.93" r="6.25"/>
    <circle class="cls-6" cx="458.25" cy="559.93" r="6.25"/>
    <circle class="cls-6" cx="478.25" cy="559.93" r="6.25"/>
    <circle class="cls-6" cx="498.25" cy="559.93" r="6.25"/>
    <circle class="cls-6" cx="518.25" cy="559.93" r="6.25"/>
  </g>
  <g>
    <path class="cls-2" d="M1034.71,604.34H981.24l-12.92-12.92V537.95L981.24,525h53.47l12.92,12.92v53.47Z"/>
    <path class="cls-6" d="M1008,546.53a18.15,18.15,0,1,1-18.15,18.15A18.17,18.17,0,0,1,1008,546.53m0-6a24.15,24.15,0,1,0,24.15,24.15A24.15,24.15,0,0,0,1008,540.53Z"/>
  </g>
  <g>
    <path class="cls-2" d="M1354.58,182.28H1313.3l-10-10V131l10-10h41.29l10,10V172.3Z"/>
    <circle class="cls-6" cx="1333.94" cy="151.65" r="18.65"/>
  </g>
  <g>
    <path class="cls-2" d="M632.63,705.5H579.16l-12.92-12.92V639.11l12.92-12.92h53.47l12.92,12.92v53.47Z"/>
    <circle class="cls-11" cx="605.9" cy="665.84" r="24.15"/>
  </g>
  <g>
    <rect class="cls-2" x="333.32" y="626.18" width="15.51" height="15.51"/>
    <rect class="cls-2" x="353.32" y="626.18" width="15.51" height="15.51"/>
    <rect class="cls-2" x="373.32" y="626.18" width="15.51" height="15.51"/>
    <rect class="cls-2" x="393.32" y="626.18" width="15.51" height="15.51"/>
    <rect class="cls-2" x="413.32" y="626.18" width="15.51" height="15.51"/>
    <rect class="cls-2" x="433.32" y="626.18" width="15.51" height="15.51"/>
    <rect class="cls-2" x="453.32" y="626.18" width="15.51" height="15.51"/>
    <rect class="cls-2" x="473.32" y="626.18" width="15.51" height="15.51"/>
    <rect class="cls-2" x="493.32" y="626.18" width="15.51" height="15.51"/>
    <rect class="cls-2" x="513.32" y="626.18" width="15.51" height="15.51"/>
    <rect class="cls-2" x="533.32" y="626.18" width="15.51" height="15.51"/>
    <rect class="cls-2" x="333.32" y="646.18" width="15.51" height="15.51"/>
    <rect class="cls-2" x="353.32" y="646.18" width="15.51" height="15.51"/>
    <rect class="cls-2" x="373.32" y="646.18" width="15.51" height="15.51"/>
    <rect class="cls-2" x="393.32" y="646.18" width="15.51" height="15.51"/>
    <rect class="cls-2" x="413.32" y="646.18" width="15.51" height="15.51"/>
    <rect class="cls-2" x="433.32" y="646.18" width="15.51" height="15.51"/>
    <rect class="cls-2" x="453.32" y="646.18" width="15.51" height="15.51"/>
    <rect class="cls-2" x="473.32" y="646.18" width="15.51" height="15.51"/>
    <rect class="cls-5" x="493.32" y="646.18" width="15.51" height="15.51"/>
    <rect class="cls-2" x="513.32" y="646.18" width="15.51" height="15.51"/>
    <rect class="cls-2" x="533.32" y="646.18" width="15.51" height="15.51"/>
    <rect class="cls-2" x="333.32" y="666.18" width="15.51" height="15.51"/>
    <rect class="cls-2" x="353.32" y="666.18" width="15.51" height="15.51"/>
    <rect class="cls-2" x="373.32" y="666.18" width="15.51" height="15.51"/>
    <rect class="cls-2" x="393.32" y="666.18" width="15.51" height="15.51"/>
    <rect class="cls-2" x="413.32" y="666.18" width="15.51" height="15.51"/>
    <rect class="cls-2" x="433.32" y="666.18" width="15.51" height="15.51"/>
    <rect class="cls-2" x="453.32" y="666.18" width="15.51" height="15.51"/>
    <rect class="cls-2" x="473.32" y="666.18" width="15.51" height="15.51"/>
    <rect class="cls-2" x="493.32" y="666.18" width="15.51" height="15.51"/>
    <rect class="cls-2" x="513.32" y="666.18" width="15.51" height="15.51"/>
    <rect class="cls-2" x="533.32" y="666.18" width="15.51" height="15.51"/>
    <rect class="cls-2" x="333.32" y="686.18" width="15.51" height="15.51"/>
    <rect class="cls-2" x="353.32" y="686.18" width="15.51" height="15.51"/>
    <rect class="cls-2" x="373.32" y="686.18" width="15.51" height="15.51"/>
    <rect class="cls-2" x="393.32" y="686.18" width="15.51" height="15.51"/>
    <rect class="cls-2" x="413.32" y="686.18" width="15.51" height="15.51"/>
    <rect class="cls-2" x="433.32" y="686.18" width="15.51" height="15.51"/>
    <rect class="cls-2" x="453.32" y="686.18" width="15.51" height="15.51"/>
    <rect class="cls-2" x="473.32" y="686.18" width="15.51" height="15.51"/>
    <rect class="cls-2" x="493.32" y="686.18" width="15.51" height="15.51"/>
    <rect class="cls-2" x="513.32" y="686.18" width="15.51" height="15.51"/>
    <rect class="cls-2" x="533.32" y="686.18" width="15.51" height="15.51"/>
  </g>
  <g>
    <line class="cls-12" x1="980.11" y1="626.18" x2="980.11" y2="705.5"/>
    <line class="cls-12" x1="1000.11" y1="626.18" x2="1000.11" y2="705.5"/>
    <line class="cls-12" x1="1020.11" y1="626.18" x2="1020.11" y2="705.5"/>
    <line class="cls-12" x1="1040.11" y1="626.18" x2="1040.11" y2="705.5"/>
    <line class="cls-12" x1="1060.11" y1="626.18" x2="1060.11" y2="705.5"/>
    <line class="cls-12" x1="1080.11" y1="626.18" x2="1080.11" y2="705.5"/>
    <line class="cls-12" x1="1100.11" y1="626.18" x2="1100.11" y2="705.5"/>
    <line class="cls-12" x1="1120.11" y1="626.18" x2="1120.11" y2="705.5"/>
    <line class="cls-12" x1="1140.11" y1="626.18" x2="1140.11" y2="705.5"/>
    <line class="cls-12" x1="1160.11" y1="626.18" x2="1160.11" y2="705.5"/>
    <line class="cls-12" x1="1180.11" y1="626.18" x2="1180.11" y2="705.5"/>
    <line class="cls-12" x1="1200.11" y1="626.18" x2="1200.11" y2="705.5"/>
    <line class="cls-12" x1="1220.11" y1="626.18" x2="1220.11" y2="705.5"/>
    <line class="cls-12" x1="1240.11" y1="626.18" x2="1240.11" y2="705.5"/>
    <line class="cls-12" x1="990.11" y1="626.18" x2="990.11" y2="705.5"/>
    <line class="cls-12" x1="1010.11" y1="626.18" x2="1010.11" y2="705.5"/>
    <line class="cls-12" x1="1030.11" y1="626.18" x2="1030.11" y2="705.5"/>
    <line class="cls-12" x1="1050.11" y1="626.18" x2="1050.11" y2="705.5"/>
    <line class="cls-12" x1="1070.11" y1="626.18" x2="1070.11" y2="705.5"/>
    <line class="cls-12" x1="1090.11" y1="626.18" x2="1090.11" y2="705.5"/>
    <line class="cls-12" x1="1110.11" y1="626.18" x2="1110.11" y2="705.5"/>
    <line class="cls-12" x1="1130.11" y1="626.18" x2="1130.11" y2="705.5"/>
    <line class="cls-12" x1="1150.11" y1="626.18" x2="1150.11" y2="705.5"/>
    <line class="cls-12" x1="1170.11" y1="626.18" x2="1170.11" y2="705.5"/>
    <line class="cls-12" x1="1190.11" y1="626.18" x2="1190.11" y2="705.5"/>
    <line class="cls-12" x1="1210.11" y1="626.18" x2="1210.11" y2="705.5"/>
    <line class="cls-12" x1="1230.11" y1="626.18" x2="1230.11" y2="705.5"/>
    <line class="cls-12" x1="1250.11" y1="626.18" x2="1250.11" y2="705.5"/>
    <line class="cls-12" x1="1260.11" y1="626.18" x2="1260.11" y2="705.5"/>
  </g>
  <g>
    <line class="cls-12" x1="2239.89" y1="522.19" x2="2160.57" y2="522.19"/>
    <line class="cls-12" x1="2239.89" y1="542.19" x2="2160.57" y2="542.19"/>
    <line class="cls-12" x1="2239.89" y1="562.19" x2="2160.57" y2="562.19"/>
    <line class="cls-12" x1="2239.89" y1="582.19" x2="2160.57" y2="582.19"/>
    <line class="cls-12" x1="2239.89" y1="602.19" x2="2160.57" y2="602.19"/>
    <line class="cls-12" x1="2239.89" y1="622.19" x2="2160.57" y2="622.19"/>
    <line class="cls-12" x1="2239.89" y1="642.19" x2="2160.57" y2="642.19"/>
    <line class="cls-12" x1="2239.89" y1="662.19" x2="2160.57" y2="662.19"/>
    <line class="cls-12" x1="2239.89" y1="682.19" x2="2160.57" y2="682.19"/>
    <line class="cls-12" x1="2239.89" y1="512.19" x2="2160.57" y2="512.19"/>
    <line class="cls-12" x1="2239.89" y1="532.19" x2="2160.57" y2="532.19"/>
    <line class="cls-12" x1="2239.89" y1="552.19" x2="2160.57" y2="552.19"/>
    <line class="cls-12" x1="2239.89" y1="572.19" x2="2160.57" y2="572.19"/>
    <line class="cls-12" x1="2239.89" y1="592.19" x2="2160.57" y2="592.19"/>
    <line class="cls-12" x1="2239.89" y1="612.19" x2="2160.57" y2="612.19"/>
    <line class="cls-12" x1="2239.89" y1="632.19" x2="2160.57" y2="632.19"/>
    <line class="cls-12" x1="2239.89" y1="652.19" x2="2160.57" y2="652.19"/>
    <line class="cls-12" x1="2239.89" y1="672.19" x2="2160.57" y2="672.19"/>
    <line class="cls-12" x1="2239.89" y1="692.19" x2="2160.57" y2="692.19"/>
    <line class="cls-12" x1="2239.89" y1="702.19" x2="2160.57" y2="702.19"/>
  </g>
  <g>
    <circle class="cls-2" cx="983.83" cy="302.66" r="19.06"/>
    <polygon class="cls-15" points="1017.7 267.84 1017.7 233.48 1052.06 233.48 1017.7 267.84"/>
    <rect class="cls-2" x="969" y="235.84" width="29.64" height="29.64" transform="translate(465.4 -622.25) rotate(45)"/>
  </g>
  <g>
    <polygon class="cls-15" points="905.99 606.89 940.35 606.89 940.35 572.54 905.99 606.89"/>
    <rect class="cls-2" x="905.99" y="530.9" width="34.36" height="34.36" transform="translate(1846.33 1096.15) rotate(-180)"/>
    <circle class="cls-2" cx="881.5" cy="548.07" r="17.18"/>
    <line class="cls-12" x1="896.49" y1="572.54" x2="896.49" y2="606.89"/>
    <line class="cls-12" x1="889.19" y1="572.54" x2="889.19" y2="606.89"/>
    <line class="cls-12" x1="881.88" y1="572.54" x2="881.88" y2="606.89"/>
    <line class="cls-12" x1="874.58" y1="572.54" x2="874.58" y2="606.89"/>
    <line class="cls-12" x1="867.28" y1="572.54" x2="867.28" y2="606.89"/>
  </g>
  <g>
    <polygon class="cls-15" points="1708.06 673.45 1708.06 707.81 1673.7 707.81 1708.06 673.45"/>
    <rect class="cls-5" x="1717.36" y="628.81" width="34.36" height="34.36"/>
    <circle class="cls-2" cx="1692.88" cy="645.99" r="17.18"/>
  </g>
  <g>
    <rect class="cls-2" x="2375" y="510.98" width="200" height="200"/>
    <circle class="cls-4" cx="2475" cy="610.98" r="80"/>
  </g>
  <g>
    <path class="cls-5" d="M909.07,447.68a30.25,30.25,0,1,1-30.25,30.25,30.28,30.28,0,0,1,30.25-30.25m0-4a34.25,34.25,0,1,0,34.25,34.25,34.25,34.25,0,0,0-34.25-34.25Z"/>
    <path class="cls-5" d="M909.07,457.68a20.25,20.25,0,1,1-20.25,20.25,20.27,20.27,0,0,1,20.25-20.25m0-4a24.25,24.25,0,1,0,24.25,24.25,24.28,24.28,0,0,0-24.25-24.25Z"/>
    <path class="cls-5" d="M909.07,467.68a10.25,10.25,0,1,1-10.25,10.25,10.26,10.26,0,0,1,10.25-10.25m0-4a14.25,14.25,0,1,0,14.25,14.25,14.27,14.27,0,0,0-14.25-14.25Z"/>
    <path class="cls-5" d="M909.07,477.68a.25.25,0,1,1-.25.25.25.25,0,0,1,.25-.25m0-4a4.25,4.25,0,1,0,4.25,4.25,4.25,4.25,0,0,0-4.25-4.25Z"/>
  </g>
  <g>
    <line class="cls-12" x1="1751.34" y1="676.03" x2="1716.98" y2="676.03"/>
    <line class="cls-12" x1="1751.34" y1="683.33" x2="1716.98" y2="683.33"/>
    <line class="cls-12" x1="1751.34" y1="690.63" x2="1716.98" y2="690.63"/>
    <line class="cls-12" x1="1751.34" y1="697.94" x2="1716.98" y2="697.94"/>
    <line class="cls-12" x1="1751.34" y1="705.24" x2="1716.98" y2="705.24"/>
  </g>
  <g>
    <path class="cls-2" d="M810.25,532.9a36,36,0,1,1-36,36,36,36,0,0,1,36-36m0-2a38,38,0,1,0,38,38,38,38,0,0,0-38-38Z"/>
    <path class="cls-2" d="M810.25,542.89a26,26,0,1,1-26,26,26,26,0,0,1,26-26m0-2a28,28,0,1,0,28,28,28,28,0,0,0-28-28Z"/>
  </g>
  <g>
    <rect class="cls-12" x="1390.57" y="512.37" width="21.09" height="87.39"/>
    <rect class="cls-12" x="1390.57" y="608.11" width="21.09" height="97.39"/>
    <rect class="cls-12" x="1421.67" y="512.37" width="21.09" height="117.39"/>
    <rect class="cls-12" x="1421.67" y="638.11" width="21.09" height="67.39"/>
    <rect class="cls-12" x="1452.76" y="512.37" width="21.09" height="54.52"/>
    <rect class="cls-12" x="1452.76" y="575.24" width="21.09" height="130.26"/>
    <rect class="cls-12" x="1483.86" y="512.37" width="21.09" height="140.26"/>
    <rect class="cls-12" x="1483.86" y="660.98" width="21.09" height="44.52"/>
  </g>
  <g>
    <polyline class="cls-7" points="1637.82 514.37 1654.08 514.37 1654.08 528 1637.82 528 1637.82 541.63"/>
    <polyline class="cls-7" points="1637.82 541.63 1654.08 541.63 1654.08 555.26 1637.82 555.26 1637.82 568.89"/>
    <polyline class="cls-7" points="1637.82 568.89 1654.08 568.89 1654.08 582.52 1637.82 582.52 1637.82 596.15"/>
    <polyline class="cls-7" points="1637.82 596.15 1654.08 596.15 1654.08 609.79 1637.82 609.79"/>
    <polyline class="cls-7" points="1637.82 609.79 1654.08 609.79 1654.08 623.42 1637.82 623.42 1637.82 637.05"/>
    <polyline class="cls-7" points="1637.82 637.05 1654.08 637.05 1654.08 650.68 1637.82 650.68 1637.82 664.31"/>
    <polyline class="cls-7" points="1637.82 664.31 1654.08 664.31 1654.08 677.94 1637.82 677.94 1637.82 691.57"/>
    <polyline class="cls-7" points="1637.82 691.57 1654.08 691.57 1654.08 705.2 1637.82 705.2"/>
  </g>
  <g>
    <rect class="cls-7" x="1560.5" y="8.82" width="91.25" height="91.25"/>
    <rect class="cls-7" x="1576.5" y="24.82" width="59.25" height="59.25" transform="translate(1660.57 -1551.68) rotate(90)"/>
    <rect class="cls-7" x="1592.5" y="40.82" width="27.25" height="27.25" transform="translate(1660.57 -1551.68) rotate(90)"/>
  </g>
  <g>
    <line class="cls-7" x1="1672.86" y1="127.55" x2="1766.54" y2="127.16"/>
    <line class="cls-7" x1="1672.86" y1="137.55" x2="1766.54" y2="137.16"/>
    <line class="cls-7" x1="1672.86" y1="147.55" x2="1766.54" y2="147.16"/>
    <line class="cls-7" x1="1672.86" y1="157.55" x2="1766.54" y2="157.16"/>
    <line class="cls-7" x1="1672.86" y1="167.55" x2="1766.54" y2="167.16"/>
    <line class="cls-7" x1="1672.86" y1="177.55" x2="1766.54" y2="177.16"/>
  </g>
  <g>
    <path class="cls-12" d="M1865.43,11.82V98.19a4.9,4.9,0,0,1-4.88,4.88h0a4.9,4.9,0,0,1-4.88-4.88V16.7a4.9,4.9,0,0,0-4.88-4.88h0a4.9,4.9,0,0,0-4.88,4.88V98.19a4.9,4.9,0,0,1-4.88,4.88h0a4.9,4.9,0,0,1-4.88-4.88V16.7a4.9,4.9,0,0,0-4.88-4.88h0a4.9,4.9,0,0,0-4.88,4.88V98.19a4.9,4.9,0,0,1-4.88,4.88h0a4.9,4.9,0,0,1-4.88-4.88V16.7a4.9,4.9,0,0,0-4.88-4.88h0a4.9,4.9,0,0,0-4.88,4.88V98.19a4.9,4.9,0,0,1-4.88,4.88h0a4.9,4.9,0,0,1-4.88-4.88V16.7a4.9,4.9,0,0,0-4.88-4.88h0a4.9,4.9,0,0,0-4.88,4.88v86.37"/>
  </g>
  <g>
    <rect class="cls-2" x="2614" y="8.82" width="173.33" height="199.87"/>
    <polygon class="cls-17" points="2654 28.82 2767.33 28.82 2767.33 188.69 2634 188.69 2634 48.82 2654 28.82"/>
  </g>
  <g>
    <rect class="cls-2" x="2262.13" y="609.76" width="92.87" height="92.87"/>
    <rect class="cls-1" x="2290.99" y="631.79" width="12" height="48.82"/>
    <rect class="cls-1" x="2314.14" y="631.79" width="12" height="48.82"/>
  </g>
  <g>
    <polygon class="cls-9" points="2552.92 268.33 2572.47 248.61 2572.47 248.57 2552.92 228.82 2508.68 228.82 2508.68 268.33 2552.92 268.33"/>
    <rect class="cls-2" x="2452" y="228.82" width="44.91" height="39.51"/>
  </g>
  <g>
    <line class="cls-12" x1="2262.13" y1="591.68" x2="2355" y2="591.68"/>
    <line class="cls-12" x1="2262.13" y1="601.68" x2="2355" y2="601.68"/>
    <line class="cls-12" x1="2355" y1="511.69" x2="2262.13" y2="511.69"/>
    <line class="cls-12" x1="2355" y1="521.69" x2="2262.13" y2="521.69"/>
    <rect class="cls-12" x="2262.13" y="530.68" width="92.87" height="50"/>
    <line class="cls-12" x1="2273.56" y1="530.68" x2="2273.56" y2="580.68"/>
    <line class="cls-12" x1="2283.56" y1="530.68" x2="2283.56" y2="580.68"/>
    <line class="cls-12" x1="2293.56" y1="530.68" x2="2293.56" y2="580.68"/>
    <line class="cls-12" x1="2303.56" y1="530.68" x2="2303.56" y2="580.68"/>
    <line class="cls-12" x1="2313.56" y1="530.68" x2="2313.56" y2="580.68"/>
    <line class="cls-12" x1="2323.56" y1="530.68" x2="2323.56" y2="580.68"/>
    <line class="cls-12" x1="2333.56" y1="530.68" x2="2333.56" y2="580.68"/>
    <line class="cls-12" x1="2343.56" y1="530.68" x2="2343.56" y2="580.68"/>
  </g>
  <g>
    <polyline class="cls-7" points="2160.32 484.45 2184.65 428.45 2208.98 484.45 2233.32 428.45 2257.65 484.45 2281.99 428.45 2306.32 484.45 2330.66 428.45 2355 484.45"/>
  </g>
  <g>
    <rect class="cls-2" x="2591.59" y="228.82" width="92.87" height="92.87" transform="translate(2362.78 2913.28) rotate(-90)"/>
    <polygon class="cls-3" points="2600.3 284.74 2638.03 247.01 2675.76 284.74 2600.3 284.74"/>
    <rect class="cls-3" x="2600.3" y="292.49" width="75.46" height="11"/>
  </g>
  <g>
    <polyline class="cls-7" points="2589.73 516.28 2616.99 601.34 2616.99 516.28"/>
    <polyline class="cls-7" points="2617.8 516.28 2645.06 601.34 2645.06 516.28"/>
    <polyline class="cls-7" points="2645.86 516.28 2673.12 601.34 2673.12 516.28"/>
    <polyline class="cls-7" points="2673.93 516.28 2701.19 601.34 2701.19 516.28"/>
    <polyline class="cls-7" points="2701.99 516.28 2729.25 601.34 2729.25 516.28"/>
    <polyline class="cls-7" points="2730.06 516.28 2757.32 601.34 2757.32 516.28"/>
    <polyline class="cls-7" points="2758.12 516.28 2785.38 601.34 2785.38 516.28"/>
    <line class="cls-7" x1="2589.73" y1="516.28" x2="2589.73" y2="601.34"/>
  </g>
  <g>
    <rect class="cls-2" x="2459.91" y="288.33" width="4.17" height="23.58"/>
    <rect class="cls-2" x="2455.74" y="311.92" width="4.17" height="23.58"/>
    <rect class="cls-2" x="2468.26" y="288.33" width="4.17" height="23.58"/>
    <rect class="cls-2" x="2464.09" y="311.92" width="4.17" height="23.58"/>
    <rect class="cls-2" x="2476.6" y="288.33" width="4.17" height="23.58"/>
    <rect class="cls-2" x="2472.43" y="311.92" width="4.17" height="23.58"/>
    <rect class="cls-2" x="2484.94" y="288.33" width="4.17" height="23.58"/>
    <rect class="cls-2" x="2451.57" y="288.33" width="4.17" height="23.58"/>
    <rect class="cls-2" x="2480.77" y="311.92" width="4.17" height="23.58"/>
    <rect class="cls-2" x="2489.11" y="311.92" width="4.17" height="23.58"/>
    <rect class="cls-2" x="2501.63" y="288.33" width="4.17" height="23.58"/>
    <rect class="cls-2" x="2497.46" y="311.92" width="4.17" height="23.58"/>
    <rect class="cls-2" x="2509.97" y="288.33" width="4.17" height="23.58"/>
    <rect class="cls-2" x="2505.8" y="311.92" width="4.17" height="23.58"/>
    <rect class="cls-2" x="2518.31" y="288.33" width="4.17" height="23.58"/>
    <rect class="cls-2" x="2514.14" y="311.92" width="4.17" height="23.58"/>
    <rect class="cls-2" x="2526.66" y="288.33" width="4.17" height="23.58"/>
    <rect class="cls-2" x="2493.29" y="288.33" width="4.17" height="23.58"/>
    <rect class="cls-2" x="2522.48" y="311.92" width="4.17" height="23.58"/>
  </g>
  <g>
    <circle class="cls-2" cx="2378.66" cy="288.16" r="53.34"/>
  </g>
  <g>
    <line class="cls-7" x1="2555" y1="289.92" x2="2555" y2="490.98"/>
    <line class="cls-7" x1="2545" y1="289.92" x2="2545" y2="490.98"/>
    <line class="cls-7" x1="2565" y1="289.92" x2="2565" y2="490.98"/>
    <line class="cls-7" x1="2575" y1="289.92" x2="2575" y2="490.98"/>
  </g>
  <g>
    <path class="cls-2" d="M2526.83,361.92v37.81H2329.32V361.92h197.51m4-4H2325.32v45.81h205.51V357.92Z"/>
    <line class="cls-7" x1="2428.07" y1="399.5" x2="2428.07" y2="362"/>
    <line class="cls-7" x1="2329.32" y1="380.82" x2="2526.66" y2="380.82"/>
  </g>
  <g>
    <path class="cls-11" d="M2440,427.31v63h-63v-63h63m2-2h-67v67h67v-67Z"/>
    <rect class="cls-11" x="2395" y="445.31" width="27" height="27"/>
  </g>
  <g>
    <polygon class="cls-2" points="2456.75 422.31 2456.75 495.31 2493.25 458.81 2456.75 422.31"/>
    <polygon class="cls-2" points="2493.38 422.31 2493.38 495.31 2529.88 458.81 2493.38 422.31"/>
  </g>
  <g>
    <polygon class="cls-2" points="2141.7 228.82 2118.93 228.82 2107.55 248.54 2118.93 268.25 2141.7 268.25 2153.09 248.54 2141.7 228.82"/>
    <polygon class="cls-2" points="2205.04 259.92 2205.04 237.15 2185.32 225.77 2165.6 237.15 2165.6 259.92 2185.32 271.31 2205.04 259.92"/>
  </g>
  <g>
    <line class="cls-12" x1="2156.32" y1="357.92" x2="2156.32" y2="287.48"/>
    <line class="cls-12" x1="2166.32" y1="357.92" x2="2166.32" y2="287.48"/>
    <line class="cls-12" x1="2176.32" y1="357.92" x2="2176.32" y2="287.48"/>
    <line class="cls-12" x1="2186.32" y1="357.92" x2="2186.32" y2="287.48"/>
    <line class="cls-12" x1="2196.32" y1="357.92" x2="2196.32" y2="287.48"/>
    <line class="cls-12" x1="2206.32" y1="357.92" x2="2206.32" y2="287.48"/>
    <line class="cls-12" x1="2146.32" y1="347.92" x2="2146.32" y2="287.48"/>
    <line class="cls-12" x1="2126.32" y1="327.92" x2="2126.32" y2="287.48"/>
    <line class="cls-12" x1="2116.32" y1="317.92" x2="2116.32" y2="287.48"/>
    <line class="cls-12" x1="2106.32" y1="307.92" x2="2106.32" y2="287.48"/>
    <line class="cls-12" x1="2136.32" y1="337.92" x2="2136.32" y2="287.48"/>
  </g>
  <g>
    <line class="cls-12" x1="2206.32" y1="403.92" x2="2156.32" y2="403.92"/>
  </g>
  <g>
    <rect class="cls-12" x="2124.78" y="371.87" width="83.79" height="18.5" rx="9.25" ry="9.25"/>
    <circle class="cls-12" cx="2135.32" cy="381.12" r="5"/>
    <circle class="cls-12" cx="2197.32" cy="381.12" r="5"/>
  </g>
  <g>
    <path class="cls-2" d="M2090.05,231.82v35.44h-20.26l-15.17-15.17V231.82h35.44m2-2h-39.44v23.09L2069,269.25h23.09V229.82Z"/>
  </g>
  <g>
    <rect class="cls-12" x="2060.17" y="425.18" width="8.04" height="76"/>
    <rect class="cls-12" x="2076.25" y="425.18" width="8.04" height="76"/>
  </g>
  <g>
    <polygon class="cls-2" points="2137.71 418.34 2098.23 459.78 2098.23 460.45 2137.71 460.45 2137.71 418.34"/>
    <line class="cls-12" x1="2098.23" y1="501.18" x2="2137.71" y2="501.18"/>
    <line class="cls-12" x1="2098.23" y1="491.18" x2="2137.71" y2="491.18"/>
    <line class="cls-12" x1="2098.23" y1="481.18" x2="2137.71" y2="481.18"/>
    <line class="cls-12" x1="2098.23" y1="471.18" x2="2137.71" y2="471.18"/>
  </g>
</svg>
