<svg width="300" height="271" viewBox="0 0 300 271" xmlns="http://www.w3.org/2000/svg"><title>Untitled</title><g fill="none" fill-rule="evenodd"><path d="M42.02 241.323c16.48 1.1 19.479-6.595 19.805-7.626-.605-.089-1.224-.178-1.845-.267-1.04 2.137-5.19 8.39-17.96 7.893" fill="#CCC"/><path d="M59.214 243.594c6.173-1.652 11.223.65 6.773 3.714-3.983 2.741 7.667-.09 6.57-5.974-.37-.27-.752-.518-1.152-.736-4.845-2.644-6.224-4.056-5.237-6.231-.624-.106-1.386-.227-2.236-.357-1.154 2.495 1.766 5.872 4.29 6.315 3 .526-.06 1.754-3.12 1.345-3.06-.41-3.488-2.105-3.488-2.105s2.509 1.462 3.121.877c.573-.548-4.338-2.894-2.283-6.653a185.42 185.42 0 0 0-.59-.087c.008 1.053-.447 8.727-15.396 8.839 2.772.867 8.315 2.24 12.748 1.053M55.567 231.656c5.749-.512 12.16 1.231 14.451-.958 2.774-2.65 3.182-5.924 3.754-15.901.121-2.12.658-3.815 1.424-5.175-2.303 2.63-4.53 6.471-4.856 11.415-.557 8.459-9.123 6.075-14.773 10.619M86.884 193.096c-4.798-9.759-2.128-20.22-2.083-20.392l-.002.003-1.833 5.617c-1.097 6.048-.432 13.664.312 20.96.194 1.906.246 3.55.199 4.982.361-.055.576-.07.576-.07s-.217.068-.58.21c-.32 8.36-4.173 9.085-4.173 9.085s2.265-2.163 2.876-5.554c.13-.718.122-1.718.04-2.978-2.425 1.189-6.441 3.861-6.894 8.668-.278 2.959-.26 5.418-.26 7.517 2.759-.596 9.466-2.936 15.344-11.99.583-4.459-.573-10.06-3.522-16.058M108.834 183.755l-.002.005.003-.004M108.75 170.12c-3.4 5.884-7.627 14.33-9.764 23.007-.15.609-.308 1.211-.47 1.81 4.53-3.578 7.733-8.035 9.974-12.277-.488-1.891-1.173-6.187.26-12.54M109.866 166.117v-.001.001M106.395 208.536c10.351-5.908.45-8.046 4.191-14.79 3.742-6.746 4.258-11.016 2.387-11.326-1.565-.259-3.903 5.988-11.207 12.206a71.038 71.038 0 0 1-4.782 5.322 61.435 61.435 0 0 1-2.236 5.612c9.199-4.726 17.13-16.876 17.13-16.876s-6.917 13.88-18.93 20.419a40.523 40.523 0 0 1-2.274 3.608c2.275.275 7.893.294 15.72-4.175M117.552 260.701h.001l-.002-.006.001.006" fill="#CCC"/><path d="M50.152 259.283c-.783-.066-1.556-.14-2.321-.218a109.651 109.651 0 0 1-14.544-3.217c-12.674-3.714-16.448-9.655-6.289-8.912 10.158.743 13.254-4.177 2.419-5.106C19 240.938 6.715 235.583 4.66 223.792c-.936 1.857-1.52 3.512-1.718 4.952 7.116 13.731 30.846 15.518 30.846 15.518s-17.25 1.78-30.23-9.38c.345 1.42.805 2.898 1.353 4.4 14.478 17.53 31.61 19.634 31.61 19.634s-12.586.483-29.573-14.752c3.023 6.466 7.083 12.56 9.868 15.22 4.4 4.203 7.642 7.969 10.968 8.763h8.464c-10.003-1.223-15.883-9.464-15.883-9.464s9.272 8.603 30.233 8.603c17.797 0 22.031-12.462 22.031-12.462s-3.972 11.823-11.614 13.323h16.304c4.808-1.065 8.086-3.593 9.868-5.878-.51-.999-2.53-4.43-6.242-4.478-.853.19-1.85.518-3.012 1.048-5.467 2.494-3.998 5.768-5.467 5.768-1.469 0 .204-5.34 3.753-8.73 2.38-2.274 1.97-6.963-.279-10.747-.967 4.715-2.471 7.84-4.704 9.986-3.419 2.447-9.828 5.119-21.084 4.167M124.865 182.553c1.88-15.07 2.836-46.3-20.681-50.194-.407.56-.692 1.09-1.137 1.534 22.988 3.923 22.556 37.83 21.818 48.66" fill="#CCC"/><path d="M123.647 145.939c-5.512-12.619-12.516-15.392-16.365-15.891-1.252.52-2.011 1.086-2.546 1.647 26.528 4.953 22.296 41.032 19.834 54.169 0 0 7.107-21.545-.923-39.925M137.03 137.058c1.42 8.293.936 21.599 4.032 37.1 2.486 12.448 1.551 20.993 1.086 23.88 1.609 2.198 3.682 4.91 4.74 5.799-.571-4.611-1.332-10.01-2.289-15.31-2.447-13.563-4.407-27.126-4.407-44.665 0-9.608-3.121-15.455-5.944-18.784-5.058-4.83-8.616-4.08-13.225-.656 12.254-1.668 14.659 4.755 16.008 12.636M137.618 127.238c1.118-1.147 4.929-4.216 8.91 2.177 4.74 7.613 2.5 18.592 5.998 18.241 1.05-.105 1.517-1.837 1.5-4.395a186.16 186.16 0 0 0-1.511-7.193c-3.365-14.462-10.062-17.408-12.693-18.009-.265.057-.56.125-.884.203 13.97 4.032 13.74 26.692 13.74 26.692s-2.762-23.022-15.888-26.126c-2.333.663-3.834 1.405-4.753 1.984 1.284.856 3.544 2.75 5.58 6.426M150.834 123.66c2.127.928 3.53-2.831 4.885-6.452 1.354-3.62 4.885 1.114 8.079 9.19 2.632 6.659 8.975 9.592 11.122 10.418-2.776-2.993-6.826-8.348-11.273-17.477l.002.002c-3.31-3.594-4.809-6.686-5.109-9.102-2.557.547-2.895 4.485-6.546 4.931 1.958 4.066-.825 6.555-.825 6.555s-.013-.69-.165-1.635c-.605 1.75-1.278 3.087-.17 3.57M203.617 172.226c-1.343 4.992-3.35 15.185-1.508 26.903 1.39 8.837 3.709 26.39 5.576 40.888 1.518 11.948-.865 19.825-3.107 24.313-.073.03-7.546 3.028-16.787 3.028-6.617 0-12.264-5.112-14.967-8.054l1.612 8.843h40.733c-.178-2.047-2.14-23.947-6.025-43.84-3.54-18.13-6.341-37.899-5.527-52.081M163.088 247.338c-.645-7.303-3.934-8.045-3.934-8.045s2.322 3.095 1.935 9.345c-.388 6.25-2.775 4.084-5.16-8.664-2.038-10.886.048-18.034.702-19.892-1.063.064-2.04.172-2.915.301-1.472 5.77 3.613 36.897 3.613 36.897l-6.613-36.299c-.25.063-.477.125-.68.183l8 46.983H172.6c-.158-.878-.978-5.45-2.054-11.486-1.534-.585-6.906-3.07-7.458-9.323M157.477 207.731c-1.161-4.146-3.935-8.694-3.935-8.694s4.209 11.743.097 7.797c-4.059-3.894-9.328-29.17-9.463-29.818.601 3.669 1.24 7.376 1.81 11.356 1.57 10.947 3.138 23.104 3.61 26.799 6.436-.72 10.327-1.104 12.653-.888-.058-.523-.157-1.445-.29-2.743-1.488-.27-3.73-1.125-4.482-3.809M148.937 218.962c.149.75.15 1.272.15 1.272s.555-.128 1.44-.292h.002c1.583-.294 4.224-.703 6.658-.703 3.192 0 6.555.414 7.337-.882-2.126-.6-9.715-2.39-15.587.605M204.354 160.017c-1.91-1.857-8.328-8.475-9.994-15.048-1.155 1.401-2.025 1.935-2.025 1.935s-1.706-2.888-5.318-7.024c2.408 3.011 3.747 6.556 6.642 11.721 4.595 8.197 9.824 8.436 10.695 8.416" fill="#CCC"/><path d="M198.882 135.002c-.888 3.799-2.156 6.488-3.34 8.337.896 6.05 7.249 14.508 8.94 16.672 0 0-5.599-9.153-3.92-12.618 1.222-2.526 3.369.867 4.443 2.891-.264-5.686-.969-10.218-1.297-12.092-1.52-.656-2.98-2.46-4.826-3.19M178.128 131.206a22.41 22.41 0 0 1 1.581 2.885c2.582 1.408 4.43 2.764 5.884 4.205a80.862 80.862 0 0 0-7.465-7.09M223.018 146.357c-.877-2.172-2.355-6.065-5.251-10.544.504 2.01-.289 3.546-.289 3.546s-.52-4.005-1.836-5.262c-.869-.83-1.95-.13-2.586.44-.012.483-.03.905-.049 1.232.2 1.03.415 2.054.644 3.069l-.001-.007s.989 2.534 2.862 6.825c3.209 4.33 6.003 2.925 6.506.7M250.817 194.126c1.155 6.653 2.632 12.598 5.297 18.464.803-.535 2.372-2.172 4.03-7.167.635-1.913 1.104-3.415 1.377-4.649-1.564.28-6.984.64-10.704-6.648M251.498 234.65l.014-.001c1.926-.828 4.966-1.407 8.265-1.73-.007-.96-.122-4.413-1.305-9.117-2.118-5.738-5.023-9.572-5.023-9.572s2.515 9.53-1.951 20.42M256.351 234.374c7.87-1.731 18.252.124 18.252.124s-2.089-.728-5.255-1.224a61.917 61.917 0 0 0-3.62-.18l-.65-.01a49.96 49.96 0 0 0-3.55.092c.002.005.003.016.003.016h-.243c-6.931.474-10.85 2.388-11.181 4.055 0 .121.005.241.014.359.532-1.022 2.076-2.318 6.23-3.232" fill="#CCC"/><path d="M281.351 237.406c.482.41.96 1.026.96 1.857 0 .167-.04.323-.118.473-2.82-1.847-16.373-5.937-27.456-1.43-.162-1.821 2.217-2.692 2.28-2.714-2.817.552-4.588 1.427-4.661 2.508-.152 2.228 6.943 4.481 15.85 5.032 8.905.554 16.247-.806 16.398-3.033.063-.936-1.158-1.876-3.253-2.693M189.58 108.575c2.177 3.992 4.209 5.617 10.013 7.055 5.805 1.44 2.42 6.544 9.964 5.017a37.82 37.82 0 0 1 2.077-2.156c.46-.44.913-.921 1.351-1.42-5.602 1.272-10.735-1.72-10.735-1.72s5.398.926 9.667-.791c-1.85.366-4.009.596-6.547.656-8.896.213-14.532-6.863-17.583-12.44-.003.013-.376 1.822 1.793 5.8" fill="#CCC"/><path d="M198.492 117.35l-.014-.003c-3.45-.416-8.491-1.901-11.855-6.768-3.226-4.667-6.09-7.857-7.925-9.712.04.057 4.019 5.731 5.174 9.472.362 1.173 1.016 2.16 1.824 2.992 2.945 1.717 5.899 3.04 8.474 3.834.272.084.54.174.804.268a23.634 23.634 0 0 0 3.518-.084M170.995 124.082c3.506 1.803 6.52 2.238 7.217 1.852 1.597-.882-.629-4.41-8.513-9.143-5.828-3.5-7.426-9.554-7.864-12.479-.032.079-.067.157-.101.235l.003-.002c-.914 11.23 13.768 19.148 13.768 19.148s-12.627-4.318-15.365-16.138c-1.681 4.103 3.042 10.798 10.855 16.527M243.252 172.781s-11.954-16.196-18.125-29.234c-.098 1.749-.323 3.054-.573 3.826 4.255 12.45 18.698 25.408 18.698 25.408" fill="#CCC"/><path d="M243.252 172.781s-4.382-6.861-8.903-14.189a357.076 357.076 0 0 0 8.903 14.19M238.486 140.509c2.515 5.801-.823 5.244-.823 5.244s3.193 5.338 6.047 8.494c1.897 2.098 3.537 2.616 4.424 2.729a97.33 97.33 0 0 0-.886-2.361c.352 1.708-.156 2.2-1.792.083-2.53-3.274-6.12-7.172-6.12-7.172s4.61 3.625 5.955 4.911c1.347 1.286-3.017-8.418-7.67-15.122-3.204-4.619-6.094-6.5-7.583-7.225 1.35 2.533 3.382 3.133 3.382 3.133s-.477-.13-1.148-.472c1.906 1.531 4.67 4.197 6.214 7.758M251.855 144.213a62.264 62.264 0 0 1 2.045 3.742c3.684 7.31 6.134 16.422 7.766 25.315v-.005c0-9.54 2.976-19.256-9.81-29.052M268.064 232.652c.87.03 1.706.08 2.484.15 1.317.121 2.695.288 4.072.508.901-.251 2.626-.81 3.875-1.683-1.358-1.964-7.895-3.876-10.43 1.025M264.813 203.231c.085 2.347.1 3.907.104 4.408.342.3.286 1.33.286 2.636 0 .47-.173.795-.46.993.724 8.151-.655 19.525-.893 21.387.414-.014.827-.024 1.237-.03.538-1.377 2.325-5.508 5.086-7.575-5.169-7.412-2.806-14.949-4.082-18.557-.6-1.694-1.01-2.682-1.278-3.262M262.101 210.354c1.026.507 1.726.558 2.148.3l.047-1.342c-.717.015-2.397-.25-3.494-2.804l-.194.623c.323 1.976 2.065 2.736 2.065 2.736s-1.606-.253-2.372-1.761l-.06.185c.224.631.727 1.501 1.86 2.063M219.071 133.221c-1.644-5.29-6.03-7.271-6.03-10.922 0-3.012 4.3-7.349 5.806-8.775-.132-1.136-.359-1.503-.682-1.39a11.89 11.89 0 0 1-.292.198c-.47.445-1.092 1.511-1.874 2.65-1.632 2.378-3.998 3.587-6.447 6.86a6.556 6.556 0 0 1-.897.976l-.009.013c2.024-.982 2.575-2.594 3.579-3.551 1.27-1.213 2.325-1.579 2.325-1.579s-2.867 1.928-3.61 4.823c-.6 2.33.068 3.326 1.087 4.328a19.895 19.895 0 0 1 1.072 1.044c1.11 1.159 2.245 2.593 3.39 4.353a71.999 71.999 0 0 1 2.777 4.648c.678.487.828-.386-.195-3.676M215.93 97.441c-.811.983-3.338 2.36-7.44 2.492-4.813.156-5.805.447-8.24-2.143a18.739 18.739 0 0 0-1.007-.991l-.086-.058c2.42 2.528 2.589 5.128 6.967 4.269s5.562 1.068 7.836-.72c2.274-1.786 2.727-.232 2.727-.232v-.002c.04-.665.04-2.208-.757-2.615M192.763 93.644c0-1.594.502-3.242 1.057-4.582.076-.177.245-.564.332-.76a20.56 20.56 0 0 1 .77-1.496c-.005.003-2.947 2.58-2.827 7.868.121 5.292 2.782 8.61 2.782 8.61s-.907-1.493-1.367-4.223c-.36-1.472-.747-3.503-.747-5.417M206.074 74.527s.132-1.267-.358-1.54a1.245 1.245 0 0 0-.6-.162c-.05.46-.287 1.325-1.292 2.046v-.004c-.44.48-1.215.303-1.86.303-.8 0-.673.55-2.161.794.435.267 1.41.63 2.959-.064 2.176-.975 2.612.232 2.612.232s.514-.846.803-1.71c-.06.068-.103.105-.103.105M212.73 73.958a2.5 2.5 0 0 1-.18.276s0-.838-.672-.838c-.554 0-.703.783-1.652 1.46l-.001.002c1.897-.223 2.714.572 3.372-.06.266-.255.356-.545.37-.801-.064-.07-.13-.136-.196-.203a1.649 1.649 0 0 1-1.04.164M154.483 67.146c-1.025-1.827-2.586-.804-2.586-.804s.86-1.05 1.948-.764c-.568-.885-1.543-1.73-2.677-1.496-1.518.312-2.749 2.292-2.12 6.364.312-1.248 1.035-3.532 2.624-2.792 2.128.99.177 3.357 1.193 4.332 1.016.975.222 2.852 1.494 3.32h.001c-.257-.77-.033-1.786.797-2.183 1.346-.643 1.897-1.373 1.621-2.163-.275-.789-2.417.264-2.417-.467 0-.15.156-.31.394-.441v-.002c0-.096.065-1.12.025-2.175a5.954 5.954 0 0 1-.308-.767l.01.038M166.442 49.923c3.934-5.074 3.289-8.292 3.289-8.292s-1.354 3.403-2.903 3.403c-1.548 0 3.42-5.013 3.807-10.273.386-5.26 1.483-8.045 5.739-9.468 4.257-1.423 7.417 1.052 7.417 1.052s-2.33-3.197-6.087-3.693c-2.796.549-6.655 2.416-9.484 8.123 0 .162-.005.322.002.49.248 6.38-2.864 10.026-5.09 12.853l1.622-1.2s-2.937 4.053-2.937 6.704c0 2.65 2.855-.079 2.855-.079s-1.224 2.037-2.634 3.365c1.51 1.023 2.472.455 2.472.455s-.752.717-1.77 1.28c-1.25 1.566-1.004 2.907.627 3.25 1.782-.053 3.764-.121 5.525-.186-.003-.001-6.383-2.71-2.45-7.784M207.01 18.863c-1.131.086-2.298.458-3.35.914 1.581.409 4.445 1.763 5.673 6.259 1.741 6.373-.194 11.573-1.613 13.924-1.419 2.351 4.645 1.423 2.58 3.403-.1.096-.204.19-.308.283l-2.863 2.053-.014.008a32.771 32.771 0 0 1-5.276 1.675c.541-.007 1.104-.011 1.695-.011 2.601 0 5.238-.784 5.238-.784l-.002.001c.844-.377 1.985-.705 3.556-.942 2.858-.432 5.371-.802 7.506-1.073a28.384 28.384 0 0 0-2.498-1.084l.06-.001s-.038-.004-.104-.016c-.338-.126-.689-.25-1.05-.365-1.377-.713-3.361-2.733-2.263-8.407.214-1.105.346-2.221.405-3.325 3.619 1.817 3.916 6.604 3.916 6.604s.401-3.126-.821-6.385c2.649 3.938 2.961 8.781 2.9 11.401.056-.294.108-.61.152-.944-.163-2.734-.223-4.421-.225-4.47-.444-2.963-1.518-6.662-3.98-10.175-3.94-5.625-6.573-8.074-9.315-8.543M188.172 62.893c-3.976.818-6.037-.955-6.037-.955s.367 2.374 4.01 2.374c3.616 0 6.477-3.649 6.521-3.706-.665.723-2.015 1.777-4.494 2.287M181.405 55.493c-.786 1.121-.955 1.971-.98 2.423 1.126-1.09 3.092-2.503 6.34-3.033 2.112-.344 3.675.015 4.785.564-.666-.723-2.012-1.78-4.083-1.594-2.003.18-2.492-.3-2.091-.661a9.79 9.79 0 0 0-2.192.508c-.62.481-1.288 1.093-1.78 1.793M177.666 52.13l-.004.007a.763.763 0 0 0 .018-.012.318.318 0 0 1-.014.004" fill="#CCC"/><path d="M184.853 52.594a11.123 11.123 0 0 1 5.46.64c-.001 0 .07-.094-.042-.283a96.401 96.401 0 0 0-3.934-.932c-4.306-.92-7.48.274-8.804.933a5.202 5.202 0 0 0-.437.481c.544-.389 1.33-.745 2.471-.972 3.884-.776 5.286.133 5.286.133M215.101 58.391c-1.347.238-3.14-.368-4.158-.785l-.009-.003c.1 0 1.26 2.075 3.97 1.657 2.708-.418 2.48-2.267 2.48-2.267h-.001c-.269.43-.913 1.156-2.282 1.398M183.146 72.465c9.482 0 14.613-7.11 14.613-7.11l-.01.012c-2.3 2.926-6.082 5.203-11.86 6.158-8.047 1.33-10.865-3.413-11.585-6.906-.005.07-.596 7.846 8.842 7.846M208.9 60.364c-.911-1.288-1.598-2.56-2.163-3.571-.017-.032-.035-.061-.053-.092-.166 1.64.712 3.997 1.22 5.195.57.993 1.075 1.55 1.075 1.55s-.86-2.29-.08-3.082M201.142 58.711c.761-2.63 2.704-4.234 4.47-2.508a24.636 24.636 0 0 1-.21-1.146c-1.897-1.709-4.15-.946-4.866 3.723a15.01 15.01 0 0 1-.777 2.997l-.002.012s.578-.293 1.385-3.078M164.02 84.115c.438.418.205 1.425-.558 2.195.151.292.283.58.401.865 1.793-1.13 2.418-3.926.773-5.504-2.038-1.955-5.298 4.76-9.842 1.066l.05.046c2.406 2.052 4.667 3.21 5.831 3.046 2.489-.35 2.55-2.475 3.344-1.714M217.577 51.113c-.736-.462-1.81-.984-2.904-.984-1.842 0-4.603.81-5.367 3.371.485-.522 1.215-.92 2.07-1.18 2.684-2.398 6.24-1.18 6.246-1.178l-.006-.004-.04-.025M209.127 52.551v.01l.01-.02-.01.01" fill="#CCC"/><path d="M218.717 49.861c2.705 2.77 2.35 4.568 2.98 4.568h.002a63.268 63.268 0 0 1-.582-4.377c-.564.539-1.548-1.288-3.609-1.97-.915-.303-2.267-.361-3.617-.16a7.78 7.78 0 0 1 2.587.706s-1.402-.455-3.167-.231c1.971-.086 4.148.177 5.406 1.464M172.956 239.85s.114-11.724-6.877-17.543l.338 1.853c3.813 5.306 5.192 10.436 5.192 10.436s-2.833-4.458-4.299-5.535l.847 4.645c2.63 1.846 4.8 6.144 4.8 6.144M255.707 179.14s1.464 6.867-.136 10.67c1.877 1.928 3.562 3.34 4.83 4.297-.09-1.746-.433-6.88-1.48-10.864-1.341-2.276-3.214-4.103-3.214-4.103M262.35 149.56s-2.4-6.575-8.185-11.304c-4.21-2.498-7.726-3.358-9.651-3.654 1.722 1.721 3.464 3.775 5.167 6.223 5.558 1.238 12.67 8.735 12.67 8.735M266.252 180.1c.965.252 1.493-5.64 3.602-9.024-.598-1.218-1.334-2.112-2.239-2.459-.748 2.606-1.627 4.765-2.142 6.656-.269 2.86.177 4.669.779 4.827M290.535 264.295c-1.79 0-4.001-1.977-.743-4.85.992-.729 2.372-1.674 3.517-2.205 2.043-.947-4.257.123-5.482-1.609-1.225-1.733 2.764-4.526 5.224-6.888 2.46-2.361-3.29-.043-2.774-3.075.374-2.195-1.608-2.51-2.732-2.518l-.066 1.273c1.305-.1 2.813.728 1.183 3.502-1.958 3.333 3.733.818 3.733.818s-3.39 2.227-5.292 2.82l-.331 6.255c2.281.915 5.48-.578 5.48-.578s-1.74 1.544-5.58 2.454l-.333 6.282c1.035.386 3.32 1.201 4.404 1.32.884.096.94-.97 1.376-1.953-.299-.551-.788-1.048-1.584-1.048M269.25 266.151c-9.335-.278-11.899-9.608-11.899-9.608s-.338 9.144-2.806 2.322c-2.165-5.988-.381-13.797.088-15.62-1.836-.737-3.511-1.753-4.784-3.148-.497 7.412-1.251 26.17-1.327 28.05h.916l.669-23.495s.244 5.027 1.469 13.387c1.032 7.056 4.768 9.513 5.909 10.108h20.033a9.075 9.075 0 0 0 2.181-1.531c1.423-1.365 2.289-3.208 2.816-4.899 0 0-3.928 4.713-13.264 4.434M129.244 262.002c1.456 2.927 1.869 5.5 1.953 6.145h2.448c-.876-2.893-3.113-5.078-4.401-6.145" fill="#CCC"/><path d="M151.236 257.359l-6.595-7.452s2.516 7.333-6.482 6.126c-8.997-1.207-6.433-24.46-12.867-30.633-6.433-6.173-5.03-16.121-2.387-22.248 2.645-6.126-3.224-3.775-9.525 3.423-1.393 1.592-3.166 2.933-5.081 4.056-3.227 2.151-8.114 4.847-13.161 5.54l.467.501c12.79 1.24 23.617-13.723 23.617-13.723s-8.966 14.763-23.06 14.332a90.356 90.356 0 0 1 8.535 11.078c5.386 8.263 7.916 12.473 11.75 25.49 3.216 10.917 8.38 13.687 9.966 14.298h2.332c-.16-1.014-1.188-6.914-4.042-11.225-3.08-1.96-6.073-4.297-7.112-8.061 0 0 3.5 5.392 10.362 8.652 6.287 2.987 10.23 9.552 10.848 10.634h17.282c-.163-1.182-1.266-9.131-2.75-18.815.072 3.041-.284 6.59-2.097 8.027zm-33.809-34.611c-7.181-6.86-13.709-4.677-13.709-4.677s6.57-4.56 14.933 3.43c8.364 7.99 9.22 24.787 9.22 24.787s-3.263-16.68-10.444-23.54zM87.697 261.563c.725-1.092 1.089-2.082 1.089-2.763 0-2.28-2.51-.995-2.51-.995s1.837-2.105 3.244-.058c1.297 1.884-2.551 9.251-8.907 10.4H94.11c.551-.603-.137-1.598-1.937-3.326-2.128-2.042-1.08-4.842-2.467-7.21-.71-1.21-2.008-1.13-3.108-.762a10.53 10.53 0 0 0-1.4 1.152c1.398 1.195 2.181 2.793 2.5 3.562M30.804 195.479c19.758-18.958 38.663-36.03 38.744-36.102 13.115-7.511 18.884-6.29 18.884-6.29s-4.913-1.506-10.634-.793c9.985-3.89 22.515-4.748 18.567-7.005-3.218-1.84-7.357-1.817-10.942-.562a8.528 8.528 0 0 0-.636 1.084c-2.285 4.756-9.159 3.606-36.026 29.27-13.179 12.59-24.471 23.773-32.558 32.99-.322.383-.635.759-.936 1.126-3.463 5.71-4.218 9.544-4.188 11.852l.596 2.79s-.672-9.362 19.129-28.36M61.228 161.767l-.005.004a.036.036 0 0 0 .006-.005h-.001M203.754 49.444c1.15.276 1.865.371 2.055.796.271-.441.388-1.009.677-1.603-.25-.315-1.027-.448-2.524-.448-1.866 0-3.456-.38-3.827 1.193.154.37.213.695.38.96.693-.388 2.219-1.143 3.239-.898M199.13 51.757c-.66-1.876-2.102-2.613-4.48-2.672-.828.018-3.164.248-4.295.363-.96.145-1.812.275-2.565.391.738.03 1.524.122 2.333.3 2.166-.584 7.939-1.657 8.696 3.28.898 5.855-1.257 9.716-1.43 10.013.09-.135.176-.27.25-.403 1.835-3.312 2.244-7.093 1.55-10.99a6.449 6.449 0 0 0-.058-.282M192.318 83.396c.304-1.295 1.509-5.311 5.193-8.047a3.349 3.349 0 0 1-.702-1.044c-2.417 1.617-3.765 5.705-4.49 9.09M185.985 117.503s11.035 1.812 14.717 8.91c.732-1.117 1.413-1.89 1.896-2.374-.723-1.209-2.787-3.739-7.979-5.354a47.033 47.033 0 0 1-3.546-1.268c-3.042-.36-5.088.086-5.088.086M207.573 135.327c1.714-1.636 4.468-.117 4.468-.117s.084-.93.112-2.156c-.731-.386-2.365-1.179-3.416-1.179-1.387 0-2.631-1.832-2.631-1.832s1.856-1.811 2.407-1.811c.481 0 1.773-.134 3.494 1.329a8.955 8.955 0 0 0-.13-.727c-3.771-2.51-5.227-.217-6.381.891-1.194 1.145 1.61 3.713.805 4.796-.367.493-1.17 1.07-1.934 1.552l.238.16s-.115-.04-.312-.115c-.45.281-.88.527-1.195.7.307.213.59.36.846.414l1.187-.07c.707-.18 1.213-.66 2.442-1.835M235.952 199.28l-.229-1.52a520.01 520.01 0 0 0-.351-1.217l-.235.432c.154.895.313 1.838.47 2.825l.345-.52M238.48 207.587l-.57-2.074.003.018-1.674-1.468c.102.751.2 1.52.295 2.307l1.945 1.217M246.68 251.41l1.925-1.64.133-2.634c-.12-.492-.76-3.107-1.786-7.19l-2.842-1.748-.57-5.222 1.175-1.829c-.2-.779-.405-1.578-.617-2.396l-1.457 3.563-3.222-2.144-1.347-5.067 1.876-2.65 2.856 2.69 1.293 3.603c-.481-1.861-.99-3.82-1.524-5.856l-2.502-2.191-1.02-3.78 1.345-2.248-.821-3.051-.076 1.518-2.06 2.943-.093-.09c.054 1.186.09 2.391.108 3.614l.842 3.336-.866.827a93.961 93.961 0 0 1-.509 7.707l.132.41-.207.254a80.973 80.973 0 0 1-1.296 7.834l.197 1.11-.715 1.111a70.917 70.917 0 0 1-1.346 4.71l.693 3.592-2.183 2.084-.588-.39a26.296 26.296 0 0 1-1.337 2.467l.99.634.743 4.765-2.322 2.723-2.322-2.6-.067-1.953c-.723.601-1.446 1.035-2.16 1.325l-.144 3.445-2.999 2.227-2.95-2.414.264-3.553c-1.442-.664-2.658-1.629-3.506-2.418.46 3.12.849 5.785 1.135 7.76l.849-.582 2.225 2.368.515 1.763h3.264l.236-2.598 2.273-2.832 2.564 2.739.041 2.691h1.93l-.108-4.107 2.249-2.159 2.129 1.764-.388 4.502h2.387l.226-5.151 2.37-1.532 2.128 1.578-.532 5.105h2.79l-.13-4.641 2.129-1.95 1.84 1.725.158-3.09-.378-.322c0-.195-1.02-8.458-1.02-8.458zm-7.956-19.408l2.816 1.442 1.101 5.378-2.08 3.937-2.286-2.729-1.671-5.222 2.12-2.806zm.286 27.828l-2.763 1.693-1.97-1.888-.244-6.86 1.979-1.889 3.161 2.98-.163 5.964zm.163-8.77l-3.468-1.987-.285-4.599 1.877-2.923 3.14 3.312.327 4.131-1.59 2.067zm6.405 8.42l-2.287 1.473-2.445-1.28c0-.155-.653-6.43-.653-6.43l2.366-3.312 3.019 3v6.548zm.124-9.122l-2.694-1.753-.776-5.418 1.938-2.903 2.348 2.24.939 5.613-1.755 2.221zM210.941 88.919c.998-.113.898.51.723.934.347-.247.588-.463.75-.644.014-.4-.401-.823-1.568-.637-1.284.243-2.078.88-2.31 1.087.146.111.265.219.362.315l.003.001s.551-.888 2.04-1.056M188.82 21.742c-.618-1.18 1.124-.225 2.978.73s4.831.28 4.831.28-3.042-.777-1.91-1.91c1.132-1.131 3.54 1.405 3.54 1.405s-.345-1.971.663-2.802c-.17-.264-.447-.458-.895-.458-1.409 0-1.04 1.17-1.04 1.17s-5.203-2.222-5.203-.818c0 1.402 1.163 1.987 1.163 1.987s-4.988-.555-6.733-2.221c-1.743-1.667-.183 1.578.613 2.338s-1.775.76-5.08-.643c-.703-.299-1.736-.425-2.923-.347 1.451.326 4.506 1.157 7.019 2.805 3.427 2.248 3.596-.337 2.977-1.516M199.67 90.803l.005-.002v.002c.348-.035.754-.025 1.229.05 2.564.407 5.405.67 7.63.298-.03-.034-.77-.812-2.803-.715-2.079.098-1.347-.296-.478-.577 1.237-.398 3.547.256 3.57.262-.58-.267-1.831-.735-3.67-.85 1.01.206 1.701.427 1.701.427s-1.884-.482-4.05-.322c-.115.025-.217.05-.311.075-.386.015-.765.047-1.143.104l-.031.005c-.16.025-.32.056-.481.091l-.127.028c-.173.041-.347.087-.524.142-.344.107-.808.239-1.258.41-.497.188-.979.423-1.262.73-.066.07-.121.14-.172.209-.218.401-.093.809.188 1.183l.008-.01c.192-.635.692-1.409 1.98-1.54" fill="#CCC"/><path d="M199.176 91.668c1.342 1.014 4.08.99 5.572.887-.7-.02-1.512-.084-2.43-.223-2.309-.352-2.931-.854-3.099-1.111-.016.006-.034.008-.05.015-.65.277-.986.933-1.159 1.48.178.17.377.325.578.466.025-.245.14-1.056.588-1.514M213.251 91.018c.316-.126.64-.442.64-.442s.394.563.248 1.916c.073-.12.143-.253.205-.406.016-.569-.002-1.412-.188-2.128-.007-.027-.016-.05-.023-.075-.415.773-1.197 1.05-1.524 1.136l-.002.001s.328.125.644-.002" fill="#CCC"/><path d="M155.371 79.32c1.958 0 .611-.35-.775-.857-1.388-.506-4.654-3.11-5.468-7.522-.032-.17-.054-.33-.08-.495-.629-4.072.602-6.052 2.12-6.364 1.134-.234 2.11.611 2.677 1.496-1.088-.287-1.948.764-1.948.764s1.56-1.023 2.586.804l-.01-.038c.121.364.232.617.307.767.062.123.1.182.1.182 1.082-1.033-.855-4.638-3.55-4.638-2.692 0-4.12 4.014-2.57 8.652 1.552 4.638 4.652 7.25 6.611 7.25" fill="#222"/><path d="M154.36 70.493c0 .73 2.143-.322 2.418.467.276.79-.275 1.52-1.621 2.163-.83.397-1.054 1.413-.797 2.184.16.48.506.866 1.011.944 1.315.205 2.203 1.17 2.203 1.17s-.215-1.023-1.56-1.462c-1.347-.439-1.47-2.25-.582-2.514.887-.263 2.387-1.724 1.774-2.981-.452-.927-1.782-.781-2.45-.412-.24.131-.395.29-.395.44M198.478 117.347c2.24.27 3.812.09 3.812.09s-11.016-.155-15.953-8.807c-4.937-8.653-9.75-9.744-9.75-9.744s.789.646 2.11 1.981c1.836 1.855 4.7 5.045 7.926 9.712 3.364 4.867 8.405 6.352 11.855 6.768M198.768 50.189c-.432-.8-1.723-1.722-4.78-1.444-1.795.162-4.44.502-6.322.754a45.025 45.025 0 0 0-4.236.678c-.76.16-1.443.319-2.07.481l-.069.016-.039.013c-.843.222-1.574.453-2.2.711l-.018.006-.002.003a7.465 7.465 0 0 0-1.37.73c-1.009.696-1.597 1.594-1.912 2.883-.678 2.772-1.347 8.574.704 11.702 2.05 3.128 4.65 4.794 9.914 3.77 5.263-1.022 10.311-4.589 11.78-7.629 1.47-3.04 1.96-5.525 1.683-8.652-.138-1.576-.37-3.043-1.063-4.022zm-1.129 12.84c-.074.133-.16.268-.25.403-2.174 3.246-9.139 7.173-14.504 6.949-5.59-.234-7.768-6.183-7.4-11.054.188-2.51.45-4.442 1.611-5.894.134-.167.279-.327.437-.481 1.324-.659 4.498-1.852 8.804-.933 1.667.355 2.93.676 3.934.932 2.461.627 3.348.86 4.695.237 1.897-.877 1.347-1.579 1.347-1.579s-.03 1.374-2.846-.204a12.145 12.145 0 0 0-3.344-1.265 13.36 13.36 0 0 0-2.333-.3c.753-.117 1.605-.247 2.565-.392 1.13-.115 3.467-.345 4.295-.363 2.378.06 3.82.796 4.48 2.672.021.091.041.183.059.281.694 3.898.285 7.679-1.55 10.991z" fill="#222"/><path d="M185.695 52.516c-.295.016-.575.042-.842.078-4.015.531-5.064 3.05-5.064 3.05s1.318-1.202 3.395-1.944a9.79 9.79 0 0 1 3.184-.57c3.825 0 6.977 1.87 6.977 1.87s-1.108-1.03-3.048-1.77a11.123 11.123 0 0 0-4.602-.714" fill="#222"/><path d="M186.765 54.883c-3.248.53-5.214 1.943-6.34 3.033-.677.655-1.051 1.193-1.218 1.352-.444.424-.947.424-.947.424s2.324.073 2.844-.161a.304.304 0 0 0 .087-.066c.794.065 2.414.132 4.8-.08 3.508-.312 4.977-1.247 4.977-1.247s-.8.407-3.35.736c2.097-.298 2.674-2.204 2.325-3.304 1.902.514 2.82 1.623 2.82 1.623s-.377.467-.642.613c-.266.147-.827.176-.827.176.49.467 2.54-.526 2.54-.526s-.659-1.207-2.284-2.01c-1.11-.548-2.673-.907-4.785-.563zm.66 4.016c-2.428.3-5.107.278-5.505-.614.386-.6.958-1.31 1.88-1.887.437.556 1.035 2.52 3.241 2.52.15 0 .292-.01.43-.025l-.047.006zM211.878 73.396c.673 0 .673.838.673.838s.083-.107.18-.276c.396.058.746-.005 1.04-.164.066.067.132.133.195.203 3.455 3.805 2.97 10.819 2.97 10.819s1.16-6.922-2.549-11.599c.405-.615.537-1.53.315-2.49-.427-1.857-2.232-2.28-2.232-2.28s1.621.686 1.942 2.046c.321 1.359-.26 3.11-1.514 3.11.106-.284.166-.627.046-.947-.149-.394-.684-.764-1.146-.804.748-3.464-1.286-4.594-1.286-4.594s1.61 1.136.762 4.76c-.129.131-.213.337-.213.652 0 1.403-1.575 2.602-1.575 2.602.293-.128.534-.27.74-.416.95-.677 1.098-1.46 1.652-1.46M191.539 88.558s.173-2.337.78-5.162c.725-3.386 2.073-7.474 4.49-9.091.176.401.412.758.702 1.044.48.473 1.1.748 1.82.678.176-.017.329-.039.472-.063 1.488-.244 1.36-.794 2.16-.794.646 0 1.422.177 1.861-.303v.004c1.005-.721 1.242-1.586 1.293-2.046.217-.002.432.069.6.162.49.273.357 1.54.357 1.54s.043-.037.103-.105c.257-.29.84-1.15-.195-2.136-1.275-1.218-3.406-.156-4.162 1.285-.64 1.225-1.458 2.038-2.639 1.983-1.859-1.117-1.951-4.184-1.951-4.184s-.284.908-.227 1.942c-.212-.936-.183-1.938.065-2.488.51-1.13 1.142-1.306 1.142-1.306s-1.183.137-1.653 2.203a4.096 4.096 0 0 0-.09 1.15c-4.894 5.635-4.928 15.687-4.928 15.687M209.127 52.561a4.052 4.052 0 0 0-.383 1.938 2.11 2.11 0 0 0-.069.521c0 .6.877.623.877-.448 0-.667.372-1.19 1.411-1.528-.044 1.204.8 2.504 2.874 2.327 2.008-.172 2.518-1.382 2.446-2.175.487.252.889.553 1.227.836-.094.853-1.843 1.436-4.286 1.436-2.754 0-3.06.39-3.06.39s.857-.156 3.121-.156c1.944 0 4.288-.545 5.147-.921.138.086.264.14.382.14.815 0 1.102-.291 1.102-.291s-.53.176-2.02-1.072c-1.489-1.247-2.999-1.792-5.182-1.52a8.067 8.067 0 0 0-1.339.283c-.854.259-1.584.657-2.069 1.18.764-2.561 3.525-3.372 5.367-3.372 1.094 0 2.168.522 2.904.984l.039.025.006.004c.555.353.906.662.906.662s-1.877-2.377-4.977-2.163c-2.048.142-3.69 1.356-4.414 2.9l-.01.02M182.135 61.938s2.06 1.773 6.037.955c2.48-.51 3.829-1.564 4.494-2.287.404-.437.556-.753.556-.753s-2.479 2.162-5.508 2.543c-3.03.38-5.579-.458-5.579-.458M214.642 57.982c-1.774 0-4.498-.73-4.498-.73s.312.155.799.354c1.019.417 2.811 1.023 4.158.785 1.37-.242 2.013-.968 2.282-1.397.121-.195.166-.328.166-.328s-1.133 1.316-2.907 1.316M199.243 96.799c.336.307.674.636 1.007.99 2.435 2.591 3.427 2.3 8.24 2.144 4.102-.133 6.629-1.51 7.44-2.492.796.407.797 1.95.757 2.615-.011.19-.025.31-.025.31s.894-2.599-.42-3.56c.187-.83.036-1.246-.692-.147-.776 1.17-3.305 2.066-6.365 2.338-3.06.273-5.876.43-9.017-2.104-3.141-2.533-5.058-3.04-5.058-3.04s2.016 1.004 4.133 2.946" fill="#222"/><path d="M200.168 86.902a21.933 21.933 0 0 1-4.613 2.254l-.895.278s1.667.018 3.71-.824c2.044-.843 2.697-1.56 2.697-1.56s-1.655.99-3.328 1.46c1.203-.583 2.286-1.328 3.857-1.999 2.724-1.161 4.386-.175 6.161-.175 1.775 0 3.936-1.462 5.12-.779 1.184.682 3.325.979 3.325 1.48 0 .175-.261.34-.6.483-.18-.176-1.263-.267-2.01-.717-1.102-.662-1.428.663-4.122 1.482-2.692.818-4.977-1.014-7.506.155-2.53 1.17-7.303 1.52-7.303 2.729 0 0 .233-.095.629-.24-.937.685-1.233 1.34-.568 1.34.887 0 1.682.965 3.793 1.93 2.112.964 3.765 1.87 9.946 1.433 6.18-.439 7.22-4.122 7.22-4.59 0-.102-.054-.285-.136-.498.102.148.212.308.331.488 1.04 1.579.674 3.879.674 3.879s.646-2.21-.292-4.159l.003.002s-.736-1.374.074-3.088c.28-.215.5-.423.5-.628 0-.566-3.304-1.287-4.182-2.125-.878-.838-3.876 1.17-5.651.936-1.774-.234-3.896-.838-6.834 1.053zm-2.485 5.451c-.28-.374-.406-.782-.188-1.183.051-.069.106-.138.172-.21.283-.306.765-.541 1.262-.73.45-.17.914-.302 1.258-.41.177-.054.35-.1.524-.14l.127-.029c.16-.035.32-.066.48-.09l.032-.006c.378-.057.757-.089 1.143-.104.094-.025.196-.05.311-.075 2.166-.16 4.05.322 4.05.322s-.69-.22-1.702-.426c1.84.114 3.09.582 3.67.85.245.112.373.19.373.19s-.1-.144-.297-.338a3.66 3.66 0 0 0-.362-.315c.232-.207 1.026-.844 2.31-1.087 1.167-.186 1.582.236 1.568.637a4.588 4.588 0 0 1-.75.644c-.251.18-.557.376-.937.59-.612.343-1.361.568-2.192.708-2.226.373-5.067.11-7.631-.298a4.781 4.781 0 0 0-1.23-.052l-.003.002c-1.288.131-1.788.905-1.98 1.54a.158.158 0 0 0-.005.014l-.003-.004zm16.097.577a1.634 1.634 0 0 1-.22-.033c-.442-.095-.663-1.623-.663-1.623s-.004.664.09 1.249c-.161-.475-.217-.764-.217-.764s.195 1.585-.242 2.023c-.306.306-.72.535-.942.646a1.049 1.049 0 0 1-1.326-.657s-.033.443.033.764a.442.442 0 0 1-.096-.251c-.048-.569-.113-1.644-.197-1.068-.084.571-.377 1.759-1.4 1.963-.091.014-.178.03-.272.044-.28.041-.566.07-.855.09-.252-.104-.476-.29-.507-.583-.052-.506-.232-1.58-.305-1.064-.06.417.032 1.359-.562 1.675a17.974 17.974 0 0 1-1.524-.098c-.365-.16-.674-.477-.674-.998 0-.727-.116-1.37-.2-.822-.07.458-.07 1.37-.54 1.615a24.517 24.517 0 0 1-2.385-.543l.176.024h.007a24.52 24.52 0 0 0 2.412.197s-.876-.114-1.954-.366c-.816-.243-.318-1.59-.54-1.485-.178.085-.508.956-1.09 1.017a8.52 8.52 0 0 1-1.2-.7 5.16 5.16 0 0 1-.577-.466c.173-.547.51-1.203 1.16-1.48.015-.007.033-.01.05-.015.167.257.79.76 3.098 1.11.918.14 1.73.203 2.43.224 1.761.054 2.78-.167 2.78-.167s-1.573.168-3.132-.014c-1.386-.163-4.349-.448-4.712-1.25 1.432-.11 4.185.857 7.907.456 3.396-.366 4.918-1.823 5.388-2.385.531-.53 1.368.292.617 1.044-.752.751-1.138.814-1.138.814s.058-.01.151-.034c.327-.085 1.109-.363 1.524-1.136.007.026.016.048.023.075.186.716.204 1.56.188 2.128a2.798 2.798 0 0 1-.205.406 1.684 1.684 0 0 1-.36.438zM204.911 84.494c.643 0 1.744-1.081 1.408-2.338-.337-1.257 0-3.917 0-3.917s-.582 2.163-.429 4.005c.154 1.84-.979 2.25-.979 2.25M209.134 82.039c-.367-1.49 0-3.712 0-3.712s-.98 1.666-.49 3.42c.49 1.753.857 1.783.49.292" fill="#222"/><path d="M193.82 89.062c-.555 1.34-1.057 2.988-1.057 4.582 0 1.914.388 3.945.747 5.417.31 1.27.6 2.124.6 2.124s-.999-5.05-.388-9.16c.612-4.107 1.55-5.806 1.55-5.806s-.14.215-.35.587c-.208.363-.484.88-.77 1.496-.087.196-.256.583-.332.76M190.193 89.493c0-8.185 3.896-14.382 3.896-14.382s-3.958 4.736-4.447 13.972c-.49 9.238 2.203 11.927 2.203 11.927s-1.652-3.332-1.652-11.517M209.348 112.176c-8.078 1.052-12.79-3.332-12.79-3.332s3.119 5.896 13.035 4.034c9.915-1.863 9.057-7.659 9.057-7.659s-1.223 5.905-9.302 6.957M119.63 161.557c-1.387-10.055.326-13.095.326-13.095s-2.61 4.287-1.55 13.174c1.061 8.886-3.427 18.707-3.427 18.707s6.038-8.73 4.652-18.786M161 78.892s-1.76 1.48-3.508 1.48-5.997-2.689-5.997-2.689 3.957 3.587 6.61 2.962c2.65-.623 2.896-1.753 2.896-1.753M268.773 234.248c-9.521-.59-17.387 1.107-17.57 3.79-.18 2.682 7.388 5.335 16.91 5.925 9.521.591 17.386-1.106 17.57-3.789.18-2.682-7.389-5.336-16.91-5.926zm-.568 8.884c-8.906-.55-16.001-2.804-15.85-5.032.074-1.08 1.845-1.956 4.663-2.508 2.988-.586 7.153-.809 11.735-.525 5.161.32 9.71 1.212 12.598 2.339 2.095.817 3.316 1.757 3.253 2.693-.151 2.227-7.493 3.587-16.399 3.033z" fill="#222"/><path d="M298.128 250.81c-1.57-1.501-3.427-2.651-.735-5.224 2.693-2.572-.407-7.405-7.057-9.587-5.783-1.898-9.376-3.971-10.215-4.48.885-1.425.81-3.585.258-5.224-.207-.614-.683-1.189-1.353-1.655l-.905-2.578c-1.01-4.148-2.882-14.299-2.882-32.52 0-20.242-4.702-30.5-6.475-33.648-.017-.165-.032-.327-.052-.494-1.307-10.835-11.588-20.268-31.23-26.304-3.928-2.314-7.18-3.07-8.785-3.316-.968-3.132-2.597-4.059-7.477-5.962-1.13-4.423-1.55-6.082-1.55-7.096 0-.763-.123-1.242-.344-1.529 2.412-2.302 2.996-5.358 2.996-8.546 0-6.373 1.021-16.7 2.245-24.574.636-4.091.448-8.218-.023-12.159 6.917-2.317 7.226-10.902 6.387-15.123-.76-3.82-1.627-5.517-3.079-6.231l-.001-.001c-.178-.147-.452-.254-.814-.329-.075-.75-.385-1.532-.967-2.36a84.956 84.956 0 0 0-.688-1.135c-2.08-3.39 2.142-7.249 1.04-11.692-1.1-4.443 2.876-14.557-4.038-20.345-6.916-5.787-11.323-2.63-13.403-5.203-2.08-2.572-9.914-5.437-15.79-1.344-5.874 4.092-10.526-2.164-20.501-.82-9.976 1.346-11.628 9.062-17.931 16.195-6.303 7.132-1.897 7.016-7.65 13.037-5.753 6.022-2.265 12.043-4.04 14.908-1.774 2.865 1.96.994-.49 9.939-2.446 8.944 2.02 9.003 2.939 15.2.54 3.643 2.56 6.336 4.133 7.937.79 1.043 1.875 2.25 3.079 3.428.272 1.334.332 3.117-.847 4.244-2.082 1.988-1.653 5.145 1.04 5.554 2.691.41 5.63 1.52 3.977 4.034-1.652 2.514-.367 3.507 1.622 3.245.373-.05.689-.001.956.11.843.807.594 2.636 1.41 3.125-.344 1.523-.851 3.037-1.6 4.16-.201.3-.367.634-.496.998-3.335.484-4.593 7.37-9.909 6.66-4.354-.58-7.274 1.813-8.406 2.97-.947-.116-3.276.589-5.55 1.453h-.003.002a47.967 47.967 0 0 0-3.934 1.686l-.002.001c-.114.057-.223.111-.326.164-7.601-1.62-9.94 3.208-17.398 5.633-7.67 2.494-6.365 3.469-14.565 6.625-8.201 3.158-13.465 10.641-22.89 17.306-4.32 3.056-9.08 7.047-14.582 11.823a.036.036 0 0 1-.006.005c-6.497 5.641-14.031 12.379-23.11 19.975-16.769 14.031-32.068 35.779-36.597 43.496-4.529 7.717 3.672 19.526 9.914 30.166 5.356 9.13 7.466 12.083 7.958 12.74h-.13v1.949H96.7c.793-.792.801-2.774.801-2.785-.059-.945-.38-2.326-1.676-3.018-2.082-1.11-2.938-3.975-4.529-7.716-1.278-3.007-5.833-.768-7.575.228-.313-.19-.683-.396-1.135-.618-2.694-1.325-1.062-2.572-4.162-8.964-3.1-6.391-9.71-9.822-6.918-14.902 1.065-1.279 2.005-2.895 2.675-4.352.607-1.32.794-2.817.853-4.604 5.297-.935 9.7-3.687 13.306-7.717 1.222.41 2.478.621 3.742.676 5.914 3.215 14.14 16.923 17.207 22.13 3.288 5.585 5.508 15.918 8.263 22.24l.002.005.038.087c1.585 3.608 3.01 5.546 3.94 6.545 1.98 1.98 4.663 2.765 4.663 2.765h165.548c1.217 0 1.518-.36 1.692-2.25a6.92 6.92 0 0 1 .053-.654v-.005h.001c.128-.972.519-2.113 1.665-2.856.026-.012.051-.026.079-.038 2.57-1.13 3.692-2.981 2.651-3.975-1.04-.994-1.346-3.156.897-4.248 2.244-1.09.919-3.76-.652-5.262zm-18.156-21.398c0 .886-.629 1.622-1.477 2.215-1.25.874-2.974 1.432-3.875 1.683a61.257 61.257 0 0 0-4.072-.507 44.499 44.499 0 0 0-2.484-.151 57.413 57.413 0 0 0-2.01-.034c.783-1.799 3.816-8.122 7.84-8.39 4.69-.311 6.078 2.456 6.078 5.184zm-25.807-91.156a37.678 37.678 0 0 1 5.815 4.28c9.096 8.094 7.997 19.333 6.038 26.738-1.958 7.405-1.55 12.238-.897 7.639a13.65 13.65 0 0 1 .352-1.64c.515-1.89 1.394-4.05 2.142-6.656.905.347 1.641 1.241 2.239 2.459 2.48 5.049 2.59 15.64 2.59 15.64s1.088-14.566-3.684-23.749c.055-.483.099-.978.132-1.486 4.875 7.336 4.879 20.697 4.879 34.062 0 10.884 2.134 22.289 3.073 26.78-1.654-4.12-2.534-10.673-2.534-10.673s-.175 4.073 1.71 11.909c-1.407-.17-3.014.017-4.616.747-.43.196-.84.45-1.231.744-2.761 2.067-4.548 6.198-5.086 7.575-.41.006-.823.016-1.237.03.238-1.862 1.617-13.236.894-21.387.286-.198.46-.523.46-.993 0-1.306.055-2.336-.287-2.636-.003-.5-.02-2.06-.104-4.408-.224-6.2-.93-17.875-3.147-29.96-1.632-8.894-4.082-18.007-7.766-25.316a62.264 62.264 0 0 0-2.045-3.742 55.197 55.197 0 0 0-2.174-3.388c-1.703-2.448-3.445-4.502-5.167-6.223 1.925.296 5.441 1.156 9.651 3.654zm6.04 73.715c.63.185.338 10.106.19 14.225-.612-2.965-1.512-6.534-2.797-10.018.2-.577.443-1.279.712-2.067l-.003.01s1.102-2.384 1.897-2.15zm.036-3.68l.06-.185c.766 1.508 2.372 1.76 2.372 1.76s-1.742-.759-2.065-2.735l.194-.623.154-.504c1.077 1.43 2.633 1.859 3.367 2.535l-.074 2.115c-.422.258-1.122.207-2.148-.3-1.133-.562-1.636-1.432-1.86-2.063zm1.28 8.093c0-5.027.05-5.68.05-5.68.936.606 1.911.883 2.616.773.009 1.818.01 8.242-.372 12.751-.384 4.54-1.067 7.675-1.255 8.484-.359.02-.718.04-1.076.065a77.308 77.308 0 0 0-.773-4.976c.263-2.324.81-7.6.81-11.417zm-5.386-59.046c6.67 18.115 7.463 45.54 7.548 49.889-.853-.399-1.964-1.136-2.484-2.031.408-1.37.75-2.615.964-3.573 1.046-4.684.612-5.904.612-5.904s-.578-.32-1.555-1.012c.024-2.583-.109-11.121-2.79-15.456-2.357-3.811-2.768-9.17-4.638-12.525h.001s-4.013-9.767-8.746-19.9c-2.958-6.336-7.216-11.734-9.993-14.89-.92-1.138-1.859-2.153-2.798-2.98-.724-.638-1.45-1.165-2.167-1.548 4.404.881 17.057 5.522 26.046 29.93zm-28.518-31.675l.001.002c.22.479.393 1.01.498 1.594.577 3.2 2.777 4.792 4.156 5.492.67.341 1.148.472 1.148.472s-2.032-.6-3.382-3.133c1.489.724 4.379 2.606 7.584 7.225 4.652 6.704 9.016 16.408 7.67 15.122-1.346-1.286-5.956-4.91-5.956-4.91s3.59 3.897 6.12 7.171c1.636 2.117 2.144 1.625 1.792-.083.32.819.615 1.609.886 2.36a90.94 90.94 0 0 1 2.117 6.623c-4.165-2.63-8.16-9.855-8.16-9.855 3.192 9.071 7.119 10.971 9.158 12.92 2.04 1.948 3.917 8.925 6.365 13.134.526.905.956 2.111 1.307 3.446 1.047 3.985 1.39 9.118 1.48 10.864-1.268-.958-2.953-2.369-4.83-4.297a50.757 50.757 0 0 1-3.2-3.62s1.998 4.814 6.12 7.717c3.025 2.13 3.783 3.466 3.03 6.867-.273 1.234-.742 2.736-1.377 4.649-1.658 4.995-3.227 6.632-4.03 7.167-2.665-5.866-4.142-11.81-5.297-18.464-.61-3.509-1.132-7.211-1.69-11.21 0 0-.61 19.058 5.14 29.932 2.102 3.97 3.4 7.75 4.205 10.954 1.183 4.704 1.298 8.158 1.305 9.118-3.299.322-6.34.9-8.265 1.729-1.233.53-2.013 1.161-2.098 1.896a55.61 55.61 0 0 0-.243 2.72v.002c-.056.82-.115 1.813-.185 3.098-.094-.316-.563-1.85-2.062-6.25-1.713-5.027-11.015-51.562-19.705-68.166a355.672 355.672 0 0 1-10.707-22.293c-1.873-4.29-2.862-6.825-2.862-6.825l.001.007c-.23-1.015-.444-2.039-.644-3.069.018-.327.037-.749.05-1.232.634-.57 1.716-1.27 2.585-.44 1.316 1.257 1.836 5.262 1.836 5.262s.793-1.536.289-3.546c2.896 4.48 4.374 8.372 5.251 10.544.47 1.16.767 1.832 1.017 1.832.162 0 .346-.282.52-.816.249-.772.474-2.077.572-3.826 6.171 13.038 18.125 29.234 18.125 29.234s-4.264-6.384-8.903-14.189c-3.35-5.635-6.895-12.01-9.17-17.257-.022-3.272-.453-7.565-1.693-12.556-.68-2.738-1.251-4.989-1.728-6.858 1.327-.187 4.512.821 5.86 3.742zm-3.929 37.769l-1.039-.163-.342 1.29a152.132 152.132 0 0 1-1.484-3.485l.42-.61.108-.711c.475.75.964 1.5 1.462 2.233.28.413.573.898.875 1.446zm-.018-30.365c.815 5.496.857 12.979.244 12.979-.163 0-.41-.432-.776-1.204 1.267-8.645-.571-13.081-.571-13.081s.923 5.66-.123 11.568c-.729-1.605-1.75-3.831-3.178-6.432a71.999 71.999 0 0 0-2.778-4.648c-1.144-1.76-2.28-3.194-3.389-4.353a5.309 5.309 0 0 0-.296-.306c-.26-.262-.52-.506-.776-.738-1.02-1.002-1.687-1.997-1.088-4.328.744-2.895 3.61-4.823 3.61-4.823s-1.055.366-2.324 1.579c-1.004.957-1.555 2.57-3.579 3.551a.69.69 0 0 1-.016.009l.025-.022c.316-.282.62-.603.897-.975 2.449-3.274 4.815-4.483 6.447-6.86.782-1.14 1.404-2.206 1.874-2.65.1-.066.196-.132.292-.199.323-.113.55.254.682 1.39.01.086.02.175.028.27.306 3.255 3.98 13.777 4.795 19.273zm-19.726 4.165c-.256-.053-.539-.201-.846-.413-1.072-.742-2.43-2.25-3.9-3.136l.08-.315c1.713 1.426 4.158 2.426 5.015 2.75.197.075.312.115.312.115l-.238-.16c-.93-.635-4.242-2.984-3.464-3.727.902-.863 3.151 2.63 3.151 2.63s-.364-1.994-2.25-3.99c.868-1.038 2.976-3.849 2.03-5.623.092-.054.182-.11.28-.162.423-.16.873-.252 1.352-.259 1.36 2.278 3.794 2.125 4.67 1.984.514.4 1.047.862 1.602 1.395.052.16.098.331.139.513.05.229.094.472.13.727-1.721-1.463-3.013-1.33-3.494-1.33-.551 0-2.407 1.812-2.407 1.812s1.244 1.832 2.631 1.832c1.051 0 2.685.793 3.416 1.179-.028 1.226-.112 2.156-.112 2.156s-2.754-1.52-4.468.117c-1.23 1.175-1.735 1.655-2.442 1.834l-1.187.071zm.948 23.295a34.719 34.719 0 0 1-.41-.516c-1.691-2.164-8.044-10.621-8.94-16.672 1.184-1.849 2.452-4.538 3.34-8.337 1.845.73 3.306 2.534 4.826 3.19.328 1.874 1.033 6.406 1.297 12.092.146 3.146.15 6.647-.113 10.243zm19.267-106.54c-.164-.417-.296-.81-.394-1.188l3.539-.578c.077.298.24.519.568.519.68 0 1.664-.098 2.043-.139.035.378.061.773.078 1.191.161 4.035-1.605 9.422-5.603 10.898a130.679 130.679 0 0 0-.61-4.007c.35-1.34 1.125-4.806.38-6.696zm-.584-2.555c.001-1.177.494-2.231 1.686-3.369.67-.64 1.16-1.29 1.458-1.96.302.128.562.285.767.48.898.858 1.553 1.929 1.972 3.407-1.862.258-2.179.344-2.179.781 0 .039-.002.087-.005.14l-3.7.52zm4.716-5.662c.886.812 1.661 2.169 2.11 4.437 1.023 5.18.502 12.848-5.915 15.226l-.037-.297c2.447-.902 4.257-2.89 5.217-5.985 1.903-6.135-.02-11.587-1.784-12.902-2.167-1.618-4.153-1.11-8.864-.447-4.713.662-8.695 1.598-9.889 2.597-1.27 1.061-1.38 1.07-1.38 1.07l.03.054c-.72.778.45.865-.715 1.58-.358.22-.54.552-.62.918-.083.288-.099.703.04 1.3.108.505.273.886.273.886h.001c.06.16.126.324.203.5 1.26 2.88 4.726 9.138 10.649 10.553 2.233.534 4.252.582 5.993.138l.046.307c-1.068.297-2.279.462-3.653.462-8.316 0-11.518-7.738-13.863-11.127-.113-.283-.212-.612-.212-.887 0-.63.077-.877-1.82-.877-2.681 0-3.826.2-3.428 1.11.075.173.12.324.153.465a9.215 9.215 0 0 0-.154.855v.001c-.266.811-.46 1.906-.626 3.386-.55 4.91-5.815 11.81-16.401 12.218-8.983.348-9.243-8.773-9.115-11.546 0-.002.577-1.52.118-2.397.387-5.077.714-6.577 12.587-8.292 11.872-1.715 11.791-.428 12.606 1.325l.082.17-.002-.001c.431 1.537.923 1.973 1.38 1.537.207-.2.446-.342.646-.44.386-.01.865-.017 1.485.02.532.032.976 0 1.356-.08l-.007.005c.788 0 .934.56 1.308.202.375-.358.209-.7.35-1.227.33-.438.557-.966.787-1.51.613-1.443 4.611-2.65 12.974-3.86 4.92-.71 7.116-.084 8.091.553zm-14.98 2.627c1.765-.224 3.167.231 3.167.231s-1.092-.566-2.587-.707c1.35-.2 2.702-.142 3.617.161 2.061.682 3.045 2.509 3.609 1.97v-.001c.127 1.386.334 2.856.582 4.378.552 3.382 1.303 7.01 1.837 10.508a6.325 6.325 0 0 1-.417.075c-4.897.701-10.322-.703-14.138-7.527-1.178-2.107-1.706-3.527-1.925-4.466-.083-.68.303-1.079.777-1.524.17.217.651.003 1.67-1.311v.002c1.216-1.161 2.597-1.636 3.808-1.79zm5.285-2.115c.75-.13 1.484-.245 2.191-.339.053.727.111 1.487.174 2.277a4.026 4.026 0 0 0-1.108-1.346 3.302 3.302 0 0 0-1.257-.592zm-18.461 3.1c.37-1.572 1.961-1.193 3.827-1.193 1.497 0 2.275.133 2.524.448-.289.594-.406 1.162-.677 1.603-.318.52-.85.863-2.132.863-2.205 0-2.86-.283-3.161-.761-.168-.265-.227-.59-.381-.96zm20.17-11.8c0 .048.06 1.735.224 4.469a16.977 16.977 0 0 1-.52 2.5l-.177.022c-2.135.27-4.648.641-7.506 1.073-1.57.237-2.712.565-3.556.942l.002-.001s-2.637.784-5.238.784c-.59 0-1.154.004-1.695.011-1.837.026-3.375.1-4.54.255-2.676-.226-7.442.626-14.837 1.595-9.521 1.248-8.17 6.358-8.588 7.801-.853.008-2.04.562-2.043.564-.825.031-1.837.07-2.939.11-1.761.065-3.743.133-5.525.186-1.631-.343-1.876-1.684-.627-3.25a9.577 9.577 0 0 0 1.77-1.28s-.961.568-2.472-.455c1.41-1.328 2.634-3.365 2.634-3.365s-2.855 2.73-2.855.079c0-2.65 2.937-6.704 2.937-6.704l-1.623 1.2c2.227-2.827 5.339-6.473 5.091-12.853-.007-.168-.002-.328-.002-.49 2.829-5.707 6.688-7.574 9.484-8.123 2.11-.414 3.615-.079 3.615-.079s-5.628-2.41-10.803 1.802c2.23-2.56 5.654-3.75 8.308-3.922 1.187-.078 2.22.048 2.924.347 3.304 1.403 5.875 1.403 5.079.643-.796-.76-2.356-4.005-.613-2.338 1.745 1.666 6.733 2.221 6.733 2.221s-1.163-.585-1.163-1.987c0-1.404 5.202.818 5.202.818s-.368-1.17 1.04-1.17c.45 0 .726.194.896.458.363.562.237 1.442.237 1.442s.42-.397 2.099-1.001c-.89 1.133-1.334 2.042-1.334 2.042s1.642-1.243 3.735-2.15c1.053-.457 2.22-.83 3.35-.915 2.742.47 5.374 2.918 9.316 8.543 2.461 3.513 3.535 7.212 3.98 10.176zM174.11 58.414c-.019.218-.138.449-.272.644-.408.041-1.006.097-1.834.166-.293-.172-.443-.44-.191-.863.784-.014 1.4-.021 1.757-.025.338.275-.095.62-.095.62s.467-.158.635-.542zm-3.13.892c-1.511.117-3.58.262-6.368.43-3.545.213-5.624.56-6.838.874 3.43-1.48 8.96-1.42 8.96-1.42s-6.433-.514-10.69 1.566a6.715 6.715 0 0 0-.86-.413c1.709-.487 3.408-1.268 6.184-1.523 2.928-.27 7.138-.393 9.858-.447-.175.278-.29.635-.247.933zm35.146-54.527s-2.724 1.081-3.366 2.455c-.643 1.374 2.019-1.87 5.14-1.052 3.122.818 4.04 3.274 4.04 3.274s-1.714-2.28-4.04-.994c-2.325 1.286-2.998 3.976-2.998 3.976s-.138-2.003 1.07-3.479c1.21-1.476 2.326-1.564 2.326-1.564s-2.25-.599-3.901.307c-1.653.906-2.326 3.084-2.326 3.084s-.658-1.827-.26-3.128c.397-1.3-2.54.716-2.295 3.084.03.29-1.102-3.683 1.836-5.086 2.938-1.403 4.774-.877 4.774-.877zm-10.038-.467c1.53-2.398 7.345-1.286 7.345-1.286S198.2 4.72 198.2 8.023c0 3.304-1.255 1.725-1.255-.905 0-2.631-1.04-.702-1.59 2.747 0 0-.796-3.157.733-5.553zm-36.923 10.951c6.61-6.314 6.977-9.724 13.833-10.835 6.853-1.11 13.483 1.93 13.483 1.93s-4.607-1.716-9.547-1.111c-7.161.877-1.285 1.344 1.958 1.344 3.244 0 3.428 2.377-.265 1.306-3.24-.94-6.65 2.845-6.65 2.845s6.14-1.675 8.486 1.091c0 0-9.833-3.858-13.342 8.77-3.508 12.627-8.037 15.863-8.037 15.863s3.509-4.755 4.57-9.198c1.06-4.443-3.142 1.442-4.448 4.794-1.306 3.351-1.101 7.288-1.101 7.288s-1.55-7.405 2.775-13.953c4.325-6.548 6.446-10.601 6.446-10.601s-4.977 4.053-8.12 7.756c-3.14 3.702-4.283 7.288-4.283 7.288s1.795-6.548 6.038-10.601c4.243-4.054.204-.975-3.917 2.962-4.12 3.936-4.161 7.171-4.161 7.171s-.734-5.144 5.711-10.523c6.446-5.378 8.65-9.588 11.668-10.367 3.02-.78.166-3.704-6.935 4.443-9.629 7.171-10.608 12.082-10.608 12.082s-.164-3.43 6.446-9.744zm1.51 70.566c-1.164.164-3.425-.994-5.832-3.046a97.745 97.745 0 0 1-2.537-2.466c-1.88-2.066-3.645-4.594-4.827-7.377a22.34 22.34 0 0 1-.676-2.213c-.48-1.935-.533-3.719-.263-5.23.997-3.832 4.149-4.65 6.872-4.505 2.724.147 5.05 2.105 5.05 2.105s-.286-.527-.894-1.155l.007.003.075-.026c3.8 2.998 5.187 11.204 5.187 11.204l1.163.468s.428-6.723-.919-8.009c-1.118-1.069-.969-3.91-.887-4.842.86-.17 1.794-.326 2.765-.439 3.997-.468 9.138-.819 9.138 2.416 0 .543.062 1.197.207 1.902.72 3.493 3.538 8.237 11.585 6.906 5.778-.955 9.56-3.232 11.86-6.158a13.352 13.352 0 0 0 2.01-3.59c.364-.971.62-1.975.777-2.997.717-4.67 2.97-5.432 4.866-3.723.064.397.133.78.21 1.146.912 4.36 2.635 6.456 2.635 6.456s-.143-.293-.343-.763c-.508-1.198-1.386-3.554-1.22-5.195.018.031.036.06.053.092.565 1.011 1.252 2.283 2.162 3.57 2.318 3.278 6.08 6.656 12.934 6.096a12.016 12.016 0 0 0 1.882-.304c.344 2.504.546 4.914.444 7.085-.327 6.938-2.408 19.292-2.735 27.049-.21 5.01-.595 8.31-3.394 10.556-.515.085-.766.318-.766.318s-.083.138-.232.378c-1.473.89-3.46 1.59-6.154 2.155-9.486 1.988-19.277-1.46-25.948-17.48 0 0 .892 2.97 2.857 6.56 3.051 5.577 8.687 12.653 17.583 12.44 2.538-.06 4.698-.29 6.547-.656-4.27 1.717-9.667.79-9.667.79s5.133 2.993 10.735 1.72c-.438.5-.892.981-1.351 1.42a37.82 37.82 0 0 0-2.077 2.157c-1.218 1.352-1.804 2.062-3.187 2.325-1.097.21-1.876.14-2.356.036-1.573-1.434-4.87-4.096-9.04-5.575a20.223 20.223 0 0 0-.804-.268c-2.575-.793-5.53-2.117-8.474-3.834-4.286-2.5-8.551-5.83-11.599-9.573-3.968-4.874-8.663-7.516-11.444-8.2.045-1.848-.116-4.1-.292-5.917.898 2.698.954 6.104.954 6.104s2.519-3.793.548-8.57c-.118-.285-.25-.573-.401-.865.763-.77.996-1.777.557-2.195-.795-.76-.855 1.363-3.344 1.714zm-.535 21.726c2.738 11.82 15.365 16.138 15.365 16.138s-14.682-7.918-13.768-19.148l-.003.002c.034-.078.069-.156.1-.235.757-1.824 1.12-3.6 1.294-4.914 7.406 1.05 11.092 9.388 11.092 9.388s-.78-3.644-3.794-7.067a27.746 27.746 0 0 1 3.468 3.715c4.098 5.286 10.942 9.477 17.18 11.983 1.212.488 2.403.912 3.545 1.268 5.192 1.615 7.256 4.145 7.98 5.354-.484.483-1.165 1.257-1.897 2.374-1.005 1.533-2.1 3.713-2.9 6.667h-.001v.004c-.084.312-.166.629-.244.958-1.826 7.777-4.61 10.523-4.61 10.523s-9.94-12.492-19.625-18.864a55.885 55.885 0 0 1-2.327-1.62c-7.813-5.728-12.536-12.423-10.855-16.526zm-23.35 11.273c13.126 3.104 15.887 26.126 15.887 26.126s.23-22.66-13.739-26.692c.325-.078.619-.146.884-.203 2.63.6 9.328 3.547 12.693 18.009a186.16 186.16 0 0 1 1.511 7.193c3.392 17.743 5.627 40.54 6.485 51.737.59 7.698 1.12 13.3 1.449 16.542.132 1.298.231 2.22.29 2.743-2.327-.216-6.218.168-12.653.888-.473-3.695-2.041-15.852-3.61-26.799-.57-3.98-1.21-7.687-1.811-11.356-1.377-8.405-2.558-16.614-2.269-27.463.29-10.887-1.837-17.89-4.29-22.315-2.036-3.675-4.296-5.57-5.58-6.426.919-.58 2.42-1.321 4.753-1.984zm12.066 98.501c.035-.19.08-.372.126-.537.91-.462 3.06-1.312 6.878-1.508 5.304-.273 8.467-.254 8.812 2.143.055.38-.001.685-.148.93-.782 1.296-4.145.882-7.337.882-2.434 0-5.075.41-6.658.703h-.003c-.884.164-1.439.292-1.439.292s-.001-.521-.15-1.272a8.308 8.308 0 0 0-.095-.423c0-.005 0-.01-.002-.015 3.498-3.074 11.447-2.463 11.447-2.463s-5.4-1.325-11.431 1.268zm-62.258 39.52c.71-.48 1.536-.865 2.25-.739 1.652.292 3.12 6.958 5.139 8.886 1.62 1.547 1.115 2.74.85 3.151H80.614c6.356-1.149 10.204-8.516 8.907-10.4-1.407-2.047-3.244.058-3.244.058s2.51-1.286 2.51.995c0 .68-.364 1.67-1.089 2.763-.318-.77-1.101-2.367-2.499-3.562.294-.287.804-.75 1.4-1.152zm47.047 11.298h-2.448c-.084-.644-.497-3.218-1.953-6.145a19.122 19.122 0 0 0-2.49-3.815c2.002 1.218 3.86 2.374 5.035 3.77 2.854 3.392 3.746 5.611 3.947 6.19h-2.091zm5.156 0c-.619-1.082-4.561-7.647-10.848-10.634-6.862-3.26-10.362-8.652-10.362-8.652 1.039 3.764 4.032 6.102 7.112 8.06 2.854 4.312 3.882 10.212 4.042 11.226h-2.332c-1.585-.61-6.75-3.381-9.965-14.297-3.835-13.018-6.365-17.228-11.75-25.49a90.356 90.356 0 0 0-8.537-11.08c14.095.432 23.061-14.331 23.061-14.331s-10.827 14.963-23.617 13.723a75.573 75.573 0 0 0-.467-.5c5.047-.694 9.934-3.39 13.16-5.541 2.354-1.57 3.825-2.85 3.825-2.85s-15.759 9.39-22.593 6.447c.39-.491.773-.995 1.144-1.517a40.523 40.523 0 0 0 2.273-3.608c12.014-6.538 18.93-20.419 18.93-20.419s-7.93 12.15-17.129 16.876a61.435 61.435 0 0 0 2.236-5.612 71.038 71.038 0 0 0 4.782-5.322c3.112-3.843 5.393-7.53 7.066-10.866l.002-.005c4.528-9.033 4.595-15.493 4.595-15.493s-.953 6.856-4.939 14.398c-2.241 4.242-5.443 8.7-9.973 12.278.161-.6.319-1.202.469-1.811 2.137-8.678 6.365-17.123 9.764-23.006 2.83-4.897 5.087-8.019 5.087-8.019s-1.585 1.02-3.97 4.015h-.001c-3.447 4.327-8.566 12.78-13.002 28.257-1.798 6.272-4.06 11.084-6.458 14.78-5.878 9.054-12.585 11.394-15.345 11.99.001-2.1-.017-4.558.26-7.517.454-4.807 4.47-7.48 6.895-8.668.082 1.26.09 2.26-.04 2.978-.611 3.39-2.876 5.554-2.876 5.554s3.854-.725 4.172-9.086c.364-.141.581-.209.581-.209s-.215.015-.576.07c.047-1.431-.005-3.076-.199-4.981-.744-7.297-1.409-14.913-.312-20.961.378-2.084.966-3.982 1.833-5.617 0 0 0-.002.002-.003 1.17-2.207 2.848-3.936 5.21-4.989 0 0-7.468-1.286-8.57 12.979-.842 10.912.392 19.082.745 23.84-2.01.524-5.16 1.841-6.99 5.088-.766 1.36-1.303 3.054-1.424 5.175-.572 9.977-.98 13.252-3.754 15.901-2.291 2.189-8.702.446-14.451.958-1.211.107-2.393.313-3.5.68a1045.765 1045.765 0 0 0 9.758 1.361c-.326 1.03-3.326 8.725-19.805 7.626-.424-.029-.854-.061-1.296-.101-16.453-1.497-25.459-8.107-24.969-8.575.49-.467 1.877 1.014 8.486 1.014 6.61 0 7.833-2.417 1.632-1.949-6.201.468-12.81-2.417-13.3-.234-.49 2.183 5.712 8.496 27.906 10.758a55.11 55.11 0 0 0 5.987.305c14.949-.112 15.404-7.786 15.396-8.839l.59.087c-2.055 3.76 2.856 6.105 2.283 6.653-.612.585-3.121-.877-3.121-.877s.428 1.695 3.488 2.105c3.06.41 6.12-.819 3.12-1.345-2.524-.443-5.444-3.82-4.29-6.315.85.13 1.612.251 2.236.357-.987 2.175.392 3.587 5.237 6.231.4.218.783.466 1.151.736 1.368 1 2.514 2.33 3.384 3.796 2.249 3.784 2.66 8.473.28 10.747-3.55 3.39-5.223 8.73-3.754 8.73 1.47 0 0-3.274 5.467-5.768 1.161-.53 2.159-.858 3.012-1.048 3.712.047 5.733 3.48 6.242 4.478-1.782 2.285-5.06 4.813-9.868 5.878H61.015c7.642-1.5 11.614-13.323 11.614-13.323s-4.234 12.462-22.03 12.462c-20.962 0-30.234-8.603-30.234-8.603s5.88 8.241 15.883 9.464h-8.464c-3.326-.794-6.569-4.56-10.968-8.763-2.785-2.66-6.845-8.754-9.868-15.22C23.935 259.4 36.52 258.916 36.52 258.916S19.39 256.81 4.911 239.28a41.435 41.435 0 0 1-1.353-4.4c12.98 11.161 30.23 9.38 30.23 9.38s-23.73-1.786-30.846-15.517c.198-1.44.782-3.095 1.718-4.952.766-1.52 1.766-3.173 2.986-4.954.023 3.346 4.03 5 4.03 5s-.572-.863-.597-2.79c-.03-2.307.725-6.141 4.188-11.85.035-.06.071-.118.107-.177l.829-.95c8.087-9.217 19.379-20.4 32.558-32.99 26.867-25.664 33.741-24.514 36.026-29.27.172-.358.39-.72.636-1.084 3.028-4.455 11.272-9.102 15.194-9.75 1.258-.208 1.94-.595 2.43-1.084.445-.445.73-.975 1.137-1.534 23.517 3.895 22.562 35.124 20.68 50.194-.61 4.89-1.317 8.08-1.317 8.08s.466-1.8 1.023-4.77c2.462-13.136 6.694-49.215-19.834-54.168.535-.561 1.294-1.127 2.546-1.647l.033-.015c22.86.368 21.617 40.254 21.617 40.254s3.68-37.874-19.737-40.898c5.035-1.552 7.104-1.39 11.577-4.78l.251-.187c4.609-3.425 8.167-4.173 13.225.656 2.823 3.329 5.944 9.176 5.944 18.784 0 17.54 1.96 31.102 4.407 44.666.957 5.3 1.718 10.698 2.29 15.309-1.059-.888-3.132-3.6-4.74-5.799-1.24-1.693-2.201-3.08-2.201-3.08s3.314 7.437 7.526 13.894c.402 3.652.637 6.283.71 7.141a5.716 5.716 0 0 0-.403 2.078c0 1 .403 2.159.692 2.862 1.636 8.041 3.426 19.03 4.86 28.399a1394.357 1394.357 0 0 1 2.75 18.815h-17.282zm19.236 0l-8.002-46.983c.204-.058.432-.12.68-.183l6.614 36.299s-5.085-31.127-3.613-36.897a34.786 34.786 0 0 1 5-.364c2.7 0 4.42.17 5.468.032.759 5.047 4.116 24.012 6.362 36.61a8849.893 8849.893 0 0 0 2.054 11.486h-14.563zm16.399 0l-7.126-39.086c1.466 1.077 4.299 5.535 4.299 5.535s-1.379-5.13-5.192-10.436l-.915-5.016c.14-.433.147-1.05.068-1.931a4.575 4.575 0 0 0-.237-1.17v-.002c0-.063-.004-.12-.01-.177 2.261.41 5.877-3.172 5.877-3.172s-4.2 2.326-6.975.493c-.1-.405-.209-.907-.327-1.527v-.01l-.001.001c-.565-2.985-1.31-8.692-1.917-19.458-1.143-20.266-5.758-43.332-7.67-54.564-2.242-13.163-8.557-18.513-10.9-20.083.798-.918 2.321-2.17 4.818-2.42 1.811.88 2.51 3.312 2.776 4.966.152.944.165 1.635.165 1.635s2.783-2.49.825-6.555c3.651-.446 3.99-4.384 6.546-4.931.3 2.416 1.798 5.508 5.109 9.102l-.002-.002c4.447 9.13 8.497 14.484 11.273 17.477 2.334 2.516 3.768 3.364 3.768 3.364s-8.905-9.68-10.089-16.246c.881.717 1.824 1.447 2.843 2.192l-.003-.002.019.013c.368.269.742.539 1.13.811l.15.109c8.393 6.613 9.56 19.67 9.56 19.67s.266-6.397-2.589-12.636a22.41 22.41 0 0 0-1.58-2.885 80.862 80.862 0 0 1 7.464 7.09c.505.545.978 1.074 1.424 1.584 3.612 4.136 5.318 7.024 5.318 7.024s.87-.534 2.025-1.935c1.666 6.573 8.084 13.191 9.994 15.048.33.322.526.501.538.511a65.452 65.452 0 0 1-.644 5.629c-.301 1.875-.507 3.909-.63 6.069-.815 14.182 1.986 33.952 5.526 52.081 3.885 19.893 5.847 41.793 6.025 43.84h-40.733zm73.483-4.866l-1.84-1.724-2.127 1.949.13 4.641h-2.791l.532-5.105-2.128-1.578-2.37 1.532-.226 5.151h-2.387l.388-4.502-2.13-1.764-2.248 2.159.107 4.107H228.9l-.041-2.691-2.564-2.74-2.273 2.833-.236 2.598h-3.264l-.515-1.763-2.225-2.368-.85.582c-.285-1.975-.674-4.64-1.134-7.76l-.087-.59 1.757.853 1.754-2.26-.408-5.652-2.937-3.585-1.504 1.643c-.44-2.932-.906-6.003-1.381-9.102l2.03-2.285-.858-5.73-2.492-.465c-.357-2.26-.712-4.478-1.059-6.606l-.542-3.333c1.069-.352 2.676-1.973 2.215-4.99-.468-3.06-2.08-3.617-3.59-3.718-.49-3.209-.965-6.46-1.399-9.7.507-.549 1.215-1.504 1.369-2.679.203-1.56-.975-3.824-2.26-4.536-.086-.775-.17-1.547-.249-2.315l2.11.869 1.123-1.072.245-5.145-3.143-3-.976.96c-.26-3.816-.386-7.461-.323-10.826l1.27-2.557-1.033-2.215c.075-.887.167-1.746.279-2.574l1.457-.561s.673-1.14.673-3.07.03-3.799.03-3.799l-1.447-1.606c.02-.748.032-1.488.036-2.217l1.442.987 2.05-2.339-.458-5.437-2.265-1.636-.972 1.13c-.254-4.26-.684-7.62-.928-9.314.462-.117.943-.39 1.45-.876 2.225-2.124 4.358-1.764 5.442-1.355.714 3.66 1.51 6.987 2.342 9.992-.533-.391-.663-.63-.663-.63l-1.53 1.755.703 4.56 2.449 2.63 1.178-1.454c.313.899.626 1.757.936 2.574l-1.043 2.008 2.448 4.706 1.71.467c.358.722.7 1.377 1.018 1.965l-.096 2.362 2.386 4.034 1.836.877.675-2.234c.306.765.617 1.569.934 2.41l-.772 1.928 1.264 4.522 2.326 1.563c.84 2.528 1.7 5.23 2.574 8.07l-1.963 2.682.491 4.989 2.896 2.572.82-1.508.234-.432.351 1.218.229 1.52-.344.52-.413.622.46 3.127 2.258 1.98-.003-.017.57 2.074-2.653-1.659-1.346 1.909v5.417l2.865 2.738.092.089 2.061-2.943.076-1.518c.277 1.026.55 2.044.82 3.05l-1.343 2.248 1.019 3.78 2.502 2.192c.534 2.036 1.043 3.995 1.524 5.856l-1.293-3.603-2.856-2.69-1.876 2.65 1.347 5.067 3.222 2.144 1.457-3.563c.212.818.417 1.617.617 2.396l-1.175 1.83.57 5.221 2.842 1.748c1.026 4.083 1.666 6.698 1.786 7.19l-.133 2.633-1.925 1.642s1.02 8.263 1.02 8.458l.378.322-.159 3.09zm37.744-9.51c-.179 2.276-.895 5.193-1.667 7.816-.211-2.328-.669-4.347-.669-4.347s-.067 2.087-.812 4.477c-.527 1.69-1.393 3.534-2.816 4.899a9.075 9.075 0 0 1-2.181 1.531h-20.033c-1.14-.595-4.877-3.052-5.91-10.108-1.224-8.36-1.468-13.387-1.468-13.387l-.67 23.495h-.915c.076-1.88.83-20.638 1.327-28.05 1.273 1.395 2.948 2.411 4.784 3.148 6.381 2.562 14.69 1.757 14.69 1.757s-18.621.038-19.202-7.396a4.659 4.659 0 0 1-.014-.36c.331-1.666 4.25-3.58 11.181-4.054h.243l-.002-.016a49.96 49.96 0 0 1 3.548-.092l.652.01c1.148.022 2.356.081 3.62.18.154.012.307.022.464.036 12.78 1.09 16.366 4.502 16.943 7.633-.317 2.585-1.643 3.591-1.643 3.591s.978 3.8.55 9.237zm11.486 1.755c-2.326.857-2.856 2.415-1.429 4.169 1.43 1.754.123 3.547-2.08 4.21-.841.253-1.253.83-1.521 1.438-.435.984-.492 2.049-1.376 1.952-1.085-.118-3.369-.933-4.404-1.319l.333-6.282c3.84-.91 5.58-2.454 5.58-2.454s-3.199 1.493-5.48.578l.331-6.256c1.902-.592 5.292-2.819 5.292-2.819s-5.691 2.515-3.733-.818c1.63-2.774.122-3.603-1.183-3.502l.066-1.273c.03-.558.055-1.057.076-1.48.21-4.097-4.305-6.418-9.64-7.698 1.53-1.193 8.03 2.378 8.03 2.378s-1.3-.897-2.821-1.871c1.94.67 4.48 1.45 7.47 2.533 7.1 2.573 7.183 6.977 5.428 8.224-1.755 1.247-2.774 3 .246 5.027 3.019 2.027 3.141 4.405.815 5.263z" fill="#222"/><path d="M118.651 221.5c-8.363-7.989-14.933-3.43-14.933-3.43s6.528-2.182 13.71 4.678c7.18 6.86 10.443 23.54 10.443 23.54s-.856-16.798-9.22-24.787" fill="#222"/><path d="M212.001 144.6s-.307-2.494-.205-3.682l.205-2.358-3.02-1.889-2.222 2.258s.448 1.989.611 3.333c.164 1.345 0 2.71 0 2.71l2.61 1.558 2.021-1.93" fill="#11402B"/><path fill="#156741" d="M211.174 161.516l2.8 2.675 1.79-2.295-.55-5.116-2.51-2.367-2.172 2.485.642 4.618M211.818 173.354l2.141-2.455-.765-5.057-2.998-1.403-1.684 1.754.582 5.232 2.724 1.93M211.634 181.276s-.154-2.222-.154-3.537v-2.192l-2.877-2.28-2.233 2.28s.429 2.368.429 4.18c0 1.812.183 1.987.183 1.987l2.998 2.105 1.654-2.543"/><path fill="#11402B" d="M213.96 208.023l-1.316-5.73-2.51-1.198-1.315 1.958.612 5.232 3.213 2.222 1.315-2.484"/><path d="M210.516 193.188l.567 5.451 2.998 2.368s1.592-1.667 1.592-1.841c0-.176-.337-5.76-.337-5.76l-3.03-1.928-1.79 1.71" fill="#156741"/><path fill="#00C66B" d="M214.387 182.183l-1.927 1.812.611 5.115 2.724 2.017 1.836-1.754-.58-6.05-2.664-1.14M215.152 179.64l2.51 2.016 2.14-3.128-1.559-4.793-2.387-1.374-1.255 2.25.55 5.028"/><path d="M219.835 172.331s1.04-2.397 1.04-2.542c0-.147-1.255-5.35-1.255-5.35l-2.265-1.023-1.193 1.784.276 5.085 3.397 2.046" fill="#156741"/><path fill="#11402B" d="M224.455 180.925l1.621-2.338-1.193-5.116-2.51-1.608-1.406 2.34.642 4.88 2.846 1.842M226.484 187.259l2.938 2.845 2.244-2.806-2.04-5.418-2.244-1.285-1.59 2.416.692 4.248"/><path fill="#00C66B" d="M221.14 181.374l-1.591 1.948.286 4.405 3.304 2.572 1.348-2.416-.777-4.794-2.57-1.715M217.958 197.236l3.55 3.04 1.51-2.221-.368-5.885-3.06-1.793-1.591 1.948-.04 4.91"/><path fill="#156741" d="M227.995 199.029l1.469-2.026-.695-5.536-2.937-2.026-1.264 2.339.448 5.027 2.98 2.222"/><path fill="#00C66B" d="M215.591 202.381l.898 5.73 3.305 1.91 1.673-2.534-.98-5.886-3.1-1.48-1.796 2.26M223.71 206.006l2.755 2.631 1.448-2.514-.409-5.846-2.814-1.13-1.673 1.83.693 5.029"/><path fill="#11402B" d="M229.79 205.032l2.53 2.883 1.508-2.728v-5.495l-2.61-1.948-1.796 2.298.368 4.99"/><path fill="#156741" d="M214.938 216.802l2.653 2.884 2.039-3.119-.858-4.949-2.895-2.066-2.162 2.105 1.223 5.145"/><path fill="#00C66B" d="M225.913 209.552l-2.651-1.052-2.143 2.046.755 4.58 2.529 3.273 1.755-2.727-.245-6.12"/><path fill="#156741" d="M229.585 207.33l-2.08 2.26.284 5.068 2.878 2.748 2.06-3.177-.898-4.872-2.244-2.027"/><path fill="#11402B" d="M217.295 221.147l-3.397-1.929-2.111 1.52.917 6.401 2.877 2.105 1.804-1.724-.09-6.373M220.528 238.277l-2.815-1.91-2.08 2.572.611 4.677 2.57 3.08 2.286-2.262-.572-6.157M225.058 256.83l-3.02-2.418-2.53 2.494-.203 2.34-.001.01-.265 3.553 2.951 2.414 3-2.227.148-3.556-.08-2.61"/><path fill="#156741" d="M223.139 244.512l-2.285 2.963.817 4.482 3.304 2.416 2.285-2.104-.815-6.236-3.306-1.52"/><path d="M240.193 253.243s.653 6.275.653 6.43l2.445 1.28 2.287-1.474v-6.549l-3.019-3-2.366 3.313" fill="#11402B"/><path fill="#222" d="M246.518 242.524l-2.348-2.24-1.938 2.903.776 5.418 2.694 1.753 1.755-2.22-.939-5.614"/><path fill="#11402B" d="M234.115 215.477l-1.958 2.416.611 5.456 3.06 1.95 2.468-2.358-1.285-5.087-2.896-2.377"/><path fill="#00C66B" d="M227.586 216.724l-2.04 2.494.367 5.495 3.02 2.378 1.713-2.065-.122-5.886-2.938-2.416M221.14 217.503l-2.203 3.04.858 5.223 2.61 2.494 2.407-2.69-.45-5.573-3.221-2.494"/><path fill="#156741" d="M217.427 234.535l2.816 2.105 1.998-1.403-.285-5.769-2.693-1.87-2.243 2.455.407 4.482"/><path fill="#00C66B" d="M225.506 226.584l-1.592 2.495.286 4.326 3.06 2.338 1.96-1.247-.695-6.198-3.02-1.714"/><path fill="#156741" d="M232.034 224.869l-1.795 2.456.611 4.989 3.917 2.376 2.286-2.805-1.837-5.73-3.182-1.286"/><path fill="#11402B" d="M240.56 242.759l2.081-3.937-1.101-5.378-2.816-1.442-2.12 2.806 1.671 5.222 2.286 2.729"/><path fill="#00C66B" d="M230.85 234.34l-1.754 2.806 1.795 4.951 2.774 2.221 2.082-3.235-.857-4.833-4.04-1.91M224.281 235.782l-1.835 1.949.408 4.521 3.305 2.495 2.141-2.047-.794-5.046-3.225-1.872M229.953 243.344l-1.55 2.493.57 4.6 2.635 1.752.588.391 2.183-2.084-.878-4.542-3.548-2.61"/><path fill="#156741" d="M240.438 244.863l-3.141-3.312-1.877 2.923.285 4.599 3.468 1.988 1.591-2.067-.326-4.13M234.033 252.775l.245 6.86 1.969 1.888 2.763-1.693.163-5.963-3.161-2.981-1.98 1.89M227.199 255.476l.161 4.703 2.322 2.6 2.322-2.723-.742-4.765-2.128-1.362-1.935 1.547"/><path d="M209.523 96.32c5.28-1.152 6.01-3.623 6.01-3.623s-1.15 2.219-6.432 3.118c-5.28.899-9.241-.647-9.241-.647s4.382 2.304 9.663 1.152" fill="#222"/></g></svg>