<svg id="Layer_1" data-name="Layer 1" xmlns="http://www.w3.org/2000/svg" viewBox="0 0 485 104"><defs><style>.cls-1{fill:#fff;}.cls-2{fill:#f5f5f5;}.cls-3{fill:#ddd;}.cls-4,.cls-5,.cls-8{fill:none;stroke-linecap:round;stroke-linejoin:round;}.cls-4,.cls-5{stroke:#fff;}.cls-4,.cls-8{stroke-width:1px;}.cls-5{stroke-width:2px;}.cls-6{fill:#fd812d;}.cls-7{fill:#00c66b;}.cls-8{stroke:#f5f5f5;}</style></defs><title>01</title><rect class="cls-1" x="370.9" y="37.77" width="37.82" height="14.64"/><rect class="cls-1" x="370.9" y="3.68" width="37.82" height="29.08"/><rect class="cls-1" x="293.53" y="2.68" width="46.44" height="46.44"/><circle class="cls-2" cx="316.74" cy="25.9" r="18.58"/><rect class="cls-1" x="293.53" y="53.77" width="46.44" height="46.44"/><circle class="cls-3" cx="316.74" cy="76.99" r="18.58"/><path class="cls-1" d="M36.41,48.67H9.67L3.21,42.21V15.48L9.67,9H36.41l6.46,6.46V42.2Z"/><path class="cls-3" d="M23.05,19.77A9.07,9.07,0,1,1,14,28.84a9.08,9.08,0,0,1,9.08-9.08m0-3A12.07,12.07,0,1,0,35.13,28.84,12.08,12.08,0,0,0,23.05,16.77Z"/><line class="cls-4" x1="9.11" y1="59.59" x2="9.11" y2="99.25"/><line class="cls-4" x1="19.11" y1="59.59" x2="19.11" y2="99.25"/><line class="cls-4" x1="29.11" y1="59.59" x2="29.11" y2="99.25"/><line class="cls-4" x1="39.11" y1="59.59" x2="39.11" y2="99.25"/><line class="cls-4" x1="49.11" y1="59.59" x2="49.11" y2="99.25"/><line class="cls-4" x1="59.11" y1="59.59" x2="59.11" y2="99.25"/><line class="cls-4" x1="69.11" y1="59.59" x2="69.11" y2="99.25"/><line class="cls-4" x1="79.11" y1="59.59" x2="79.11" y2="99.25"/><line class="cls-4" x1="89.11" y1="59.59" x2="89.11" y2="99.25"/><line class="cls-4" x1="99.11" y1="59.59" x2="99.11" y2="99.25"/><line class="cls-4" x1="109.11" y1="59.59" x2="109.11" y2="99.25"/><line class="cls-4" x1="119.11" y1="59.59" x2="119.11" y2="99.25"/><line class="cls-4" x1="129.11" y1="59.59" x2="129.11" y2="99.25"/><line class="cls-4" x1="139.11" y1="59.59" x2="139.11" y2="99.25"/><line class="cls-4" x1="14.11" y1="59.59" x2="14.11" y2="99.25"/><line class="cls-4" x1="24.11" y1="59.59" x2="24.11" y2="99.25"/><line class="cls-4" x1="34.11" y1="59.59" x2="34.11" y2="99.25"/><line class="cls-4" x1="44.11" y1="59.59" x2="44.11" y2="99.25"/><line class="cls-4" x1="54.11" y1="59.59" x2="54.11" y2="99.25"/><line class="cls-4" x1="64.11" y1="59.59" x2="64.11" y2="99.25"/><line class="cls-4" x1="74.11" y1="59.59" x2="74.11" y2="99.25"/><line class="cls-4" x1="84.11" y1="59.59" x2="84.11" y2="99.25"/><line class="cls-4" x1="94.11" y1="59.59" x2="94.11" y2="99.25"/><line class="cls-4" x1="104.11" y1="59.59" x2="104.11" y2="99.25"/><line class="cls-4" x1="114.11" y1="59.59" x2="114.11" y2="99.25"/><line class="cls-4" x1="124.11" y1="59.59" x2="124.11" y2="99.25"/><line class="cls-4" x1="134.11" y1="59.59" x2="134.11" y2="99.25"/><line class="cls-4" x1="144.11" y1="59.59" x2="144.11" y2="99.25"/><line class="cls-4" x1="149.11" y1="59.59" x2="149.11" y2="99.25"/><polygon class="cls-1" points="74.45 28.84 54.87 48.59 54.87 9.01 74.45 28.8 74.45 28.84"/><polygon class="cls-1" points="94.03 28.84 74.45 48.59 74.45 9.01 94.03 28.8 94.03 28.84"/><rect class="cls-1" x="94.03" y="9.01" width="3.77" height="39.58"/><line class="cls-5" x1="128.21" y1="10.37" x2="128.21" y2="15.37"/><line class="cls-5" x1="123.43" y1="11" x2="124.72" y2="15.83"/><line class="cls-5" x1="118.98" y1="12.84" x2="121.48" y2="17.17"/><line class="cls-5" x1="115.16" y1="15.77" x2="118.69" y2="19.31"/><line class="cls-5" x1="112.23" y1="19.59" x2="116.56" y2="22.09"/><line class="cls-5" x1="110.38" y1="24.05" x2="115.21" y2="25.34"/><line class="cls-5" x1="109.75" y1="28.82" x2="114.75" y2="28.82"/><line class="cls-5" x1="110.38" y1="33.59" x2="115.21" y2="32.3"/><line class="cls-5" x1="112.23" y1="38.05" x2="116.56" y2="35.55"/><line class="cls-5" x1="115.16" y1="41.87" x2="118.69" y2="38.33"/><line class="cls-5" x1="118.98" y1="44.8" x2="121.48" y2="40.47"/><line class="cls-5" x1="123.43" y1="46.64" x2="124.72" y2="41.82"/><line class="cls-5" x1="128.21" y1="47.27" x2="128.21" y2="42.27"/><line class="cls-5" x1="132.98" y1="46.64" x2="131.69" y2="41.82"/><line class="cls-5" x1="137.43" y1="44.8" x2="134.93" y2="40.47"/><line class="cls-5" x1="141.25" y1="41.87" x2="137.72" y2="38.33"/><line class="cls-5" x1="144.19" y1="38.05" x2="139.86" y2="35.55"/><line class="cls-5" x1="146.03" y1="33.59" x2="141.2" y2="32.3"/><line class="cls-5" x1="146.66" y1="28.82" x2="141.66" y2="28.82"/><line class="cls-5" x1="146.03" y1="24.05" x2="141.2" y2="25.34"/><line class="cls-5" x1="144.19" y1="19.59" x2="139.86" y2="22.09"/><line class="cls-5" x1="141.25" y1="15.77" x2="137.72" y2="19.31"/><line class="cls-5" x1="137.43" y1="12.84" x2="134.93" y2="17.17"/><line class="cls-5" x1="132.98" y1="11" x2="131.69" y2="15.83"/><circle class="cls-5" cx="128.21" cy="28.82" r="7.04"/><path class="cls-1" d="M176.77,94.24V8.5a5.84,5.84,0,0,0-11.67,0V94.24a5.84,5.84,0,1,0,11.67,0Zm-9.17-82.5a3.33,3.33,0,1,1,3.34,3.33,3.34,3.34,0,0,1-3.34-3.33Zm0,10a3.33,3.33,0,1,1,3.34,3.33,3.34,3.34,0,0,1-3.34-3.33Zm0,10a3.33,3.33,0,1,1,3.34,3.33,3.34,3.34,0,0,1-3.34-3.33Zm0,10a3.33,3.33,0,1,1,3.34,3.33,3.34,3.34,0,0,1-3.34-3.33Zm0,10a3.33,3.33,0,1,1,3.34,3.33,3.34,3.34,0,0,1-3.34-3.33Zm0,10a3.33,3.33,0,1,1,3.34,3.33,3.34,3.34,0,0,1-3.34-3.33Zm0,10a3.33,3.33,0,1,1,3.34,3.33,3.34,3.34,0,0,1-3.34-3.33Zm0,10a3.33,3.33,0,1,1,3.34,3.33,3.34,3.34,0,0,1-3.34-3.33Zm0,10a3.33,3.33,0,1,1,3.34,3.33,3.34,3.34,0,0,1-3.34-3.33Z"/><path class="cls-1" d="M210.34,94.24V8.5a5.84,5.84,0,0,0-11.67,0V94.24a5.84,5.84,0,1,0,11.67,0Zm-9.17-82.5a3.33,3.33,0,1,1,3.34,3.33,3.34,3.34,0,0,1-3.34-3.33Zm0,10a3.33,3.33,0,1,1,3.34,3.33,3.34,3.34,0,0,1-3.34-3.33Zm0,10a3.33,3.33,0,1,1,3.34,3.33,3.34,3.34,0,0,1-3.34-3.33Zm0,10a3.33,3.33,0,1,1,3.34,3.33,3.34,3.34,0,0,1-3.34-3.33Zm0,10a3.33,3.33,0,1,1,3.34,3.33,3.34,3.34,0,0,1-3.34-3.33Zm0,10a3.33,3.33,0,1,1,3.34,3.33,3.34,3.34,0,0,1-3.34-3.33Zm0,10a3.33,3.33,0,1,1,3.34,3.33,3.34,3.34,0,0,1-3.34-3.33Zm0,10a3.33,3.33,0,1,1,3.34,3.33,3.34,3.34,0,0,1-3.34-3.33Zm0,10a3.33,3.33,0,1,1,3.34,3.33,3.34,3.34,0,0,1-3.34-3.33Z"/><path class="cls-6" d="M193.44,94.24V8.5a5.84,5.84,0,0,0-11.67,0V94.24a5.84,5.84,0,1,0,11.67,0Zm-9.17-82.5a3.33,3.33,0,1,1,3.34,3.33,3.34,3.34,0,0,1-3.34-3.33h0Zm0,10a3.33,3.33,0,1,1,3.34,3.33,3.34,3.34,0,0,1-3.34-3.33h0Zm0,10a3.33,3.33,0,1,1,3.34,3.33,3.34,3.34,0,0,1-3.34-3.33h0Zm0,10a3.33,3.33,0,1,1,3.34,3.33,3.34,3.34,0,0,1-3.34-3.33h0Zm0,10a3.33,3.33,0,1,1,3.34,3.33,3.34,3.34,0,0,1-3.34-3.33h0Zm0,10a3.33,3.33,0,1,1,3.34,3.33,3.34,3.34,0,0,1-3.34-3.33h0Zm0,10a3.33,3.33,0,1,1,3.34,3.33,3.34,3.34,0,0,1-3.34-3.33h0Zm0,10a3.33,3.33,0,1,1,3.34,3.33,3.34,3.34,0,0,1-3.34-3.33h0Zm0,10a3.33,3.33,0,1,1,3.34,3.33,3.34,3.34,0,0,1-3.34-3.33h0Z"/><polygon class="cls-1" points="387.08 83.22 387.08 100.41 369.9 100.41 387.08 83.22"/><rect class="cls-7" x="391.73" y="60.9" width="17.18" height="17.18"/><circle class="cls-1" cx="379.49" cy="69.49" r="8.59"/><line class="cls-4" x1="408.72" y1="84.52" x2="391.54" y2="84.52"/><line class="cls-4" x1="408.72" y1="88.17" x2="391.54" y2="88.17"/><line class="cls-4" x1="408.72" y1="91.82" x2="391.54" y2="91.82"/><line class="cls-4" x1="408.72" y1="95.47" x2="391.54" y2="95.47"/><line class="cls-4" x1="408.72" y1="99.12" x2="391.54" y2="99.12"/><rect class="cls-4" x="223.34" y="2.68" width="10.54" height="43.7"/><rect class="cls-4" x="223.34" y="50.55" width="10.54" height="48.7"/><rect class="cls-4" x="238.89" y="2.68" width="10.54" height="58.7"/><rect class="cls-4" x="238.89" y="65.55" width="10.54" height="33.7"/><rect class="cls-4" x="254.43" y="2.68" width="10.54" height="27.26"/><rect class="cls-4" x="254.43" y="34.12" width="10.54" height="65.13"/><rect class="cls-4" x="269.98" y="2.68" width="10.54" height="70.13"/><rect class="cls-4" x="269.98" y="76.99" width="10.54" height="22.26"/><polyline class="cls-5" points="349.96 3.69 358.09 3.69 358.09 10.5 349.96 10.5 349.96 17.32"/><polyline class="cls-5" points="349.96 17.32 358.09 17.32 358.09 24.13 349.96 24.13 349.96 30.95"/><polyline class="cls-5" points="349.96 30.95 358.09 30.95 358.09 37.76 349.96 37.76 349.96 44.58"/><polyline class="cls-5" points="349.96 44.58 358.09 44.58 358.09 51.4 349.96 51.4"/><polyline class="cls-5" points="349.96 51.4 358.09 51.4 358.09 58.21 349.96 58.21 349.96 65.03"/><polyline class="cls-5" points="349.96 65.03 358.09 65.03 358.09 71.84 349.96 71.84 349.96 78.66"/><polyline class="cls-5" points="349.96 78.66 358.09 78.66 358.09 85.47 349.96 85.47 349.96 92.28"/><polyline class="cls-5" points="349.96 92.28 358.09 92.28 358.09 99.1 349.96 99.1"/><rect class="cls-1" x="419.9" y="4.34" width="62" height="18"/><circle class="cls-2" cx="471.56" cy="13.34" r="5.34"/><circle class="cls-2" cx="450.9" cy="13.34" r="5.34"/><circle class="cls-2" cx="430.23" cy="13.34" r="5.34"/><line class="cls-8" x1="461.23" y1="8.01" x2="461.23" y2="18.67"/><line class="cls-8" x1="440.56" y1="8.01" x2="440.56" y2="18.67"/><circle class="cls-1" cx="434.4" cy="43.34" r="14.5"/><circle class="cls-1" cx="467.23" cy="43.34" r="14.5"/><path class="cls-4" d="M481.73,99.12h-59.4a2.45,2.45,0,0,1-2.44-2.44h0a2.45,2.45,0,0,1,2.44-2.44h57a2.45,2.45,0,0,0,2.44-2.44h0a2.45,2.45,0,0,0-2.44-2.44h-57a2.45,2.45,0,0,1-2.44-2.44h0a2.45,2.45,0,0,1,2.44-2.44h57A2.45,2.45,0,0,0,481.73,82h0a2.45,2.45,0,0,0-2.44-2.44h-57a2.45,2.45,0,0,1-2.44-2.44h0a2.45,2.45,0,0,1,2.44-2.44h57a2.45,2.45,0,0,0,2.44-2.44h0a2.45,2.45,0,0,0-2.44-2.44h-57a2.45,2.45,0,0,1-2.44-2.44h0A2.45,2.45,0,0,1,422.34,65h57"/></svg>