<svg id="Layer_1" data-name="Layer 1" xmlns="http://www.w3.org/2000/svg" viewBox="0 0 485 94"><defs><style>.cls-1{fill:#fff;}.cls-2{fill:#fd812d;}.cls-3,.cls-4,.cls-6{fill:none;stroke-linecap:round;stroke-linejoin:round;}.cls-3,.cls-6{stroke:#fff;}.cls-3,.cls-4{stroke-width:2px;}.cls-4{stroke:#5cb7f0;}.cls-5{fill:#ddd;}.cls-6{stroke-width:1px;}.cls-7{fill:#f5f5f5;}.cls-8{fill:#fffc78;}.cls-9{fill:#00c66b;}</style></defs><title>02</title><rect class="cls-1" x="313.56" y="84.5" width="75" height="9.79"/><rect class="cls-1" x="313.56" y="69.71" width="75" height="9.79"/><polygon class="cls-2" points="413.57 82 393.57 94.3 393.57 69.71 413.57 82"/><circle class="cls-1" cx="207.09" cy="11.62" r="9.76"/><circle class="cls-1" cx="207.09" cy="37.78" r="9.76"/><circle class="cls-1" cx="234.43" cy="11.62" r="9.76"/><circle class="cls-1" cx="234.43" cy="37.78" r="9.76"/><line class="cls-3" x1="2.57" y1="36.95" x2="122.04" y2="36.95"/><line class="cls-3" x1="2.57" y1="31.95" x2="122.04" y2="31.95"/><line class="cls-3" x1="2.57" y1="42.57" x2="122.04" y2="42.57"/><rect class="cls-3" x="2.57" y="26.95" width="119.48" height="20.62"/><polyline class="cls-4" points="2.57 5.7 7.54 15.7 12.52 5.7 17.49 15.7 22.47 5.7 27.44 15.7 32.42 5.7 37.39 15.7 42.37 5.7 47.35 15.7 52.33 5.7 57.3 15.7 62.28 5.7 67.26 15.7 72.24 5.7 77.21 15.7 82.19 5.7 87.17 15.7 92.14 5.7 97.12 15.7 102.1 5.7 107.08 15.7 112.06 5.7 117.04 15.7"/><path class="cls-1" d="M28.2,89.68H7.56l-5-5V64l5-5H28.2l5,5V84.69Z"/><circle class="cls-5" cx="17.88" cy="74.36" r="9.33"/><path class="cls-1" d="M148.78,60.81H53.06a5.83,5.83,0,0,0,0,11.67h95.72a5.83,5.83,0,1,0,0-11.67ZM56.28,70a3.33,3.33,0,1,1,3.34-3.33A3.34,3.34,0,0,1,56.28,70Zm10,0a3.33,3.33,0,1,1,3.34-3.33A3.34,3.34,0,0,1,66.28,70Zm20,0a3.33,3.33,0,1,1,3.34-3.33A3.34,3.34,0,0,1,86.28,70Zm-10,0a3.33,3.33,0,1,1,3.34-3.33A3.34,3.34,0,0,1,76.28,70Zm20,0a3.33,3.33,0,1,1,3.34-3.33A3.34,3.34,0,0,1,96.28,70Zm10,0a3.33,3.33,0,1,1,3.34-3.33A3.34,3.34,0,0,1,106.28,70Zm10,0a3.33,3.33,0,1,1,3.34-3.33A3.34,3.34,0,0,1,116.28,70Zm10,0a3.33,3.33,0,1,1,3.34-3.33A3.34,3.34,0,0,1,126.28,70Zm10,0a3.33,3.33,0,1,1,3.34-3.33A3.34,3.34,0,0,1,136.28,70Zm10,0a3.33,3.33,0,1,1,3.34-3.33A3.34,3.34,0,0,1,146.28,70Z"/><path class="cls-1" d="M148.78,77.48H53.06a5.83,5.83,0,0,0,0,11.67h95.72a5.83,5.83,0,1,0,0-11.67Zm-92.5,9.17a3.33,3.33,0,1,1,3.34-3.33,3.34,3.34,0,0,1-3.34,3.33Zm10,0a3.33,3.33,0,1,1,3.34-3.33,3.34,3.34,0,0,1-3.34,3.33Zm20,0a3.33,3.33,0,1,1,3.34-3.33,3.34,3.34,0,0,1-3.34,3.33Zm-10,0a3.33,3.33,0,1,1,3.34-3.33,3.34,3.34,0,0,1-3.34,3.33Zm20,0a3.33,3.33,0,1,1,3.34-3.33,3.34,3.34,0,0,1-3.34,3.33Zm10,0a3.33,3.33,0,1,1,3.34-3.33,3.34,3.34,0,0,1-3.34,3.33Zm10,0a3.33,3.33,0,1,1,3.34-3.33,3.34,3.34,0,0,1-3.34,3.33Zm10,0a3.33,3.33,0,1,1,3.34-3.33,3.34,3.34,0,0,1-3.34,3.33Zm10,0a3.33,3.33,0,1,1,3.34-3.33,3.34,3.34,0,0,1-3.34,3.33Zm10,0a3.33,3.33,0,1,1,3.34-3.33,3.34,3.34,0,0,1-3.34,3.33Z"/><rect class="cls-3" x="136.16" y="1.95" width="45.62" height="45.62"/><rect class="cls-3" x="144.16" y="9.95" width="29.62" height="29.62"/><rect class="cls-3" x="152.16" y="17.95" width="13.62" height="13.62"/><line class="cls-3" x1="197.34" y1="62.31" x2="244.18" y2="62.12"/><line class="cls-3" x1="197.34" y1="67.31" x2="244.18" y2="67.12"/><line class="cls-3" x1="197.34" y1="72.31" x2="244.18" y2="72.12"/><line class="cls-3" x1="197.34" y1="77.31" x2="244.18" y2="77.12"/><line class="cls-3" x1="197.34" y1="82.31" x2="244.18" y2="82.12"/><line class="cls-3" x1="197.34" y1="87.31" x2="244.18" y2="87.12"/><path class="cls-6" d="M298.62,3.45V46.63a2.45,2.45,0,0,1-2.44,2.44h0a2.45,2.45,0,0,1-2.44-2.44V5.89a2.45,2.45,0,0,0-2.44-2.44h0a2.45,2.45,0,0,0-2.44,2.44V46.63a2.45,2.45,0,0,1-2.44,2.44h0A2.45,2.45,0,0,1,284,46.63V5.89a2.45,2.45,0,0,0-2.44-2.44h0a2.45,2.45,0,0,0-2.44,2.44V46.63a2.45,2.45,0,0,1-2.44,2.44h0a2.45,2.45,0,0,1-2.44-2.44V5.89a2.45,2.45,0,0,0-2.44-2.44h0a2.45,2.45,0,0,0-2.44,2.44V46.63a2.45,2.45,0,0,1-2.44,2.44h0a2.45,2.45,0,0,1-2.44-2.44V5.89A2.45,2.45,0,0,0,262,3.45h0a2.45,2.45,0,0,0-2.44,2.44V49.08"/><path class="cls-1" d="M410.57,49.45h-94a3,3,0,0,0-3-3V4.95a3,3,0,0,0,3-3h94a3,3,0,0,0,3,3v41.5A3,3,0,0,0,410.57,49.45Z"/><path class="cls-7" d="M327.57,28.07h72a4,4,0,0,1,4,4h0a4,4,0,0,1-4,4h-72a4,4,0,0,1-4-4h0A4,4,0,0,1,327.57,28.07Z"/><path class="cls-7" d="M327.57,14.95h72a4,4,0,0,1,4,4h0a4,4,0,0,1-4,4h-72a4,4,0,0,1-4-4h0A4,4,0,0,1,327.57,14.95Z"/><rect class="cls-1" x="259.57" y="60.34" width="39.04" height="27.35" rx="9.11" ry="9.11"/><circle class="cls-1" cx="318.57" cy="59.45" r="5"/><circle class="cls-1" cx="410.07" cy="59.45" r="5"/><line class="cls-3" x1="328.57" y1="56.62" x2="400.07" y2="56.62"/><line class="cls-3" x1="328.57" y1="61.62" x2="400.07" y2="61.62"/><rect class="cls-1" x="161.16" y="60.81" width="20.62" height="28.8"/><circle class="cls-8" cx="171.47" cy="75.22" r="5.07"/><rect class="cls-1" x="426.91" y="5.01" width="7.76" height="7.76"/><rect class="cls-1" x="436.91" y="5.01" width="7.76" height="7.76"/><rect class="cls-1" x="446.91" y="5.01" width="7.76" height="7.76"/><rect class="cls-1" x="456.91" y="5.01" width="7.76" height="7.76"/><rect class="cls-1" x="466.91" y="5.01" width="7.76" height="7.76"/><rect class="cls-1" x="476.91" y="5.01" width="7.76" height="7.76"/><rect class="cls-1" x="426.91" y="45.01" width="7.76" height="7.76"/><rect class="cls-1" x="436.91" y="45.01" width="7.76" height="7.76"/><rect class="cls-1" x="446.91" y="45.01" width="7.76" height="7.76"/><rect class="cls-1" x="456.91" y="45.01" width="7.76" height="7.76"/><rect class="cls-1" x="466.91" y="45.01" width="7.76" height="7.76"/><rect class="cls-1" x="426.91" y="15.01" width="7.76" height="7.76"/><rect class="cls-1" x="436.91" y="15.01" width="7.76" height="7.76"/><rect class="cls-1" x="446.91" y="15.01" width="7.76" height="7.76"/><rect class="cls-1" x="456.91" y="15.01" width="7.76" height="7.76"/><rect class="cls-1" x="466.91" y="15.01" width="7.76" height="7.76"/><rect class="cls-1" x="476.91" y="15.01" width="7.76" height="7.76"/><rect class="cls-1" x="426.91" y="55.01" width="7.76" height="7.76"/><rect class="cls-1" x="436.91" y="55.01" width="7.76" height="7.76"/><rect class="cls-9" x="446.91" y="55.01" width="7.76" height="7.76"/><rect class="cls-1" x="456.91" y="55.01" width="7.76" height="7.76"/><rect class="cls-1" x="466.91" y="55.01" width="7.76" height="7.76"/><rect class="cls-1" x="426.91" y="25.01" width="7.76" height="7.76"/><rect class="cls-1" x="436.91" y="25.01" width="7.76" height="7.76"/><rect class="cls-1" x="446.91" y="25.01" width="7.76" height="7.76"/><rect class="cls-1" x="456.91" y="25.01" width="7.76" height="7.76"/><rect class="cls-1" x="466.91" y="25.01" width="7.76" height="7.76"/><rect class="cls-1" x="476.91" y="25.01" width="7.76" height="7.76"/><rect class="cls-1" x="426.91" y="65.01" width="7.76" height="7.76"/><rect class="cls-1" x="436.91" y="65.01" width="7.76" height="7.76"/><rect class="cls-1" x="446.91" y="65.01" width="7.76" height="7.76"/><rect class="cls-1" x="456.91" y="65.01" width="7.76" height="7.76"/><rect class="cls-1" x="466.91" y="65.01" width="7.76" height="7.76"/><rect class="cls-1" x="426.91" y="35.01" width="7.76" height="7.76"/><rect class="cls-1" x="436.91" y="35.01" width="7.76" height="7.76"/><rect class="cls-1" x="446.91" y="35.01" width="7.76" height="7.76"/><rect class="cls-1" x="456.91" y="35.01" width="7.76" height="7.76"/><rect class="cls-1" x="466.91" y="35.01" width="7.76" height="7.76"/><rect class="cls-1" x="476.91" y="35.01" width="7.76" height="7.76"/><rect class="cls-1" x="426.91" y="75.01" width="7.76" height="7.76"/><rect class="cls-1" x="436.91" y="75.01" width="7.76" height="7.76"/><rect class="cls-1" x="446.91" y="75.01" width="7.76" height="7.76"/><rect class="cls-1" x="456.91" y="75.01" width="7.76" height="7.76"/><rect class="cls-1" x="466.91" y="75.01" width="7.76" height="7.76"/><rect class="cls-1" x="426.91" y="85.01" width="7.76" height="7.76"/><rect class="cls-1" x="436.91" y="85.01" width="7.76" height="7.76"/><rect class="cls-1" x="446.91" y="85.01" width="7.76" height="7.76"/><rect class="cls-1" x="456.91" y="85.01" width="7.76" height="7.76"/><rect class="cls-1" x="466.91" y="85.01" width="7.76" height="7.76"/></svg>