<svg id="Layer_1" data-name="Layer 1" xmlns="http://www.w3.org/2000/svg" viewBox="0 0 485 110"><defs><style>.cls-1{fill:#fff;}.cls-2{fill:#fffc78;}.cls-3{fill:#ee6055;}</style></defs><title>03</title><rect class="cls-1" x="3.25" y="4.63" width="100.74" height="100.74"/><circle class="cls-2" cx="53.62" cy="55" r="40.29"/><rect class="cls-1" x="114.06" y="4.63" width="100.74" height="100.74"/><circle class="cls-2" cx="164.43" cy="55" r="40.29"/><circle class="cls-1" cx="229.91" cy="9.67" r="5.04"/><circle class="cls-1" cx="245.02" cy="9.67" r="5.04"/><circle class="cls-1" cx="260.13" cy="9.67" r="5.04"/><circle class="cls-1" cx="275.24" cy="9.67" r="5.04"/><circle class="cls-1" cx="290.35" cy="9.67" r="5.04"/><circle class="cls-1" cx="305.46" cy="9.67" r="5.04"/><circle class="cls-1" cx="229.91" cy="24.78" r="5.04"/><circle class="cls-1" cx="245.02" cy="24.78" r="5.04"/><circle class="cls-1" cx="260.13" cy="24.78" r="5.04"/><circle class="cls-1" cx="275.24" cy="24.78" r="5.04"/><circle class="cls-1" cx="290.35" cy="24.78" r="5.04"/><circle class="cls-1" cx="305.46" cy="24.78" r="5.04"/><circle class="cls-1" cx="229.91" cy="39.89" r="5.04"/><circle class="cls-1" cx="245.02" cy="39.89" r="5.04"/><circle class="cls-1" cx="260.13" cy="39.89" r="5.04"/><circle class="cls-1" cx="275.24" cy="39.89" r="5.04"/><circle class="cls-1" cx="290.35" cy="39.89" r="5.04"/><circle class="cls-1" cx="305.46" cy="39.89" r="5.04"/><circle class="cls-1" cx="229.91" cy="55" r="5.04"/><circle class="cls-1" cx="245.02" cy="55" r="5.04"/><circle class="cls-1" cx="260.13" cy="55" r="5.04"/><circle class="cls-1" cx="275.24" cy="55" r="5.04"/><circle class="cls-1" cx="290.35" cy="55" r="5.04"/><circle class="cls-1" cx="305.46" cy="55" r="5.04"/><circle class="cls-1" cx="229.91" cy="70.11" r="5.04"/><circle class="cls-1" cx="245.02" cy="70.11" r="5.04"/><circle class="cls-1" cx="260.13" cy="70.11" r="5.04"/><circle class="cls-1" cx="275.24" cy="70.11" r="5.04"/><circle class="cls-1" cx="290.35" cy="70.11" r="5.04"/><circle class="cls-1" cx="305.46" cy="70.11" r="5.04"/><circle class="cls-1" cx="229.91" cy="85.22" r="5.04"/><circle class="cls-1" cx="245.02" cy="85.22" r="5.04"/><circle class="cls-1" cx="260.13" cy="85.22" r="5.04"/><circle class="cls-1" cx="275.24" cy="85.22" r="5.04"/><circle class="cls-1" cx="290.35" cy="85.22" r="5.04"/><circle class="cls-1" cx="305.46" cy="85.22" r="5.04"/><circle class="cls-1" cx="229.91" cy="100.33" r="5.04"/><circle class="cls-1" cx="245.02" cy="100.33" r="5.04"/><circle class="cls-1" cx="260.13" cy="100.33" r="5.04"/><circle class="cls-1" cx="275.24" cy="100.33" r="5.04"/><circle class="cls-1" cx="290.35" cy="100.33" r="5.04"/><circle class="cls-1" cx="305.46" cy="100.33" r="5.04"/><rect class="cls-1" x="320.57" y="4.63" width="100.74" height="17.63"/><rect class="cls-1" x="320.57" y="32.33" width="100.74" height="17.63"/><polygon class="cls-3" points="409.52 60.04 320.57 60.04 320.57 105.37 421.31 105.37 421.31 71.83 409.52 60.04"/><circle class="cls-1" cx="456.57" cy="28.56" r="25.18"/><circle class="cls-1" cx="443.13" cy="86.48" r="6.71"/><circle class="cls-1" cx="469.99" cy="86.48" r="6.71"/><circle class="cls-1" cx="456.57" cy="73.05" r="6.71"/><circle class="cls-1" cx="456.57" cy="99.91" r="6.71"/></svg>