<svg id="Layer_1" data-name="Layer 1" xmlns="http://www.w3.org/2000/svg" viewBox="0 0 485 94"><defs><style>.cls-1{fill:#fff;}.cls-2{fill:none;stroke:#fff;stroke-linecap:round;stroke-linejoin:round;stroke-width:1px;}.cls-3{fill:#f5f5f5;}</style></defs><title>04</title><circle class="cls-1" cx="207.09" cy="11.62" r="9.76"/><circle class="cls-1" cx="234.43" cy="11.62" r="9.76"/><circle class="cls-1" cx="234.43" cy="37.78" r="9.76"/><path class="cls-2" d="M298.62,3.45V46.63a2.45,2.45,0,0,1-2.44,2.44h0a2.45,2.45,0,0,1-2.44-2.44V5.89a2.45,2.45,0,0,0-2.44-2.44h0a2.45,2.45,0,0,0-2.44,2.44V46.63a2.45,2.45,0,0,1-2.44,2.44h0A2.45,2.45,0,0,1,284,46.63V5.89a2.45,2.45,0,0,0-2.44-2.44h0a2.45,2.45,0,0,0-2.44,2.44V46.63a2.45,2.45,0,0,1-2.44,2.44h0a2.45,2.45,0,0,1-2.44-2.44V5.89a2.45,2.45,0,0,0-2.44-2.44h0a2.45,2.45,0,0,0-2.44,2.44V46.63a2.45,2.45,0,0,1-2.44,2.44h0a2.45,2.45,0,0,1-2.44-2.44V5.89A2.45,2.45,0,0,0,262,3.45h0a2.45,2.45,0,0,0-2.44,2.44V49.08"/><path class="cls-1" d="M410.57,49.45h-94a3,3,0,0,0-3-3V4.95a3,3,0,0,0,3-3h94a3,3,0,0,0,3,3v41.5A3,3,0,0,0,410.57,49.45Z"/><path class="cls-3" d="M327.57,28.07h72a4,4,0,0,1,4,4h0a4,4,0,0,1-4,4h-72a4,4,0,0,1-4-4h0A4,4,0,0,1,327.57,28.07Z"/><path class="cls-3" d="M327.57,14.95h72a4,4,0,0,1,4,4h0a4,4,0,0,1-4,4h-72a4,4,0,0,1-4-4h0A4,4,0,0,1,327.57,14.95Z"/><rect class="cls-1" x="426.91" y="5.01" width="7.76" height="7.76"/><rect class="cls-1" x="436.91" y="5.01" width="7.76" height="7.76"/><rect class="cls-1" x="446.91" y="5.01" width="7.76" height="7.76"/><rect class="cls-1" x="456.91" y="5.01" width="7.76" height="7.76"/><rect class="cls-1" x="466.91" y="5.01" width="7.76" height="7.76"/><rect class="cls-1" x="476.91" y="5.01" width="7.76" height="7.76"/><rect class="cls-1" x="426.91" y="15.01" width="7.76" height="7.76"/><rect class="cls-1" x="436.91" y="15.01" width="7.76" height="7.76"/><rect class="cls-1" x="456.91" y="15.01" width="7.76" height="7.76"/><rect class="cls-1" x="466.91" y="15.01" width="7.76" height="7.76"/><rect class="cls-1" x="476.91" y="15.01" width="7.76" height="7.76"/><rect class="cls-1" x="436.91" y="25.01" width="7.76" height="7.76"/><rect class="cls-1" x="456.91" y="25.01" width="7.76" height="7.76"/></svg>