<svg id="Layer_1" data-name="Layer 1" xmlns="http://www.w3.org/2000/svg" viewBox="0 0 485 251"><defs><style>.cls-1{fill:#fff;}.cls-2{fill:#ddd;}.cls-3{fill:#f5f5f5;}.cls-4,.cls-5,.cls-7,.cls-9{fill:none;}.cls-4,.cls-9{stroke:#fff;}.cls-4,.cls-7,.cls-9{stroke-linecap:round;stroke-linejoin:round;}.cls-4,.cls-7{stroke-width:1px;}.cls-5,.cls-7{stroke:#f5f5f5;}.cls-5{stroke-miterlimit:10;}.cls-5,.cls-9{stroke-width:2px;}.cls-6{fill:#ee6055;}.cls-8{fill:#201e1e;}.cls-10{fill:#fffc78;}.cls-11{fill:#fd812d;}</style></defs><title>05</title><rect class="cls-1" x="291.63" y="112.36" width="46.44" height="46.44"/><circle class="cls-2" cx="314.84" cy="135.57" r="18.57"/><rect class="cls-1" x="3.05" y="2.36" width="100" height="100"/><circle class="cls-3" cx="15.55" cy="14.86" r="5"/><circle class="cls-3" cx="30.55" cy="14.86" r="5"/><circle class="cls-3" cx="45.55" cy="14.86" r="5"/><circle class="cls-3" cx="60.55" cy="14.86" r="5"/><circle class="cls-3" cx="75.55" cy="14.86" r="5"/><circle class="cls-3" cx="90.55" cy="14.86" r="5"/><circle class="cls-3" cx="15.55" cy="29.86" r="5"/><circle class="cls-3" cx="30.55" cy="29.86" r="5"/><circle class="cls-3" cx="45.55" cy="29.86" r="5"/><circle class="cls-3" cx="60.55" cy="29.86" r="5"/><circle class="cls-3" cx="75.55" cy="29.86" r="5"/><circle class="cls-3" cx="90.55" cy="29.86" r="5"/><circle class="cls-3" cx="15.55" cy="44.86" r="5"/><circle class="cls-3" cx="30.55" cy="44.86" r="5"/><circle class="cls-3" cx="45.55" cy="44.86" r="5"/><circle class="cls-3" cx="60.55" cy="44.86" r="5"/><circle class="cls-3" cx="75.55" cy="44.86" r="5"/><circle class="cls-3" cx="90.55" cy="44.86" r="5"/><circle class="cls-3" cx="15.55" cy="59.86" r="5"/><circle class="cls-3" cx="30.55" cy="59.86" r="5"/><circle class="cls-3" cx="45.55" cy="59.86" r="5"/><circle class="cls-3" cx="60.55" cy="59.86" r="5"/><circle class="cls-3" cx="75.55" cy="59.86" r="5"/><circle class="cls-3" cx="90.55" cy="59.86" r="5"/><circle class="cls-3" cx="15.55" cy="74.86" r="5"/><circle class="cls-3" cx="30.55" cy="74.86" r="5"/><circle class="cls-3" cx="45.55" cy="74.86" r="5"/><circle class="cls-3" cx="60.55" cy="74.86" r="5"/><circle class="cls-3" cx="75.55" cy="74.86" r="5"/><circle class="cls-3" cx="90.55" cy="74.86" r="5"/><circle class="cls-3" cx="15.55" cy="89.86" r="5"/><circle class="cls-3" cx="30.55" cy="89.86" r="5"/><circle class="cls-3" cx="45.55" cy="89.86" r="5"/><circle class="cls-3" cx="60.55" cy="89.86" r="5"/><circle class="cls-3" cx="75.55" cy="89.86" r="5"/><circle class="cls-3" cx="90.55" cy="89.86" r="5"/><line class="cls-4" x1="433.69" y1="72.48" x2="433.69" y2="32.82"/><line class="cls-4" x1="423.69" y1="72.48" x2="423.69" y2="32.82"/><line class="cls-4" x1="413.69" y1="72.48" x2="413.69" y2="32.82"/><line class="cls-4" x1="403.69" y1="72.48" x2="403.69" y2="32.82"/><line class="cls-4" x1="393.69" y1="72.48" x2="393.69" y2="32.82"/><line class="cls-4" x1="383.69" y1="72.48" x2="383.69" y2="32.82"/><line class="cls-4" x1="373.69" y1="72.48" x2="373.69" y2="32.82"/><line class="cls-4" x1="363.69" y1="72.48" x2="363.69" y2="32.82"/><line class="cls-4" x1="353.69" y1="72.48" x2="353.69" y2="32.82"/><line class="cls-4" x1="438.69" y1="72.48" x2="438.69" y2="32.82"/><line class="cls-4" x1="428.69" y1="72.48" x2="428.69" y2="32.82"/><line class="cls-4" x1="418.69" y1="72.48" x2="418.69" y2="32.82"/><line class="cls-4" x1="408.69" y1="72.48" x2="408.69" y2="32.82"/><line class="cls-4" x1="398.69" y1="72.48" x2="398.69" y2="32.82"/><line class="cls-4" x1="388.69" y1="72.48" x2="388.69" y2="32.82"/><line class="cls-4" x1="378.69" y1="72.48" x2="378.69" y2="32.82"/><line class="cls-4" x1="368.69" y1="72.48" x2="368.69" y2="32.82"/><line class="cls-4" x1="358.69" y1="72.48" x2="358.69" y2="32.82"/><line class="cls-4" x1="348.69" y1="72.48" x2="348.69" y2="32.82"/><line class="cls-4" x1="343.69" y1="72.48" x2="343.69" y2="32.82"/><rect class="cls-1" x="251.39" y="2.36" width="86.67" height="99.94"/><polygon class="cls-5" points="271.39 12.36 328.06 12.36 328.06 92.3 261.39 92.3 261.39 22.36 271.39 12.36"/><polygon class="cls-5" points="261.39 12.36 261.39 15.95 265.06 12.28 261.39 12.36"/><rect class="cls-1" x="197.56" y="3.86" width="12.3" height="28.66"/><rect class="cls-6" x="214.86" y="3.86" width="4.97" height="28.66"/><rect class="cls-1" x="170.39" y="60.22" width="22.17" height="42.14"/><line class="cls-4" x1="171.89" y1="54.48" x2="171.89" y2="3.86"/><line class="cls-4" x1="176.89" y1="54.48" x2="176.89" y2="3.86"/><line class="cls-4" x1="181.89" y1="54.48" x2="181.89" y2="3.86"/><line class="cls-4" x1="186.89" y1="54.48" x2="186.89" y2="3.86"/><line class="cls-4" x1="191.89" y1="54.48" x2="191.89" y2="3.86"/><line class="cls-4" x1="198.71" y1="102.36" x2="198.71" y2="38.46"/><line class="cls-4" x1="203.71" y1="102.36" x2="203.71" y2="38.46"/><line class="cls-4" x1="208.71" y1="102.36" x2="208.71" y2="38.46"/><polygon class="cls-1" points="214.86 38.47 214.86 102.36 246.39 102.36 246.39 3.86 224.83 3.86 224.83 38.47 214.86 38.47"/><rect class="cls-1" x="61.72" y="112.36" width="41.34" height="18"/><circle class="cls-3" cx="72.05" cy="121.36" r="5.33"/><line class="cls-7" x1="82.38" y1="126.69" x2="82.38" y2="116.02"/><line class="cls-7" x1="87.38" y1="126.69" x2="87.38" y2="116.02"/><line class="cls-7" x1="92.38" y1="126.69" x2="92.38" y2="116.02"/><line class="cls-7" x1="97.38" y1="126.69" x2="97.38" y2="116.02"/><rect class="cls-1" x="61.72" y="181.91" width="41.34" height="18"/><circle class="cls-3" cx="92.72" cy="190.91" r="5.33"/><line class="cls-7" x1="82.38" y1="185.57" x2="82.38" y2="196.24"/><line class="cls-7" x1="77.38" y1="185.57" x2="77.38" y2="196.24"/><line class="cls-7" x1="72.38" y1="185.57" x2="72.38" y2="196.24"/><line class="cls-7" x1="67.38" y1="185.57" x2="67.38" y2="196.24"/><rect class="cls-1" x="61.72" y="158.91" width="41.34" height="18"/><line class="cls-7" x1="82.38" y1="173.24" x2="82.38" y2="162.57"/><line class="cls-7" x1="77.38" y1="173.24" x2="77.38" y2="162.57"/><line class="cls-7" x1="72.38" y1="173.24" x2="72.38" y2="162.57"/><line class="cls-7" x1="67.38" y1="173.24" x2="67.38" y2="162.57"/><line class="cls-7" x1="87.38" y1="173.24" x2="87.38" y2="162.57"/><line class="cls-7" x1="92.38" y1="173.24" x2="92.38" y2="162.57"/><line class="cls-7" x1="97.38" y1="173.24" x2="97.38" y2="162.57"/><rect class="cls-1" x="61.72" y="135.36" width="41.34" height="18"/><circle class="cls-6" cx="72.05" cy="144.36" r="5.33"/><circle class="cls-6" cx="92.72" cy="144.36" r="5.33"/><line class="cls-7" x1="82.38" y1="149.69" x2="82.38" y2="139.02"/><rect class="cls-1" x="342.85" y="1.65" width="95.44" height="19.74"/><rect class="cls-1" x="343.47" y="83.6" width="46.44" height="46.44"/><rect class="cls-3" x="354.48" y="98.03" width="24.41" height="6"/><rect class="cls-3" x="354.48" y="109.61" width="24.41" height="6"/><polygon class="cls-8" points="220.85 132.12 230.63 122.25 230.63 122.23 220.85 112.36 198.73 112.36 198.73 132.12 220.85 132.12"/><rect class="cls-1" x="170.39" y="112.36" width="22.45" height="19.76"/><line class="cls-4" x1="398.94" y1="83.6" x2="398.94" y2="130.04"/><line class="cls-4" x1="393.94" y1="83.6" x2="393.94" y2="130.04"/><line class="cls-4" x1="438.94" y1="130.04" x2="438.94" y2="83.6"/><line class="cls-4" x1="433.94" y1="130.04" x2="433.94" y2="83.6"/><rect class="cls-4" x="404.44" y="83.6" width="25" height="46.44"/><line class="cls-4" x1="429.44" y1="89.32" x2="404.44" y2="89.32"/><line class="cls-4" x1="429.44" y1="94.32" x2="404.44" y2="94.32"/><line class="cls-4" x1="429.44" y1="99.32" x2="404.44" y2="99.32"/><line class="cls-4" x1="429.44" y1="104.32" x2="404.44" y2="104.32"/><line class="cls-4" x1="429.44" y1="109.32" x2="404.44" y2="109.32"/><line class="cls-4" x1="429.44" y1="114.32" x2="404.44" y2="114.32"/><line class="cls-4" x1="429.44" y1="119.32" x2="404.44" y2="119.32"/><line class="cls-4" x1="429.44" y1="124.32" x2="404.44" y2="124.32"/><circle class="cls-1" cx="284.95" cy="206.93" r="38.94"/><path class="cls-5" d="M285,237.9a31,31,0,1,1,31-31A31,31,0,0,1,285,237.9Z"/><path class="cls-5" d="M285,230a23,23,0,1,1,23-23h0A23,23,0,0,1,285,230Z"/><path class="cls-5" d="M285,222A15.07,15.07,0,1,1,300,206.92h0A15.08,15.08,0,0,1,285,222Z"/><path class="cls-5" d="M285,214a7.11,7.11,0,1,1,7.11-7.11h0A7.12,7.12,0,0,1,285,214Z"/><polyline class="cls-9" points="451.07 32.96 479.07 45.13 451.07 57.29 479.07 69.46 451.07 81.63 479.07 93.8 451.07 105.96 479.07 118.13 451.07 130.3"/><rect class="cls-1" x="240.19" y="112.36" width="46.44" height="46.44"/><polygon class="cls-10" points="244.54 140.32 263.41 121.45 282.27 140.32 244.54 140.32"/><rect class="cls-10" x="244.54" y="144.19" width="37.73" height="5.5"/><rect class="cls-1" x="174.35" y="142.11" width="2.08" height="11.79"/><rect class="cls-1" x="172.26" y="153.91" width="2.08" height="11.79"/><rect class="cls-1" x="178.52" y="142.11" width="2.08" height="11.79"/><rect class="cls-1" x="176.44" y="153.91" width="2.08" height="11.79"/><rect class="cls-1" x="182.69" y="142.11" width="2.08" height="11.79"/><rect class="cls-1" x="180.61" y="153.91" width="2.08" height="11.79"/><rect class="cls-1" x="186.86" y="142.11" width="2.08" height="11.79"/><rect class="cls-1" x="170.18" y="142.11" width="2.08" height="11.79"/><rect class="cls-1" x="184.78" y="153.91" width="2.08" height="11.79"/><rect class="cls-1" x="188.95" y="153.91" width="2.08" height="11.79"/><rect class="cls-1" x="195.21" y="142.11" width="2.08" height="11.79"/><rect class="cls-1" x="193.12" y="153.91" width="2.08" height="11.79"/><rect class="cls-1" x="199.38" y="142.11" width="2.08" height="11.79"/><rect class="cls-1" x="197.29" y="153.91" width="2.08" height="11.79"/><rect class="cls-1" x="203.55" y="142.11" width="2.08" height="11.79"/><rect class="cls-1" x="201.46" y="153.91" width="2.08" height="11.79"/><rect class="cls-1" x="207.72" y="142.11" width="2.08" height="11.79"/><rect class="cls-1" x="191.04" y="142.11" width="2.08" height="11.79"/><rect class="cls-1" x="205.63" y="153.91" width="2.08" height="11.79"/><circle class="cls-1" cx="136.72" cy="142.03" r="26.67"/><path class="cls-11" d="M479.64,172.8h-31.5V141.3h31.5v31.5m1,1V140.3h-33.5v33.5Z"/><rect class="cls-11" x="457.14" y="150.3" width="13.5" height="13.5"/><polygon class="cls-1" points="482.14 181.18 445.64 181.18 463.89 199.43 482.14 181.18"/><polygon class="cls-1" points="482.14 199.49 445.64 199.49 463.89 217.74 482.14 199.49"/><polygon class="cls-1" points="21.24 112.36 9.86 112.36 4.17 122.22 9.86 132.07 21.24 132.07 26.94 122.22 21.24 112.36"/><polygon class="cls-1" points="52.91 127.91 52.91 116.53 43.05 110.83 33.19 116.53 33.19 127.91 43.05 133.6 52.91 127.91"/><line class="cls-4" x1="28.55" y1="176.91" x2="28.55" y2="141.69"/><line class="cls-4" x1="33.55" y1="176.91" x2="33.55" y2="141.69"/><line class="cls-4" x1="38.55" y1="176.91" x2="38.55" y2="141.69"/><line class="cls-4" x1="43.55" y1="176.91" x2="43.55" y2="141.69"/><line class="cls-4" x1="48.55" y1="176.91" x2="48.55" y2="141.69"/><line class="cls-4" x1="53.55" y1="176.91" x2="53.55" y2="141.69"/><line class="cls-4" x1="23.55" y1="171.91" x2="23.55" y2="141.69"/><line class="cls-4" x1="13.55" y1="161.91" x2="13.55" y2="141.69"/><line class="cls-4" x1="8.55" y1="156.91" x2="8.55" y2="141.69"/><line class="cls-4" x1="3.55" y1="151.91" x2="3.55" y2="141.69"/><line class="cls-4" x1="18.55" y1="166.91" x2="18.55" y2="141.69"/><line class="cls-4" x1="53.55" y1="199.91" x2="28.55" y2="199.91"/><path class="cls-4" d="M17.41,183.88H50.05a4.62,4.62,0,0,1,4.63,4.63h0a4.62,4.62,0,0,1-4.63,4.63H17.41a4.62,4.62,0,0,1-4.63-4.63h0A4.62,4.62,0,0,1,17.41,183.88Z"/><circle class="cls-4" cx="18.05" cy="188.51" r="2.5"/><circle class="cls-4" cx="49.05" cy="188.51" r="2.5"/><polygon class="cls-1" points="484.13 21.66 463.41 1.92 463.07 1.92 463.07 21.66 484.13 21.66"/><line class="cls-4" x1="442.71" y1="1.92" x2="442.71" y2="21.66"/><line class="cls-4" x1="447.71" y1="1.92" x2="447.71" y2="21.66"/><line class="cls-4" x1="452.71" y1="1.92" x2="452.71" y2="21.66"/><line class="cls-4" x1="457.71" y1="1.92" x2="457.71" y2="21.66"/><path class="cls-1" d="M124.94,96.18v-87a5.92,5.92,0,0,0-11.84,0v87a5.92,5.92,0,1,0,11.84,0Zm-9.3-83.71A3.38,3.38,0,1,1,119,15.85a3.38,3.38,0,0,1-3.38-3.38Zm0,10.15A3.38,3.38,0,1,1,119,26a3.38,3.38,0,0,1-3.38-3.38Zm0,10.15A3.38,3.38,0,1,1,119,36.14a3.38,3.38,0,0,1-3.38-3.38Zm0,10.15A3.38,3.38,0,1,1,119,46.29a3.38,3.38,0,0,1-3.38-3.38Zm0,10.15A3.38,3.38,0,1,1,119,56.44a3.38,3.38,0,0,1-3.38-3.38Zm0,10.15A3.38,3.38,0,1,1,119,66.58a3.38,3.38,0,0,1-3.38-3.38Zm0,10.15A3.38,3.38,0,1,1,119,76.73a3.38,3.38,0,0,1-3.38-3.38Zm0,10.15A3.38,3.38,0,1,1,119,86.88a3.38,3.38,0,0,1-3.38-3.38Zm0,10.15A3.38,3.38,0,1,1,119,97a3.38,3.38,0,0,1-3.38-3.38Z"/><path class="cls-1" d="M159,96.18v-87a5.92,5.92,0,0,0-11.84,0v87a5.92,5.92,0,0,0,11.84,0Zm-9.3-83.71a3.38,3.38,0,1,1,3.38,3.38,3.38,3.38,0,0,1-3.38-3.38Zm0,10.15A3.38,3.38,0,1,1,153.08,26a3.38,3.38,0,0,1-3.38-3.38Zm0,10.15a3.38,3.38,0,1,1,3.38,3.38,3.38,3.38,0,0,1-3.38-3.38Zm0,10.15a3.38,3.38,0,1,1,3.38,3.38,3.38,3.38,0,0,1-3.38-3.38Zm0,10.15a3.38,3.38,0,1,1,3.38,3.38,3.38,3.38,0,0,1-3.38-3.38Zm0,10.15a3.38,3.38,0,1,1,3.38,3.38,3.38,3.38,0,0,1-3.38-3.38Zm0,10.15a3.38,3.38,0,1,1,3.38,3.38,3.38,3.38,0,0,1-3.38-3.38Zm0,10.15a3.38,3.38,0,1,1,3.38,3.38,3.38,3.38,0,0,1-3.38-3.38Zm0,10.15A3.38,3.38,0,1,1,153.08,97a3.38,3.38,0,0,1-3.38-3.38Z"/><path class="cls-11" d="M141.86,96.18v-87a5.92,5.92,0,0,0-11.84,0v87a5.92,5.92,0,0,0,11.84,0Zm-9.3-83.71a3.38,3.38,0,1,1,3.38,3.38,3.38,3.38,0,0,1-3.38-3.38h0Zm0,10.15A3.38,3.38,0,1,1,135.94,26a3.38,3.38,0,0,1-3.38-3.38h0Zm0,10.15a3.38,3.38,0,1,1,3.38,3.38,3.38,3.38,0,0,1-3.38-3.38h0Zm0,10.15a3.38,3.38,0,1,1,3.38,3.38,3.38,3.38,0,0,1-3.38-3.38h0Zm0,10.15a3.38,3.38,0,1,1,3.38,3.38,3.38,3.38,0,0,1-3.38-3.38h0Zm0,10.15a3.38,3.38,0,1,1,3.38,3.38,3.38,3.38,0,0,1-3.38-3.38h0Zm0,10.15a3.38,3.38,0,1,1,3.38,3.38,3.38,3.38,0,0,1-3.38-3.38h0Zm0,10.15a3.38,3.38,0,1,1,3.38,3.38,3.38,3.38,0,0,1-3.38-3.38h0Zm0,10.15A3.38,3.38,0,1,1,135.94,97a3.38,3.38,0,0,1-3.38-3.38h0Z"/></svg>