<?xml version="1.0" encoding="UTF-8"?>
<svg width="907px" height="255px" viewBox="0 0 907 255" version="1.1" xmlns="http://www.w3.org/2000/svg" xmlns:xlink="http://www.w3.org/1999/xlink">
    <!-- Generator: Sketch 45.2 (43514) - http://www.bohemiancoding.com/sketch -->
    <title>Logotype</title>
    <desc>Created with Sketch.</desc>
    <defs></defs>
    <g id="Share-Images" stroke="none" stroke-width="1" fill="none" fill-rule="evenodd">
        <g id="Logotype" fill="#EC3332">
            <g id="Type" transform="translate(332.873239, 57.600000)">
                <path d="M392.848551,117.491053 C421.032366,117.491053 442.216326,95.5553076 442.216326,67.3776935 C442.216326,39.3891908 421.032366,17.2631448 392.848551,17.2631448 C364.855078,17.2631448 343.668739,39.3891908 343.668739,67.3776935 C343.668739,95.5553076 364.855078,117.491053 392.848551,117.491053 M392.848551,1.18985628 C430.490022,1.18985628 459.049764,29.7445041 459.049764,67.3776935 C459.049764,105.009693 430.490022,133.565531 392.848551,133.565531 C355.207079,133.565531 326.647337,105.009693 326.647337,67.3776935 C326.647337,29.7445041 355.207079,1.18985628 392.848551,1.18985628 Z M498.018044,116.166915 L530.360848,116.166915 L530.360848,18.5877579 L501.42161,18.5877579 L501.42161,3.08061451 L546.628017,3.08061451 L546.628017,116.166915 L574.055219,116.166915 L574.055219,131.674059 L498.018044,131.674059 L498.018044,116.166915 Z" id="Fill-7"></path>
                <polygon id="Fill-5" points="293.731839 74.7523285 220.152464 74.7523285 220.152464 131.673702 203.886485 131.673702 203.886485 3.0802577 220.152464 3.0802577 220.152464 59.2451851 293.731839 59.2451851 293.731839 3.0802577 309.999007 3.0802577 309.999007 131.673702 293.731839 131.673702"></polygon>
                <path d="M181.621973,124.677171 C171.975164,130.350516 160.24767,133.565412 147.763564,133.565412 C110.123282,133.565412 81.5611608,105.009575 81.5611608,67.3775745 C81.5611608,29.7443851 110.123282,1.18973735 147.763564,1.18973735 C160.24767,1.18973735 171.975164,4.40344354 181.621973,10.0767887 L181.621973,29.17824 C172.920929,21.8017019 161.193436,17.2630258 147.763564,17.2630258 C119.768902,17.2630258 98.5849418,39.3890719 98.5849418,67.3775745 C98.5849418,95.5551887 119.579749,117.490934 147.763564,117.490934 C161.193436,117.490934 173.108893,112.953447 181.621973,105.76721 L181.621973,124.677171 Z" id="Fill-2"></path>
                <polygon id="Fill-1" points="0 3.0802577 0 131.674891 69.2276635 131.674891 69.2276635 116.167748 16.2659789 116.167748 16.2659789 74.7523285 65.444601 74.7523285 65.444601 59.2451851 16.2659789 59.2451851 16.2659789 18.5862117 69.2276635 18.5862117 69.2276635 3.0802577"></polygon>
            </g>
            <g id="Logo">
                <polygon id="Fill-1" points="158.816599 87.9037897 123.353398 52.4483906 132.703662 43.100184 168.166863 78.5555831"></polygon>
                <polygon id="Fill-2" points="137.64591 188.394486 137.64591 79.6245333 131.034126 73.0142047 90.1612835 73.0142047 90.1612835 86.234862 124.422343 86.234862 124.422343 188.394486 91.3634259 188.394486 91.3634259 201.615144 165.896257 201.615144 165.896257 188.394486"></polygon>
                <path d="M127.427699,13.2201765 C64.4558719,13.2201765 13.2241678,64.4406085 13.2241678,127.39858 C13.2241678,190.356552 64.4558719,241.576984 127.427699,241.576984 C190.399526,241.576984 241.63123,190.356552 241.63123,127.39858 C241.63123,64.4406085 190.399526,13.2201765 127.427699,13.2201765 M127.427699,254.797641 C57.1636759,254.797641 0.000601071216,197.647144 0.000601071216,127.39858 C0.000601071216,57.1500169 57.1636759,-0.000480751174 127.427699,-0.000480751174 C197.691722,-0.000480751174 254.854797,57.1500169 254.854797,127.39858 C254.854797,197.647144 197.691722,254.797641 127.427699,254.797641" id="Fill-3"></path>
            </g>
        </g>
    </g>
</svg>