<svg id="Layer_1" data-name="Layer 1" xmlns="http://www.w3.org/2000/svg" viewBox="0 0 65 65">
  <defs>
    <style>
      .cls-1 {
        fill: #201e1e;
      }
    </style>
  </defs>
  <title>quote</title>
  <path class="cls-1" d="M48.75,23a4.16,4.16,0,0,0,1.17-1,1.81,1.81,0,0,0,.39-1.13,1.55,1.55,0,0,0-.16-.7,4.1,4.1,0,0,0-.39-.62,2.53,2.53,0,0,0-.62-.35,2.24,2.24,0,0,0-.78-.12,6.49,6.49,0,0,0-2.42.59,23.31,23.31,0,0,0-3.28,1.76,25,25,0,0,0-3.83,3.13,20.44,20.44,0,0,0-3,3.75,16.3,16.3,0,0,0-2,4,13.13,13.13,0,0,0-.62,3.95,11.39,11.39,0,0,0,.16,1.88,7.17,7.17,0,0,0,.55,1.8,8.64,8.64,0,0,0,.78,1.72A7.26,7.26,0,0,0,35.86,43a8.45,8.45,0,0,0,2.77,2.11,7.83,7.83,0,0,0,3.32.7,8.66,8.66,0,0,0,3.32-.62,7.24,7.24,0,0,0,2.7-2,5,5,0,0,0,.82-1.09q.35-.63.66-1.33a5.81,5.81,0,0,0,.43-1.41A8.54,8.54,0,0,0,50,38a8.72,8.72,0,0,0-.43-2.77A7.78,7.78,0,0,0,48.36,33a6.74,6.74,0,0,0-2-1.72A6.31,6.31,0,0,0,44,30.47l-.62-.08-.55-.08a2,2,0,0,1-.94-.31.74.74,0,0,1-.31-.62A2.17,2.17,0,0,1,42,28.32,12.23,12.23,0,0,1,43.2,26.8a13.58,13.58,0,0,1,2.27-1.91A26.69,26.69,0,0,1,48.75,23ZM29,23a4.16,4.16,0,0,0,1.17-1,1.81,1.81,0,0,0,.39-1.13,2,2,0,0,0-.12-.7,1.8,1.8,0,0,0-.43-.62,1.47,1.47,0,0,0-.59-.35,2.33,2.33,0,0,0-.74-.12,6.78,6.78,0,0,0-2.46.59A19.49,19.49,0,0,0,23,21.41a22,22,0,0,0-3.87,3.13,24.66,24.66,0,0,0-3,3.75,18,18,0,0,0-1.87,4,13.13,13.13,0,0,0-.62,3.95,11.39,11.39,0,0,0,.16,1.88,7.17,7.17,0,0,0,.55,1.8,7.47,7.47,0,0,0,.82,1.72A12.36,12.36,0,0,0,16.17,43a8.45,8.45,0,0,0,2.77,2.11,7.64,7.64,0,0,0,3.24.7,8.58,8.58,0,0,0,3.36-.62,7.32,7.32,0,0,0,2.66-2,6.33,6.33,0,0,0,1.48-2.42,5.81,5.81,0,0,0,.43-1.41A8.54,8.54,0,0,0,30.23,38a9.52,9.52,0,0,0-.39-2.77A6.4,6.4,0,0,0,28.59,33a5.88,5.88,0,0,0-1.87-1.72,6.31,6.31,0,0,0-2.42-.78l-.7-.08-.47-.08a2,2,0,0,1-.94-.31.74.74,0,0,1-.31-.62,2.17,2.17,0,0,1,.43-1.05,12.23,12.23,0,0,1,1.21-1.52,12.94,12.94,0,0,1,2.23-1.87A36.59,36.59,0,0,1,29,23ZM32.5,60a26.82,26.82,0,0,1-10.7-2.15A27.61,27.61,0,0,1,7.15,43.2,26.82,26.82,0,0,1,5,32.5,26.82,26.82,0,0,1,7.15,21.8,27.61,27.61,0,0,1,21.8,7.15,26.82,26.82,0,0,1,32.5,5,26.82,26.82,0,0,1,43.2,7.15,27.61,27.61,0,0,1,57.85,21.8,26.82,26.82,0,0,1,60,32.5a26.82,26.82,0,0,1-2.15,10.7A27.61,27.61,0,0,1,43.2,57.85,26.82,26.82,0,0,1,32.5,60Zm0-60A31.85,31.85,0,0,0,19.84,2.54a32.35,32.35,0,0,0-17.3,17.3A31.85,31.85,0,0,0,0,32.5,31.85,31.85,0,0,0,2.54,45.16a32.35,32.35,0,0,0,17.3,17.3A31.85,31.85,0,0,0,32.5,65a31.85,31.85,0,0,0,12.66-2.54,32.35,32.35,0,0,0,17.3-17.3A31.85,31.85,0,0,0,65,32.5a31.85,31.85,0,0,0-2.54-12.66,32.35,32.35,0,0,0-17.3-17.3A31.85,31.85,0,0,0,32.5,0Z"/>
</svg>
