<svg id="Layer_1" data-name="Layer 1" xmlns="http://www.w3.org/2000/svg" viewBox="0 0 60 48.64">
  <defs>
    <style>
      .cls-1 {
        fill: #1da1f2;
      }
    </style>
  </defs>
  <title>tweet</title>
  <path class="cls-1" d="M29.2,12.24a11.68,11.68,0,0,1,3.64-8.68A12.08,12.08,0,0,1,41.6,0a11.49,11.49,0,0,1,8.88,3.76A30.53,30.53,0,0,0,58.32.88,11.64,11.64,0,0,1,53,7.68a28.09,28.09,0,0,0,7-2,25.39,25.39,0,0,1-6.16,6.48v1.52A35.68,35.68,0,0,1,50,30,33.66,33.66,0,0,1,37.84,43.2a33.87,33.87,0,0,1-19,5.44A33.87,33.87,0,0,1,0,43.12a24.92,24.92,0,0,0,3,.16,24,24,0,0,0,15.2-5.2A11.57,11.57,0,0,1,11,35.52a12.42,12.42,0,0,1-4.2-6.08A6.23,6.23,0,0,0,9,29.76a14.55,14.55,0,0,0,3.2-.4A12.34,12.34,0,0,1,2.48,17.12,13.38,13.38,0,0,0,8,18.64,12,12,0,0,1,2.48,8.32,12.47,12.47,0,0,1,4.16,2.24Q14.24,14.48,29.6,15A9.6,9.6,0,0,1,29.2,12.24Z"/>
</svg>
