<svg id="Layer_1" data-name="Layer 1" xmlns="http://www.w3.org/2000/svg" viewBox="0 0 200 200">
  <defs>
    <style>
      .cls-1 {
        fill: #00c66b;
      }

      .cls-2 {
        fill: none;
        stroke: #00c66b;
        stroke-linecap: round;
        stroke-linejoin: round;
        stroke-width: 2px;
      }
    </style>
  </defs>
  <title>share</title>
  <g>
    <path class="cls-1" d="M123.34,13a48.05,48.05,0,0,1,48,48V139a48.05,48.05,0,0,1-48,48H76.66a48.05,48.05,0,0,1-48-48V61a48.05,48.05,0,0,1,48-48h46.68m0-2H76.66a50.06,50.06,0,0,0-50,50V139a50.06,50.06,0,0,0,50,50h46.68a50.06,50.06,0,0,0,50-50V61a50.06,50.06,0,0,0-50-50Z"/>
    <path class="cls-1" d="M123.34,23a38,38,0,0,1,38,38V139a38,38,0,0,1-38,38H76.66a38,38,0,0,1-38-38V61a38,38,0,0,1,38-38h46.68m0-2H76.66a40,40,0,0,0-40,40V139a40,40,0,0,0,40,40h46.68a40,40,0,0,0,40-40V61a40,40,0,0,0-40-40Z"/>
    <path class="cls-1" d="M123.34,33a28,28,0,0,1,28,28V139a28,28,0,0,1-28,28H76.66a28,28,0,0,1-28-28V61a28,28,0,0,1,28-28h46.68m0-2H76.66a30.09,30.09,0,0,0-30,30V139a30.09,30.09,0,0,0,30,30h46.68a30.09,30.09,0,0,0,30-30V61a30.09,30.09,0,0,0-30-30Z"/>
    <path class="cls-1" d="M123.34,43a18,18,0,0,1,18,18V139a18,18,0,0,1-18,18H76.66a18,18,0,0,1-18-18V61a18,18,0,0,1,18-18h46.68m0-2H76.66a20,20,0,0,0-20,20V139a20,20,0,0,0,20,20h46.68a20,20,0,0,0,20-20V61a20,20,0,0,0-20-20Z"/>
    <path class="cls-1" d="M123.34,53a8,8,0,0,1,8,8V139a8,8,0,0,1-8,8H76.66a8,8,0,0,1-8-8V61a8,8,0,0,1,8-8h46.68m0-2H76.66a10,10,0,0,0-10,10V139a10,10,0,0,0,10,10h46.68a10,10,0,0,0,10-10V61a10,10,0,0,0-10-10Z"/>
    <path class="cls-1" d="M121.34,63V137H78.66V63h42.68m2-2H76.66V139h46.68V61Z"/>
    <path class="cls-1" d="M111.34,73V127H88.66V73h22.68m2-2H86.66V129h26.68V71Z"/>
    <line class="cls-2" x1="99.67" y1="80.96" x2="99.67" y2="119.04"/>
  </g>
</svg>
