<svg id="Layer_1" data-name="Layer 1" xmlns="http://www.w3.org/2000/svg" viewBox="0 0 200 200">
  <defs>
    <style>
      .cls-1 {
        fill: none;
        stroke: #ee6055;
        stroke-linecap: round;
        stroke-linejoin: round;
        stroke-width: 4px;
      }

      .cls-2 {
        fill: #ee6055;
      }
    </style>
  </defs>
  <title>social</title>
  <g>
    <circle class="cls-1" cx="100" cy="100" r="87.69"/>
    <line class="cls-1" x1="100" y1="31.99" x2="100" y2="46.22"/>
    <line class="cls-1" x1="82.4" y1="34.31" x2="86.08" y2="48.06"/>
    <line class="cls-1" x1="65.99" y1="41.1" x2="73.11" y2="53.43"/>
    <line class="cls-1" x1="51.91" y1="51.91" x2="61.98" y2="61.98"/>
    <line class="cls-1" x1="41.1" y1="65.99" x2="53.43" y2="73.11"/>
    <line class="cls-1" x1="34.31" y1="82.4" x2="48.06" y2="86.08"/>
    <line class="cls-1" x1="31.99" y1="100" x2="46.22" y2="100"/>
    <line class="cls-1" x1="34.31" y1="117.6" x2="48.06" y2="113.92"/>
    <line class="cls-1" x1="41.1" y1="134.01" x2="53.43" y2="126.89"/>
    <line class="cls-1" x1="51.91" y1="148.09" x2="61.98" y2="138.02"/>
    <line class="cls-1" x1="65.99" y1="158.9" x2="73.11" y2="146.57"/>
    <line class="cls-1" x1="82.4" y1="165.69" x2="86.08" y2="151.94"/>
    <line class="cls-1" x1="100" y1="168.01" x2="100" y2="153.78"/>
    <line class="cls-1" x1="117.6" y1="165.69" x2="113.92" y2="151.94"/>
    <line class="cls-1" x1="134.01" y1="158.9" x2="126.89" y2="146.57"/>
    <line class="cls-1" x1="148.09" y1="148.09" x2="138.02" y2="138.02"/>
    <line class="cls-1" x1="158.9" y1="134.01" x2="146.57" y2="126.89"/>
    <line class="cls-1" x1="165.69" y1="117.6" x2="151.94" y2="113.92"/>
    <line class="cls-1" x1="168.01" y1="100" x2="153.78" y2="100"/>
    <line class="cls-1" x1="165.69" y1="82.4" x2="151.94" y2="86.08"/>
    <line class="cls-1" x1="158.9" y1="65.99" x2="146.57" y2="73.11"/>
    <line class="cls-1" x1="148.09" y1="51.91" x2="138.02" y2="61.98"/>
    <line class="cls-1" x1="134.01" y1="41.1" x2="126.89" y2="53.43"/>
    <line class="cls-1" x1="117.6" y1="34.31" x2="113.92" y2="48.06"/>
    <path class="cls-2" d="M136,95c0,24.31-36,38.81-36,38.81S64,121.69,64,95c0-23.35,21.43-31.63,36-17.06C113.61,64.33,136,70.7,136,95Z"/>
  </g>
</svg>
