<svg id="Layer_1" data-name="Layer 1" xmlns="http://www.w3.org/2000/svg" viewBox="0 0 200 200">
  <defs>
    <style>
      .cls-1 {
        fill: #fd812d;
      }
    </style>
  </defs>
  <title>tech</title>
  <g>
    <g>
      <rect class="cls-1" x="9.25" y="161.12" width="181.5" height="20.91" transform="translate(200 343.14) rotate(180)"/>
      <rect class="cls-1" x="9.25" y="129.53" width="181.5" height="20.91" transform="translate(200 279.97) rotate(180)"/>
    </g>
    <path class="cls-1" d="M184.35,18H15.65a6.41,6.41,0,0,1-6.41,6.41V113a6.41,6.41,0,0,1,6.41,6.41H184.35a6.41,6.41,0,0,1,6.41-6.41V24.38A6.41,6.41,0,0,1,184.35,18ZM39.14,45.74H160.86a8.54,8.54,0,1,1,0,17.08H39.14a8.54,8.54,0,1,1,0-17.08ZM160.86,90.84H39.14a8.54,8.54,0,1,1,0-17.08H160.86a8.54,8.54,0,1,1,0,17.08Z"/>
  </g>
</svg>
