<?xml version="1.0" encoding="utf-8"?>
<!-- Generator: Adobe Illustrator 21.0.0, SVG Export Plug-In . SVG Version: 6.00 Build 0)  -->
<svg version="1.1" id="Layer_1" xmlns="http://www.w3.org/2000/svg" xmlns:xlink="http://www.w3.org/1999/xlink" x="0px" y="0px"
	 viewBox="0 0 200 200" style="enable-background:new 0 0 200 200;" xml:space="preserve">
<style type="text/css">
	.st0{fill:none;stroke:#5CB7F0;stroke-width:4;stroke-linecap:round;stroke-linejoin:round;stroke-miterlimit:10;}
</style>
<title>kong</title>
<g>
	<line class="st0" x1="142.4" y1="143.5" x2="149.3" y2="143.5"/>
	<line class="st0" x1="141.1" y1="135.2" x2="147.7" y2="133"/>
	<line class="st0" x1="137.3" y1="127.7" x2="142.9" y2="123.6"/>
	<line class="st0" x1="131.4" y1="121.8" x2="135.4" y2="116.2"/>
	<line class="st0" x1="123.9" y1="118" x2="126" y2="111.4"/>
	<line class="st0" x1="115.6" y1="116.6" x2="115.6" y2="109.7"/>
	<line class="st0" x1="107.3" y1="118" x2="105.2" y2="111.4"/>
	<line class="st0" x1="99.8" y1="121.8" x2="95.8" y2="116.2"/>
	<line class="st0" x1="93.9" y1="127.7" x2="88.3" y2="123.6"/>
	<line class="st0" x1="90.1" y1="135.2" x2="83.5" y2="133"/>
	<line class="st0" x1="88.8" y1="143.5" x2="81.9" y2="143.5"/>
	<line class="st0" x1="90.1" y1="151.7" x2="83.5" y2="153.9"/>
	<line class="st0" x1="93.9" y1="159.2" x2="88.3" y2="163.3"/>
	<line class="st0" x1="99.8" y1="165.2" x2="95.8" y2="170.7"/>
	<line class="st0" x1="107.3" y1="169" x2="105.2" y2="175.5"/>
	<line class="st0" x1="115.6" y1="170.3" x2="115.6" y2="177.2"/>
	<line class="st0" x1="123.9" y1="169" x2="126" y2="175.5"/>
	<line class="st0" x1="131.4" y1="165.2" x2="135.4" y2="170.7"/>
	<line class="st0" x1="137.3" y1="159.2" x2="142.9" y2="163.3"/>
	<line class="st0" x1="141.1" y1="151.7" x2="147.7" y2="153.9"/>
</g>
<g>
	<line class="st0" x1="175.5" y1="81.9" x2="182.3" y2="83.1"/>
	<line class="st0" x1="175.5" y1="73.5" x2="182.4" y2="72.5"/>
	<line class="st0" x1="173" y1="65.5" x2="179.2" y2="62.5"/>
	<line class="st0" x1="168.1" y1="58.7" x2="173.1" y2="53.9"/>
	<line class="st0" x1="161.4" y1="53.7" x2="164.6" y2="47.6"/>
	<line class="st0" x1="153.4" y1="51.1" x2="154.6" y2="44.2"/>
	<line class="st0" x1="145" y1="51" x2="144" y2="44.2"/>
	<line class="st0" x1="137" y1="53.5" x2="134" y2="47.3"/>
	<line class="st0" x1="130.2" y1="58.4" x2="125.4" y2="53.5"/>
	<line class="st0" x1="125.2" y1="65.1" x2="119.1" y2="61.9"/>
	<line class="st0" x1="122.6" y1="73.1" x2="115.8" y2="71.9"/>
	<line class="st0" x1="122.5" y1="81.5" x2="115.7" y2="82.5"/>
	<line class="st0" x1="125" y1="89.5" x2="118.8" y2="92.5"/>
	<line class="st0" x1="129.9" y1="96.3" x2="125" y2="101.1"/>
	<line class="st0" x1="136.6" y1="101.3" x2="133.4" y2="107.4"/>
	<line class="st0" x1="144.6" y1="104" x2="143.4" y2="110.8"/>
	<line class="st0" x1="153" y1="104" x2="154" y2="110.9"/>
	<line class="st0" x1="161" y1="101.5" x2="164" y2="107.7"/>
	<line class="st0" x1="167.8" y1="96.6" x2="172.6" y2="101.6"/>
	<line class="st0" x1="172.8" y1="89.9" x2="178.9" y2="93.1"/>
</g>
<g>
	<line class="st0" x1="98.3" y1="75.8" x2="107.5" y2="77.3"/>
	<line class="st0" x1="98.4" y1="64.5" x2="107.6" y2="63.1"/>
	<line class="st0" x1="95" y1="53.7" x2="103.3" y2="49.5"/>
	<line class="st0" x1="88.4" y1="44.4" x2="95" y2="37.9"/>
	<line class="st0" x1="79.3" y1="37.7" x2="83.6" y2="29.4"/>
	<line class="st0" x1="68.5" y1="34.1" x2="70.1" y2="24.9"/>
	<line class="st0" x1="57.2" y1="34" x2="55.8" y2="24.8"/>
	<line class="st0" x1="46.4" y1="37.4" x2="42.2" y2="29.1"/>
	<line class="st0" x1="37.2" y1="44" x2="30.6" y2="37.3"/>
	<line class="st0" x1="30.4" y1="53.1" x2="22.1" y2="48.8"/>
	<line class="st0" x1="26.8" y1="63.8" x2="17.6" y2="62.3"/>
	<line class="st0" x1="26.7" y1="75.2" x2="17.5" y2="76.6"/>
	<line class="st0" x1="30.1" y1="86" x2="21.8" y2="90.1"/>
	<line class="st0" x1="36.7" y1="95.2" x2="30.1" y2="101.7"/>
	<line class="st0" x1="45.8" y1="102" x2="41.5" y2="110.2"/>
	<line class="st0" x1="56.6" y1="105.6" x2="55" y2="114.7"/>
	<line class="st0" x1="67.9" y1="105.7" x2="69.3" y2="114.9"/>
	<line class="st0" x1="78.7" y1="102.2" x2="82.9" y2="110.6"/>
	<line class="st0" x1="87.9" y1="95.7" x2="94.5" y2="102.3"/>
	<line class="st0" x1="94.7" y1="86.6" x2="103" y2="90.9"/>
</g>
</svg>
