<svg id="Layer_1" data-name="Layer 1" xmlns="http://www.w3.org/2000/svg" viewBox="0 0 200 200">
  <defs>
    <style>
      .cls-1 {
        fill: none;
        stroke: #ffc15e;
        stroke-linecap: round;
        stroke-linejoin: round;
        stroke-width: 4px;
      }
    </style>
  </defs>
  <title>world</title>
  <g>
    <circle class="cls-1" cx="100" cy="100" r="32.92"/>
    <path class="cls-1" d="M67.92,92.64c10.9.82,14.21-10.57,25-10.92s14.22,9.66,6.49,18.28c-6.76,7.54-11,9.61-7.73,18.44s-4.59,11.84-4.59,11.84"/>
    <path class="cls-1" d="M128.87,84.16c-3,.84-11.66-3.21-14,.12-4.14,5.86,12.45,15.21,3.52,24.23-6.49,6.56-2.35,9.72,6.32,13.25"/>
  </g>
  <line class="cls-1" x1="100" y1="53.03" x2="100" y2="40.2"/>
  <line class="cls-1" x1="87.84" y1="54.63" x2="84.52" y2="42.24"/>
  <line class="cls-1" x1="76.51" y1="59.32" x2="70.1" y2="48.21"/>
  <line class="cls-1" x1="66.79" y1="66.79" x2="57.71" y2="57.71"/>
  <line class="cls-1" x1="59.32" y1="76.51" x2="48.21" y2="70.1"/>
  <line class="cls-1" x1="54.63" y1="87.84" x2="42.24" y2="84.52"/>
  <line class="cls-1" x1="53.03" y1="100" x2="40.2" y2="100"/>
  <line class="cls-1" x1="54.63" y1="112.16" x2="42.24" y2="115.48"/>
  <line class="cls-1" x1="59.32" y1="123.49" x2="48.21" y2="129.9"/>
  <line class="cls-1" x1="66.79" y1="133.21" x2="57.71" y2="142.29"/>
  <line class="cls-1" x1="76.51" y1="140.68" x2="70.1" y2="151.79"/>
  <line class="cls-1" x1="87.84" y1="145.37" x2="84.52" y2="157.76"/>
  <line class="cls-1" x1="100" y1="146.97" x2="100" y2="159.8"/>
  <line class="cls-1" x1="112.16" y1="145.37" x2="115.48" y2="157.76"/>
  <line class="cls-1" x1="123.49" y1="140.68" x2="129.9" y2="151.79"/>
  <line class="cls-1" x1="133.21" y1="133.21" x2="142.29" y2="142.29"/>
  <line class="cls-1" x1="140.68" y1="123.49" x2="151.79" y2="129.9"/>
  <line class="cls-1" x1="145.37" y1="112.16" x2="157.76" y2="115.48"/>
  <line class="cls-1" x1="146.97" y1="100" x2="159.8" y2="100"/>
  <line class="cls-1" x1="145.37" y1="87.84" x2="157.76" y2="84.52"/>
  <line class="cls-1" x1="140.68" y1="76.51" x2="151.79" y2="70.1"/>
  <line class="cls-1" x1="133.21" y1="66.79" x2="142.29" y2="57.71"/>
  <line class="cls-1" x1="123.49" y1="59.32" x2="129.9" y2="48.21"/>
  <line class="cls-1" x1="112.16" y1="54.63" x2="115.48" y2="42.24"/>
</svg>
