<?xml version="1.0" encoding="UTF-8"?>
<svg width="79px" height="79px" viewBox="0 0 79 79" version="1.1" xmlns="http://www.w3.org/2000/svg" xmlns:xlink="http://www.w3.org/1999/xlink">
    <!-- Generator: Sketch 43.2 (39069) - http://www.bohemiancoding.com/sketch -->
    <title>Group</title>
    <desc>Created with Sketch.</desc>
    <defs></defs>
    <g id="Page-1" stroke="none" stroke-width="1" fill="none" fill-rule="evenodd" stroke-linecap="round" stroke-linejoin="round">
        <g id="Group" transform="translate(2.000000, 2.000000)" stroke="#EE6055" stroke-width="4">
            <path d="M37.31,0.74 L37.31,10.74" id="Shape"></path>
            <path d="M27.76,2 L30.34,11.65" id="Shape"></path>
            <path d="M18.86,5.68 L23.86,14.34" id="Shape"></path>
            <path d="M11.21,11.55 L18.28,18.62" id="Shape"></path>
            <path d="M5.35,19.19 L14.01,24.19" id="Shape"></path>
            <path d="M1.66,28.09 L11.32,30.68" id="Shape"></path>
            <path d="M0.4,37.64 L10.4,37.64" id="Shape"></path>
            <path d="M1.66,47.19 L11.32,44.61" id="Shape"></path>
            <path d="M5.35,56.1 L14.01,51.1" id="Shape"></path>
            <path d="M11.21,63.74 L18.28,56.67" id="Shape"></path>
            <path d="M18.86,69.6 L23.86,60.94" id="Shape"></path>
            <path d="M27.76,73.29 L30.34,63.63" id="Shape"></path>
            <path d="M37.31,74.55 L37.31,64.55" id="Shape"></path>
            <path d="M46.86,73.29 L44.27,63.63" id="Shape"></path>
            <path d="M55.76,69.6 L50.76,60.94" id="Shape"></path>
            <path d="M63.4,63.74 L56.33,56.67" id="Shape"></path>
            <path d="M69.27,56.1 L60.61,51.1" id="Shape"></path>
            <path d="M72.96,47.19 L63.3,44.61" id="Shape"></path>
            <path d="M74.21,37.64 L64.21,37.64" id="Shape"></path>
            <path d="M72.96,28.09 L63.3,30.68" id="Shape"></path>
            <path d="M69.27,19.19 L60.61,24.19" id="Shape"></path>
            <path d="M63.4,11.55 L56.33,18.62" id="Shape"></path>
            <path d="M55.76,5.68 L50.76,14.34" id="Shape"></path>
            <path d="M46.86,2 L44.27,11.65" id="Shape"></path>
            <circle id="Oval" cx="37.31" cy="37.64" r="14.09"></circle>
        </g>
    </g>
</svg>