<?xml version="1.0" encoding="UTF-8"?>
<svg width="951px" height="704px" viewBox="0 0 951 704" version="1.1" xmlns="http://www.w3.org/2000/svg" xmlns:xlink="http://www.w3.org/1999/xlink">
    <!-- Generator: Sketch 43.2 (39069) - http://www.bohemiancoding.com/sketch -->
    <title>Group 2</title>
    <desc>Created with Sketch.</desc>
    <defs></defs>
    <g id="Page-1" stroke="none" stroke-width="1" fill="none" fill-rule="evenodd">
        <g id="Group-2">
            <g id="Group" transform="translate(0.000000, 5.000000)" fill-rule="nonzero">
                <rect id="Rectangle-path" fill="#FFFFFF" x="0.32" y="0.82" width="200" height="200"></rect>
                <circle id="Oval" fill="#FFFC78" cx="100.32" cy="100.82" r="80"></circle>
            </g>
            <g id="Group" transform="translate(541.000000, 440.000000)" fill-rule="nonzero" fill="#00C66B">
                <path d="M35.07,4.68 C51.7766137,4.68 65.32,18.2233863 65.32,34.93 C65.32,51.6366137 51.7766137,65.18 35.07,65.18 C18.3633863,65.18 4.82,51.6366137 4.82,34.93 C4.83653716,18.230241 18.370241,4.69653716 35.07,4.68 L35.07,4.68 Z M35.07,0.68 C16.1542473,0.68 0.82,16.0142473 0.82,34.93 C0.82,53.8457527 16.1542473,69.18 35.07,69.18 C53.9857527,69.18 69.32,53.8457527 69.32,34.93 C69.32,16.0142473 53.9857527,0.68 35.07,0.68 Z" id="Shape"></path>
                <path d="M35.07,14.68 C46.2537662,14.68 55.32,23.7462338 55.32,34.93 C55.32,46.1137662 46.2537662,55.18 35.07,55.18 C23.8862338,55.18 14.82,46.1137662 14.82,34.93 C14.8310249,23.7508036 23.8908036,14.6910249 35.07,14.68 L35.07,14.68 Z M35.07,10.68 C21.6770948,10.68 10.82,21.5370948 10.82,34.93 C10.82,48.3229052 21.6770948,59.18 35.07,59.18 C48.4629052,59.18 59.32,48.3229052 59.32,34.93 C59.3034706,21.5439475 48.4560525,10.6965294 35.07,10.68 L35.07,10.68 Z" id="Shape"></path>
                <path d="M35.07,24.68 C40.7309187,24.68 45.32,29.2690813 45.32,34.93 C45.32,40.5909187 40.7309187,45.18 35.07,45.18 C29.4090813,45.18 24.82,40.5909187 24.82,34.93 C24.8255126,29.2713663 29.4113663,24.6855126 35.07,24.68 L35.07,24.68 Z M35.07,20.68 C27.1999423,20.68 20.82,27.0599423 20.82,34.93 C20.82,42.8000577 27.1999423,49.18 35.07,49.18 C42.9400577,49.18 49.32,42.8000577 49.32,34.93 C49.3089839,27.0645099 42.9354901,20.6910161 35.07,20.68 Z" id="Shape"></path>
                <path d="M35.07,34.68 C35.2080712,34.68 35.32,34.7919288 35.32,34.93 C35.32,35.0680712 35.2080712,35.18 35.07,35.18 C34.9319288,35.18 34.82,35.0680712 34.82,34.93 C34.82,34.7919288 34.9319288,34.68 35.07,34.68 L35.07,34.68 Z M35.07,30.68 C32.7227898,30.68 30.82,32.5827898 30.82,34.93 C30.82,37.2772102 32.7227898,39.18 35.07,39.18 C37.4172102,39.18 39.32,37.2772102 39.32,34.93 C39.32,32.5827898 37.4172102,30.68 35.07,30.68 Z" id="Shape"></path>
            </g>
            <rect id="Rectangle-path" fill="#FFFFFF" fill-rule="nonzero" x="630.32" y="5.82" width="200" height="35"></rect>
            <rect id="Rectangle-path" fill="#FFFFFF" fill-rule="nonzero" x="630.32" y="60.82" width="200" height="35"></rect>
            <g id="Group" transform="translate(220.000000, 5.000000)" fill-rule="nonzero">
                <rect id="Rectangle-path" fill="#FFFFFF" x="0.32" y="0.82" width="200" height="200"></rect>
                <circle id="Oval" fill="#FFFC78" cx="100.32" cy="100.82" r="80"></circle>
            </g>
            <g id="Group" transform="translate(440.000000, 5.000000)" fill-rule="nonzero" fill="#FFFFFF">
                <circle id="Oval" cx="10.32" cy="10.82" r="10"></circle>
                <circle id="Oval" cx="40.32" cy="10.82" r="10"></circle>
                <circle id="Oval" cx="70.32" cy="10.82" r="10"></circle>
                <circle id="Oval" cx="100.32" cy="10.82" r="10"></circle>
                <circle id="Oval" cx="130.32" cy="10.82" r="10"></circle>
                <circle id="Oval" cx="160.32" cy="10.82" r="10"></circle>
                <circle id="Oval" cx="10.32" cy="40.82" r="10"></circle>
                <circle id="Oval" cx="40.32" cy="40.82" r="10"></circle>
                <circle id="Oval" cx="70.32" cy="40.82" r="10"></circle>
                <circle id="Oval" cx="100.32" cy="40.82" r="10"></circle>
                <circle id="Oval" cx="130.32" cy="40.82" r="10"></circle>
                <circle id="Oval" cx="160.32" cy="40.82" r="10"></circle>
                <circle id="Oval" cx="10.32" cy="70.82" r="10"></circle>
                <circle id="Oval" cx="40.32" cy="70.82" r="10"></circle>
                <circle id="Oval" cx="70.32" cy="70.82" r="10"></circle>
                <circle id="Oval" cx="100.32" cy="70.82" r="10"></circle>
                <circle id="Oval" cx="130.32" cy="70.82" r="10"></circle>
                <circle id="Oval" cx="160.32" cy="70.82" r="10"></circle>
                <circle id="Oval" cx="10.32" cy="100.82" r="10"></circle>
                <circle id="Oval" cx="40.32" cy="100.82" r="10"></circle>
                <circle id="Oval" cx="70.32" cy="100.82" r="10"></circle>
                <circle id="Oval" cx="100.32" cy="100.82" r="10"></circle>
                <circle id="Oval" cx="130.32" cy="100.82" r="10"></circle>
                <circle id="Oval" cx="160.32" cy="100.82" r="10"></circle>
                <circle id="Oval" cx="10.32" cy="130.82" r="10"></circle>
                <circle id="Oval" cx="40.32" cy="130.82" r="10"></circle>
                <circle id="Oval" cx="70.32" cy="130.82" r="10"></circle>
                <circle id="Oval" cx="100.32" cy="130.82" r="10"></circle>
                <circle id="Oval" cx="130.32" cy="130.82" r="10"></circle>
                <circle id="Oval" cx="160.32" cy="130.82" r="10"></circle>
                <circle id="Oval" cx="10.32" cy="160.82" r="10"></circle>
                <circle id="Oval" cx="40.32" cy="160.82" r="10"></circle>
                <circle id="Oval" cx="70.32" cy="160.82" r="10"></circle>
                <circle id="Oval" cx="100.32" cy="160.82" r="10"></circle>
                <circle id="Oval" cx="130.32" cy="160.82" r="10"></circle>
                <circle id="Oval" cx="160.32" cy="160.82" r="10"></circle>
                <circle id="Oval" cx="10.32" cy="190.82" r="10"></circle>
                <circle id="Oval" cx="40.32" cy="190.82" r="10"></circle>
                <circle id="Oval" cx="70.32" cy="190.82" r="10"></circle>
                <circle id="Oval" cx="100.32" cy="190.82" r="10"></circle>
                <circle id="Oval" cx="130.32" cy="190.82" r="10"></circle>
                <circle id="Oval" cx="160.32" cy="190.82" r="10"></circle>
            </g>
            <path d="M220.32,239.5 C241.99,239.5 241.99,319.5 263.65,319.5 C285.31,319.5 285.32,239.5 306.98,239.5 C328.64,239.5 328.64,319.5 350.31,319.5 C371.98,319.5 371.98,239.5 393.64,239.5 C415.3,239.5 415.31,319.5 436.97,319.5 C458.63,319.5 458.64,239.5 480.3,239.5 C501.96,239.5 501.97,319.5 523.63,319.5 C545.29,319.5 545.3,239.5 566.97,239.5 C588.64,239.5 588.64,319.5 610.31,319.5" id="Shape" stroke="#FFFFFF" stroke-width="4" stroke-linecap="round" stroke-linejoin="round"></path>
            <g id="Group" transform="translate(230.000000, 352.000000)" fill-rule="nonzero">
                <rect id="Rectangle-path" fill="#BABABA" x="10.32" y="0.08" width="5.16" height="63.84" rx="2.58"></rect>
                <rect id="Rectangle-path" fill="#BABABA" x="20.32" y="0.08" width="5.16" height="63.84" rx="2.58"></rect>
                <rect id="Rectangle-path" fill="#BABABA" x="30.32" y="0.08" width="5.16" height="63.84" rx="2.58"></rect>
                <rect id="Rectangle-path" fill="#BABABA" x="40.32" y="0.08" width="5.16" height="63.84" rx="2.58"></rect>
                <rect id="Rectangle-path" fill="#BABABA" x="50.32" y="0.08" width="5.16" height="63.84" rx="2.58"></rect>
                <rect id="Rectangle-path" fill="#BABABA" x="60.32" y="0.08" width="5.16" height="63.84" rx="2.58"></rect>
                <rect id="Rectangle-path" fill="#BABABA" x="70.32" y="0.08" width="5.16" height="63.84" rx="2.58"></rect>
                <rect id="Rectangle-path" fill="#201E1E" x="0.32" y="12.96" width="85.16" height="38.09"></rect>
                <rect id="Rectangle-path" fill="#BABABA" x="105.58" y="0.18" width="5.16" height="63.84" rx="2.58"></rect>
                <rect id="Rectangle-path" fill="#BABABA" x="115.58" y="0.18" width="5.16" height="63.84" rx="2.58"></rect>
                <rect id="Rectangle-path" fill="#BABABA" x="125.58" y="0.18" width="5.16" height="63.84" rx="2.58"></rect>
                <rect id="Rectangle-path" fill="#BABABA" x="135.58" y="0.18" width="5.16" height="63.84" rx="2.58"></rect>
                <rect id="Rectangle-path" fill="#BABABA" x="145.58" y="0.18" width="5.16" height="63.84" rx="2.58"></rect>
                <rect id="Rectangle-path" fill="#BABABA" x="155.58" y="0.18" width="5.16" height="63.84" rx="2.58"></rect>
                <rect id="Rectangle-path" fill="#BABABA" x="165.58" y="0.18" width="5.16" height="63.84" rx="2.58"></rect>
                <rect id="Rectangle-path" fill="#201E1E" x="95.58" y="13.06" width="85.16" height="38.09"></rect>
            </g>
            <g id="Group" transform="translate(440.000000, 353.000000)" fill-rule="nonzero" fill="#FFFFFF">
                <rect id="Rectangle-path" x="0.32" y="0.18" width="170" height="6" rx="2.85"></rect>
                <rect id="Rectangle-path" x="0.32" y="10.18" width="170" height="6" rx="2.85"></rect>
                <rect id="Rectangle-path" x="0.32" y="20.18" width="170" height="6" rx="2.85"></rect>
                <rect id="Rectangle-path" x="0.32" y="30.18" width="170" height="6" rx="2.85"></rect>
                <rect id="Rectangle-path" x="0.32" y="40.18" width="170" height="6" rx="2.85"></rect>
                <rect id="Rectangle-path" x="0.32" y="50.18" width="170" height="6" rx="2.85"></rect>
                <rect id="Rectangle-path" x="0.32" y="60.18" width="170" height="6" rx="2.85"></rect>
            </g>
            <g id="Group" transform="translate(443.000000, 436.000000)" fill-rule="nonzero" fill="#5CB7F0">
                <polygon id="Shape" points="2.52 73.98 2.52 5.56 70.94 73.98"></polygon>
                <path d="M4.52,10.39 L66.11,72 L4.52,72 L4.52,10.39 L4.52,10.39 Z M0.52,0.73 L0.52,76 L75.76,76 L68.93,69.17 L7.34,7.58 L0.51,0.75 L0.52,0.73 Z" id="Shape"></path>
            </g>
            <polygon id="Shape" fill="#EE6055" fill-rule="nonzero" points="806.91 115.82 630.32 115.82 630.32 205.82 830.32 205.82 830.32 139.23"></polygon>
            <circle id="Oval" fill="#FFFFFF" fill-rule="nonzero" cx="900.32" cy="50.82" r="50"></circle>
            <g id="Group" transform="translate(680.000000, 293.000000)" fill-rule="nonzero" fill="#FFFFFF">
                <circle id="Oval" cx="13.65" cy="40.82" r="13.33"></circle>
                <circle id="Oval" cx="66.98" cy="40.82" r="13.33"></circle>
                <circle id="Oval" cx="40.32" cy="14.15" r="13.33"></circle>
                <circle id="Oval" cx="40.32" cy="67.48" r="13.33"></circle>
            </g>
            <g id="Group" transform="translate(230.000000, 440.000000)" fill-rule="nonzero" fill="#FFFFFF">
                <rect id="Rectangle-path" transform="translate(90.610000, 71.690000) rotate(90.000000) translate(-90.610000, -71.690000) " x="89.61" y="-18.31" width="2" height="180"></rect>
                <rect id="Rectangle-path" transform="translate(90.610000, 81.690000) rotate(90.000000) translate(-90.610000, -81.690000) " x="89.61" y="-8.31" width="2" height="180"></rect>
                <rect id="Rectangle-path" transform="translate(90.610000, 91.690000) rotate(90.000000) translate(-90.610000, -91.690000) " x="89.61" y="1.69" width="2" height="180"></rect>
                <rect id="Rectangle-path" transform="translate(90.610000, 101.690000) rotate(90.000000) translate(-90.610000, -101.690000) " x="89.61" y="11.69" width="2" height="180"></rect>
                <rect id="Rectangle-path" transform="translate(90.610000, 111.690000) rotate(90.000000) translate(-90.610000, -111.690000) " x="89.61" y="21.69" width="2" height="180"></rect>
                <rect id="Rectangle-path" transform="translate(90.610000, 121.690000) rotate(90.000000) translate(-90.610000, -121.690000) " x="89.61" y="31.69" width="2" height="180"></rect>
                <rect id="Rectangle-path" transform="translate(90.610000, 11.690000) rotate(90.000000) translate(-90.610000, -11.690000) " x="89.61" y="-78.31" width="2" height="180"></rect>
                <rect id="Rectangle-path" transform="translate(90.610000, 1.690000) rotate(90.000000) translate(-90.610000, -1.690000) " x="89.61" y="-88.31" width="2" height="180"></rect>
                <rect id="Rectangle-path" transform="translate(90.610000, 21.690000) rotate(90.000000) translate(-90.610000, -21.690000) " x="89.61" y="-68.31" width="2" height="180"></rect>
                <rect id="Rectangle-path" transform="translate(90.610000, 31.690000) rotate(90.000000) translate(-90.610000, -31.690000) " x="89.61" y="-58.31" width="2" height="180"></rect>
                <rect id="Rectangle-path" transform="translate(90.610000, 41.690000) rotate(90.000000) translate(-90.610000, -41.690000) " x="89.61" y="-48.31" width="2" height="180"></rect>
                <rect id="Rectangle-path" transform="translate(90.610000, 51.690000) rotate(90.000000) translate(-90.610000, -51.690000) " x="89.61" y="-38.31" width="2" height="180"></rect>
                <rect id="Rectangle-path" transform="translate(90.610000, 61.690000) rotate(90.000000) translate(-90.610000, -61.690000) " x="89.61" y="-28.31" width="2" height="180"></rect>
                <rect id="Rectangle-path" transform="translate(90.610000, 131.690000) rotate(90.000000) translate(-90.610000, -131.690000) " x="89.61" y="41.69" width="2" height="180"></rect>
                <rect id="Rectangle-path" transform="translate(90.610000, 141.690000) rotate(90.000000) translate(-90.610000, -141.690000) " x="89.61" y="51.69" width="2" height="180"></rect>
                <rect id="Rectangle-path" transform="translate(90.610000, 151.690000) rotate(90.000000) translate(-90.610000, -151.690000) " x="89.61" y="61.69" width="2" height="180"></rect>
                <rect id="Rectangle-path" transform="translate(90.610000, 161.690000) rotate(90.000000) translate(-90.610000, -161.690000) " x="89.61" y="71.69" width="2" height="180"></rect>
            </g>
            <path d="M474.32,439.18 L544.32,509.18" id="Shape" stroke="#FFFFFF" stroke-width="4" stroke-linecap="round" stroke-linejoin="round"></path>
            <polyline id="Shape" stroke="#5CB7F0" stroke-width="4" stroke-linecap="round" stroke-linejoin="round" transform="translate(807.645000, 315.500000) rotate(-270.000000) translate(-807.645000, -315.500000) " points="722.145 300.855 729.576535 330.145 737.008071 300.855 744.439606 330.145 751.871141 300.855 759.302676 330.145 766.734212 300.855 774.165747 330.145 781.604751 300.855 789.036286 330.145 796.47529 300.855 803.906826 330.145 811.338361 300.855 818.777365 330.145 826.216369 300.855 833.647905 330.145 841.086909 300.855 848.518444 330.145 855.949979 300.855 863.388983 330.145 870.827988 300.855 878.266992 330.145 885.705996 300.855 893.145 330.145"></polyline>
            <g id="Group" transform="translate(83.000000, 415.000000)">
                <circle id="Oval" stroke="#EE6055" stroke-width="4" stroke-linecap="round" stroke-linejoin="round" cx="59.32" cy="59.93" r="59"></circle>
                <path d="M59.32,14.17 L59.32,23.75" id="Shape" stroke="#EE6055" stroke-width="4" stroke-linecap="round" stroke-linejoin="round"></path>
                <path d="M47.47,15.73 L49.95,24.98" id="Shape" stroke="#EE6055" stroke-width="4" stroke-linecap="round" stroke-linejoin="round"></path>
                <path d="M36.44,20.3 L41.23,28.6" id="Shape" stroke="#EE6055" stroke-width="4" stroke-linecap="round" stroke-linejoin="round"></path>
                <path d="M26.96,27.57 L33.73,34.35" id="Shape" stroke="#EE6055" stroke-width="4" stroke-linecap="round" stroke-linejoin="round"></path>
                <path d="M19.69,37.05 L27.98,41.84" id="Shape" stroke="#EE6055" stroke-width="4" stroke-linecap="round" stroke-linejoin="round"></path>
                <path d="M15.11,48.09 L24.37,50.57" id="Shape" stroke="#EE6055" stroke-width="4" stroke-linecap="round" stroke-linejoin="round"></path>
                <path d="M13.56,59.93 L23.13,59.93" id="Shape" stroke="#EE6055" stroke-width="4" stroke-linecap="round" stroke-linejoin="round"></path>
                <path d="M15.11,71.78 L24.37,69.3" id="Shape" stroke="#EE6055" stroke-width="4" stroke-linecap="round" stroke-linejoin="round"></path>
                <path d="M19.69,82.81 L27.98,78.02" id="Shape" stroke="#EE6055" stroke-width="4" stroke-linecap="round" stroke-linejoin="round"></path>
                <path d="M26.96,92.29 L33.73,85.52" id="Shape" stroke="#EE6055" stroke-width="4" stroke-linecap="round" stroke-linejoin="round"></path>
                <path d="M36.44,99.56 L41.23,91.27" id="Shape" stroke="#EE6055" stroke-width="4" stroke-linecap="round" stroke-linejoin="round"></path>
                <path d="M47.47,104.14 L49.95,94.88" id="Shape" stroke="#EE6055" stroke-width="4" stroke-linecap="round" stroke-linejoin="round"></path>
                <path d="M59.32,105.7 L59.32,96.12" id="Shape" stroke="#EE6055" stroke-width="4" stroke-linecap="round" stroke-linejoin="round"></path>
                <path d="M71.16,104.14 L68.68,94.88" id="Shape" stroke="#EE6055" stroke-width="4" stroke-linecap="round" stroke-linejoin="round"></path>
                <path d="M82.2,99.56 L77.41,91.27" id="Shape" stroke="#EE6055" stroke-width="4" stroke-linecap="round" stroke-linejoin="round"></path>
                <path d="M91.68,92.29 L84.9,85.52" id="Shape" stroke="#EE6055" stroke-width="4" stroke-linecap="round" stroke-linejoin="round"></path>
                <path d="M98.95,82.81 L90.65,78.02" id="Shape" stroke="#EE6055" stroke-width="4" stroke-linecap="round" stroke-linejoin="round"></path>
                <path d="M103.52,71.78 L94.27,69.3" id="Shape" stroke="#EE6055" stroke-width="4" stroke-linecap="round" stroke-linejoin="round"></path>
                <path d="M105.08,59.93 L95.5,59.93" id="Shape" stroke="#EE6055" stroke-width="4" stroke-linecap="round" stroke-linejoin="round"></path>
                <path d="M103.52,48.09 L94.27,50.57" id="Shape" stroke="#EE6055" stroke-width="4" stroke-linecap="round" stroke-linejoin="round"></path>
                <path d="M98.95,37.05 L90.65,41.84" id="Shape" stroke="#EE6055" stroke-width="4" stroke-linecap="round" stroke-linejoin="round"></path>
                <path d="M91.68,27.57 L84.9,34.35" id="Shape" stroke="#EE6055" stroke-width="4" stroke-linecap="round" stroke-linejoin="round"></path>
                <path d="M82.2,20.3 L77.41,28.6" id="Shape" stroke="#EE6055" stroke-width="4" stroke-linecap="round" stroke-linejoin="round"></path>
                <path d="M71.16,15.73 L68.68,24.98" id="Shape" stroke="#EE6055" stroke-width="4" stroke-linecap="round" stroke-linejoin="round"></path>
                <circle id="Oval" fill="#EE6055" fill-rule="nonzero" cx="59.32" cy="59.93" r="22.88"></circle>
            </g>
            <rect id="Rectangle-path" fill="#FFFFFF" fill-rule="nonzero" x="0.32" y="416.18" width="58.68" height="186.5"></rect>
            <g id="Group" transform="translate(79.000000, 550.000000)" fill-rule="nonzero" fill="#DDDDDD">
                <circle id="Oval" cx="26.25" cy="46.93" r="6.25"></circle>
                <circle id="Oval" cx="46.25" cy="46.93" r="6.25"></circle>
                <circle id="Oval" cx="66.25" cy="46.93" r="6.25"></circle>
                <circle id="Oval" cx="86.25" cy="46.93" r="6.25"></circle>
                <circle id="Oval" cx="106.25" cy="46.93" r="6.25"></circle>
                <circle id="Oval" cx="6.25" cy="26.93" r="6.25"></circle>
                <circle id="Oval" cx="26.25" cy="26.93" r="6.25"></circle>
                <circle id="Oval" cx="46.25" cy="26.93" r="6.25"></circle>
                <circle id="Oval" cx="66.25" cy="26.93" r="6.25"></circle>
                <circle id="Oval" cx="86.25" cy="26.93" r="6.25"></circle>
                <circle id="Oval" cx="106.25" cy="26.93" r="6.25"></circle>
                <circle id="Oval" cx="126.25" cy="26.93" r="6.25"></circle>
                <circle id="Oval" cx="26.25" cy="6.93" r="6.25"></circle>
                <circle id="Oval" cx="46.25" cy="6.93" r="6.25"></circle>
                <circle id="Oval" cx="66.25" cy="6.93" r="6.25"></circle>
                <circle id="Oval" cx="86.25" cy="6.93" r="6.25"></circle>
                <circle id="Oval" cx="106.25" cy="6.93" r="6.25"></circle>
            </g>
            <g id="Group" transform="translate(635.000000, 522.000000)" fill-rule="nonzero">
                <polygon id="Shape" fill="#FFFFFF" points="66.71 79.34 13.24 79.34 0.32 66.42 0.32 12.95 13.24 0 66.71 0 79.63 12.92 79.63 66.39"></polygon>
                <path d="M40,21.53 C50.0239682,21.53 58.15,29.6560318 58.15,39.68 C58.15,49.7039682 50.0239682,57.83 40,57.83 C29.9760318,57.83 21.85,49.7039682 21.85,39.68 C21.8610225,29.660601 29.980601,21.5410225 40,21.53 L40,21.53 Z M40,15.53 C30.2322368,15.53 21.4262704,21.4139586 17.6883093,30.4381951 C13.9503481,39.4624316 16.0165196,49.8497772 22.9233712,56.7566288 C29.8302228,63.6634804 40.2175684,65.7296519 49.2418049,61.9916907 C58.2660414,58.2537296 64.15,49.4477632 64.15,39.68 C64.15,26.3423233 53.3376767,15.53 40,15.53 L40,15.53 Z" id="Shape" fill="#DDDDDD"></path>
            </g>
            <g id="Group" transform="translate(869.000000, 135.000000)" fill-rule="nonzero">
                <polygon id="Shape" fill="#FFFFFF" points="51.58 61.28 10.3 61.28 0.3 51.28 0.3 10 10.3 0 51.59 0 61.59 10 61.59 51.3"></polygon>
                <circle id="Oval" fill="#DDDDDD" cx="30.94" cy="30.65" r="18.65"></circle>
            </g>
            <g id="Group" transform="translate(233.000000, 623.000000)" fill-rule="nonzero">
                <polygon id="Shape" fill="#FFFFFF" points="66.63 79.5 13.16 79.5 0.24 66.58 0.24 13.11 13.16 0.19 66.63 0.19 79.55 13.11 79.55 66.58"></polygon>
                <circle id="Oval" fill="#FD812D" cx="39.9" cy="39.84" r="24.15"></circle>
            </g>
            <g id="Group" transform="translate(0.000000, 623.000000)" fill-rule="nonzero">
                <rect id="Rectangle-path" fill="#FFFFFF" x="0.32" y="0.18" width="15.51" height="15.51"></rect>
                <rect id="Rectangle-path" fill="#FFFFFF" x="20.32" y="0.18" width="15.51" height="15.51"></rect>
                <rect id="Rectangle-path" fill="#FFFFFF" x="40.32" y="0.18" width="15.51" height="15.51"></rect>
                <rect id="Rectangle-path" fill="#FFFFFF" x="60.32" y="0.18" width="15.51" height="15.51"></rect>
                <rect id="Rectangle-path" fill="#FFFFFF" x="80.32" y="0.18" width="15.51" height="15.51"></rect>
                <rect id="Rectangle-path" fill="#FFFFFF" x="100.32" y="0.18" width="15.51" height="15.51"></rect>
                <rect id="Rectangle-path" fill="#FFFFFF" x="120.32" y="0.18" width="15.51" height="15.51"></rect>
                <rect id="Rectangle-path" fill="#FFFFFF" x="140.32" y="0.18" width="15.51" height="15.51"></rect>
                <rect id="Rectangle-path" fill="#FFFFFF" x="160.32" y="0.18" width="15.51" height="15.51"></rect>
                <rect id="Rectangle-path" fill="#FFFFFF" x="180.32" y="0.18" width="15.51" height="15.51"></rect>
                <rect id="Rectangle-path" fill="#FFFFFF" x="200.32" y="0.18" width="15.51" height="15.51"></rect>
                <rect id="Rectangle-path" fill="#FFFFFF" x="0.32" y="20.18" width="15.51" height="15.51"></rect>
                <rect id="Rectangle-path" fill="#FFFFFF" x="20.32" y="20.18" width="15.51" height="15.51"></rect>
                <rect id="Rectangle-path" fill="#FFFFFF" x="40.32" y="20.18" width="15.51" height="15.51"></rect>
                <rect id="Rectangle-path" fill="#FFFFFF" x="60.32" y="20.18" width="15.51" height="15.51"></rect>
                <rect id="Rectangle-path" fill="#FFFFFF" x="80.32" y="20.18" width="15.51" height="15.51"></rect>
                <rect id="Rectangle-path" fill="#FFFFFF" x="100.32" y="20.18" width="15.51" height="15.51"></rect>
                <rect id="Rectangle-path" fill="#FFFFFF" x="120.32" y="20.18" width="15.51" height="15.51"></rect>
                <rect id="Rectangle-path" fill="#FFFFFF" x="140.32" y="20.18" width="15.51" height="15.51"></rect>
                <rect id="Rectangle-path" fill="#00C66B" x="160.32" y="20.18" width="15.51" height="15.51"></rect>
                <rect id="Rectangle-path" fill="#FFFFFF" x="180.32" y="20.18" width="15.51" height="15.51"></rect>
                <rect id="Rectangle-path" fill="#FFFFFF" x="200.32" y="20.18" width="15.51" height="15.51"></rect>
                <rect id="Rectangle-path" fill="#FFFFFF" x="0.32" y="40.18" width="15.51" height="15.51"></rect>
                <rect id="Rectangle-path" fill="#FFFFFF" x="20.32" y="40.18" width="15.51" height="15.51"></rect>
                <rect id="Rectangle-path" fill="#FFFFFF" x="40.32" y="40.18" width="15.51" height="15.51"></rect>
                <rect id="Rectangle-path" fill="#FFFFFF" x="60.32" y="40.18" width="15.51" height="15.51"></rect>
                <rect id="Rectangle-path" fill="#FFFFFF" x="80.32" y="40.18" width="15.51" height="15.51"></rect>
                <rect id="Rectangle-path" fill="#FFFFFF" x="100.32" y="40.18" width="15.51" height="15.51"></rect>
                <rect id="Rectangle-path" fill="#FFFFFF" x="120.32" y="40.18" width="15.51" height="15.51"></rect>
                <rect id="Rectangle-path" fill="#FFFFFF" x="140.32" y="40.18" width="15.51" height="15.51"></rect>
                <rect id="Rectangle-path" fill="#FFFFFF" x="160.32" y="40.18" width="15.51" height="15.51"></rect>
                <rect id="Rectangle-path" fill="#FFFFFF" x="180.32" y="40.18" width="15.51" height="15.51"></rect>
                <rect id="Rectangle-path" fill="#FFFFFF" x="200.32" y="40.18" width="15.51" height="15.51"></rect>
                <rect id="Rectangle-path" fill="#FFFFFF" x="0.32" y="60.18" width="15.51" height="15.51"></rect>
                <rect id="Rectangle-path" fill="#FFFFFF" x="20.32" y="60.18" width="15.51" height="15.51"></rect>
                <rect id="Rectangle-path" fill="#FFFFFF" x="40.32" y="60.18" width="15.51" height="15.51"></rect>
                <rect id="Rectangle-path" fill="#FFFFFF" x="60.32" y="60.18" width="15.51" height="15.51"></rect>
                <rect id="Rectangle-path" fill="#FFFFFF" x="80.32" y="60.18" width="15.51" height="15.51"></rect>
                <rect id="Rectangle-path" fill="#FFFFFF" x="100.32" y="60.18" width="15.51" height="15.51"></rect>
                <rect id="Rectangle-path" fill="#FFFFFF" x="120.32" y="60.18" width="15.51" height="15.51"></rect>
                <rect id="Rectangle-path" fill="#FFFFFF" x="140.32" y="60.18" width="15.51" height="15.51"></rect>
                <rect id="Rectangle-path" fill="#FFFFFF" x="160.32" y="60.18" width="15.51" height="15.51"></rect>
                <rect id="Rectangle-path" fill="#FFFFFF" x="180.32" y="60.18" width="15.51" height="15.51"></rect>
                <rect id="Rectangle-path" fill="#FFFFFF" x="200.32" y="60.18" width="15.51" height="15.51"></rect>
            </g>
            <g id="Group" transform="translate(647.000000, 623.000000)" stroke="#FFFFFF" stroke-width="2" stroke-linecap="round" stroke-linejoin="round">
                <path d="M0.11,0.18 L0.11,79.5" id="Shape"></path>
                <path d="M20.11,0.18 L20.11,79.5" id="Shape"></path>
                <path d="M40.11,0.18 L40.11,79.5" id="Shape"></path>
                <path d="M60.11,0.18 L60.11,79.5" id="Shape"></path>
                <path d="M80.11,0.18 L80.11,79.5" id="Shape"></path>
                <path d="M100.11,0.18 L100.11,79.5" id="Shape"></path>
                <path d="M120.11,0.18 L120.11,79.5" id="Shape"></path>
                <path d="M140.11,0.18 L140.11,79.5" id="Shape"></path>
                <path d="M160.11,0.18 L160.11,79.5" id="Shape"></path>
                <path d="M180.11,0.18 L180.11,79.5" id="Shape"></path>
                <path d="M200.11,0.18 L200.11,79.5" id="Shape"></path>
                <path d="M220.11,0.18 L220.11,79.5" id="Shape"></path>
                <path d="M240.11,0.18 L240.11,79.5" id="Shape"></path>
                <path d="M260.11,0.18 L260.11,79.5" id="Shape"></path>
                <path d="M10.11,0.18 L10.11,79.5" id="Shape"></path>
                <path d="M30.11,0.18 L30.11,79.5" id="Shape"></path>
                <path d="M50.11,0.18 L50.11,79.5" id="Shape"></path>
                <path d="M70.11,0.18 L70.11,79.5" id="Shape"></path>
                <path d="M90.11,0.18 L90.11,79.5" id="Shape"></path>
                <path d="M110.11,0.18 L110.11,79.5" id="Shape"></path>
                <path d="M130.11,0.18 L130.11,79.5" id="Shape"></path>
                <path d="M150.11,0.18 L150.11,79.5" id="Shape"></path>
                <path d="M170.11,0.18 L170.11,79.5" id="Shape"></path>
                <path d="M190.11,0.18 L190.11,79.5" id="Shape"></path>
                <path d="M210.11,0.18 L210.11,79.5" id="Shape"></path>
                <path d="M230.11,0.18 L230.11,79.5" id="Shape"></path>
                <path d="M250.11,0.18 L250.11,79.5" id="Shape"></path>
                <path d="M270.11,0.18 L270.11,79.5" id="Shape"></path>
                <path d="M280.11,0.18 L280.11,79.5" id="Shape"></path>
            </g>
            <g id="Group" transform="translate(634.000000, 345.000000)" stroke="#FFFFFF" stroke-width="4" stroke-linecap="round" stroke-linejoin="round">
                <rect id="Rectangle-path" x="0.32" y="0.5" width="12.35" height="152.68"></rect>
                <rect id="Rectangle-path" x="26.32" y="50.5" width="12.35" height="102.68"></rect>
                <rect id="Rectangle-path" x="52.32" y="77.18" width="12.35" height="76"></rect>
            </g>
            <g id="Group" transform="translate(334.000000, 623.000000)" fill-rule="nonzero">
                <path d="M287.77,79.5 L13.27,79.5 C13.27,72.364481 7.48551897,66.58 0.35,66.58 L0.35,13.11 C7.48551897,13.11 13.27,7.32551897 13.27,0.19 L287.77,0.19 C287.77,7.32551897 293.554481,13.11 300.69,13.11 L300.69,66.58 C293.554481,66.58 287.77,72.364481 287.77,79.5 L287.77,79.5 Z" id="Shape" fill="#FFFFFF"></path>
                <rect id="Rectangle-path" fill="#F5F5F5" transform="translate(150.530000, 30.725000) rotate(90.000000) translate(-150.530000, -30.725000) " x="144.355" y="-97.025" width="12.35" height="255.5"></rect>
                <rect id="Rectangle-path" fill="#F5F5F5" transform="translate(100.530000, 50.725000) rotate(90.000000) translate(-100.530000, -50.725000) " x="94.355" y="-27.025" width="12.35" height="155.5"></rect>
                <rect id="Rectangle-path" fill="#F5F5F5" transform="translate(233.030000, 50.725000) rotate(90.000000) translate(-233.030000, -50.725000) " x="226.855" y="5.475" width="12.35" height="90.5"></rect>
            </g>
            <g id="Group" transform="translate(738.000000, 522.000000)" fill-rule="nonzero" fill="#FFFFFF">
                <polygon id="Shape" points="39.8 39.68 0.64 79.18 0.64 0.02 39.8 39.6"></polygon>
                <polygon id="Shape" points="78.96 39.68 39.8 79.18 39.8 0.02 78.96 39.6"></polygon>
                <rect id="Rectangle-path" x="78.96" y="0.02" width="7.54" height="79.16"></rect>
            </g>
            <g id="Group" transform="translate(848.000000, 524.000000)" stroke="#FFFFFF" stroke-width="4" stroke-linecap="round" stroke-linejoin="round">
                <path d="M37.31,0.74 L37.31,10.74" id="Shape"></path>
                <path d="M27.76,2 L30.34,11.65" id="Shape"></path>
                <path d="M18.86,5.68 L23.86,14.34" id="Shape"></path>
                <path d="M11.21,11.55 L18.28,18.62" id="Shape"></path>
                <path d="M5.35,19.19 L14.01,24.19" id="Shape"></path>
                <path d="M1.66,28.09 L11.32,30.68" id="Shape"></path>
                <path d="M0.4,37.64 L10.4,37.64" id="Shape"></path>
                <path d="M1.66,47.19 L11.32,44.61" id="Shape"></path>
                <path d="M5.35,56.1 L14.01,51.1" id="Shape"></path>
                <path d="M11.21,63.74 L18.28,56.67" id="Shape"></path>
                <path d="M18.86,69.6 L23.86,60.94" id="Shape"></path>
                <path d="M27.76,73.29 L30.34,63.63" id="Shape"></path>
                <path d="M37.31,74.55 L37.31,64.55" id="Shape"></path>
                <path d="M46.86,73.29 L44.27,63.63" id="Shape"></path>
                <path d="M55.76,69.6 L50.76,60.94" id="Shape"></path>
                <path d="M63.4,63.74 L56.33,56.67" id="Shape"></path>
                <path d="M69.27,56.1 L60.61,51.1" id="Shape"></path>
                <path d="M72.96,47.19 L63.3,44.61" id="Shape"></path>
                <path d="M74.21,37.64 L64.21,37.64" id="Shape"></path>
                <path d="M72.96,28.09 L63.3,30.68" id="Shape"></path>
                <path d="M69.27,19.19 L60.61,24.19" id="Shape"></path>
                <path d="M63.4,11.55 L56.33,18.62" id="Shape"></path>
                <path d="M55.76,5.68 L50.76,14.34" id="Shape"></path>
                <path d="M46.86,2 L44.27,11.65" id="Shape"></path>
                <circle id="Oval" cx="37.31" cy="37.64" r="14.09"></circle>
            </g>
            <path d="M926.11,436 L734.67,436 C728.224837,436 723,441.224837 723,447.67 C723,454.115163 728.224837,459.34 734.67,459.34 L926.11,459.34 C932.555163,459.34 937.78,454.115163 937.78,447.67 C937.78,441.224837 932.555163,436 926.11,436 L926.11,436 Z M741.11,454.34 C738.412236,454.34 735.980112,452.714907 734.947723,450.222498 C733.915334,447.73009 734.485991,444.861204 736.393597,442.953598 C738.301204,441.045991 741.17009,440.475334 743.662498,441.507724 C746.154906,442.540113 747.78,444.972237 747.78,447.67 C747.78,451.353739 744.793739,454.34 741.11,454.34 Z M761.11,454.34 C757.42626,454.34 754.44,451.353739 754.44,447.67 C754.44,443.986261 757.42626,441 761.11,441 C764.793739,441 767.78,443.986261 767.78,447.67 C767.78,449.438994 767.077269,451.135535 765.826402,452.386402 C764.575534,453.63727 762.878993,454.34 761.11,454.34 Z M801.11,454.34 C798.412236,454.34 795.980112,452.714907 794.947723,450.222498 C793.915334,447.73009 794.485991,444.861204 796.393597,442.953598 C798.301204,441.045991 801.17009,440.475334 803.662498,441.507724 C806.154906,442.540113 807.78,444.972237 807.78,447.67 C807.78,451.353739 804.793739,454.34 801.11,454.34 Z M781.11,454.34 C778.412236,454.34 775.980112,452.714907 774.947723,450.222498 C773.915334,447.73009 774.485991,444.861204 776.393597,442.953598 C778.301204,441.045991 781.17009,440.475334 783.662498,441.507724 C786.154906,442.540113 787.78,444.972237 787.78,447.67 C787.78,451.353739 784.793739,454.34 781.11,454.34 L781.11,454.34 Z M821.11,454.34 C818.412236,454.34 815.980112,452.714907 814.947723,450.222498 C813.915334,447.73009 814.485991,444.861204 816.393597,442.953598 C818.301204,441.045991 821.17009,440.475334 823.662498,441.507724 C826.154906,442.540113 827.78,444.972237 827.78,447.67 C827.78,451.353739 824.793739,454.34 821.11,454.34 Z M841.11,454.34 C838.412236,454.34 835.980112,452.714907 834.947723,450.222498 C833.915334,447.73009 834.485991,444.861204 836.393597,442.953598 C838.301204,441.045991 841.17009,440.475334 843.662498,441.507724 C846.154906,442.540113 847.78,444.972237 847.78,447.67 C847.78,451.353739 844.793739,454.34 841.11,454.34 Z M861.11,454.34 C858.412236,454.34 855.980112,452.714907 854.947723,450.222498 C853.915334,447.73009 854.485991,444.861204 856.393597,442.953598 C858.301204,441.045991 861.17009,440.475334 863.662498,441.507724 C866.154906,442.540113 867.78,444.972237 867.78,447.67 C867.78,451.353739 864.793739,454.34 861.11,454.34 L861.11,454.34 Z M881.11,454.34 C878.412236,454.34 875.980112,452.714907 874.947723,450.222498 C873.915334,447.73009 874.485991,444.861204 876.393597,442.953598 C878.301204,441.045991 881.17009,440.475334 883.662498,441.507724 C886.154906,442.540113 887.78,444.972237 887.78,447.67 C887.78,451.353739 884.793739,454.34 881.11,454.34 Z M901.11,454.34 C897.42626,454.34 894.44,451.353739 894.44,447.67 C894.44,443.986261 897.42626,441 901.11,441 C904.793739,441 907.78,443.986261 907.78,447.67 C907.78,449.438994 907.077269,451.135535 905.826402,452.386402 C904.575534,453.63727 902.878993,454.34 901.11,454.34 Z M921.11,454.34 C917.42626,454.34 914.44,451.353739 914.44,447.67 C914.44,443.986261 917.42626,441 921.11,441 C924.793739,441 927.78,443.986261 927.78,447.67 C927.78,449.438994 927.077269,451.135535 925.826402,452.386402 C924.575534,453.63727 922.878993,454.34 921.11,454.34 Z" id="Shape" fill="#FFFFFF"></path>
            <path d="M926.11,469 L734.67,469 C728.224837,469 723,474.224837 723,480.67 C723,487.115163 728.224837,492.34 734.67,492.34 L926.11,492.34 C932.555163,492.34 937.78,487.115163 937.78,480.67 C937.78,474.224837 932.555163,469 926.11,469 Z M741.11,487.34 C738.412237,487.34 735.980113,485.714907 734.947724,483.222498 C733.915334,480.73009 734.485991,477.861204 736.393598,475.953598 C738.301204,474.045991 741.17009,473.475334 743.662498,474.507724 C746.154907,475.540113 747.78,477.972237 747.78,480.67 C747.78,484.353739 744.793739,487.34 741.11,487.34 Z M761.11,487.34 C757.426261,487.34 754.44,484.353739 754.44,480.67 C754.44,476.986261 757.426261,474 761.11,474 C764.793739,474 767.78,476.986261 767.78,480.67 C767.78,482.438994 767.07727,484.135535 765.826402,485.386402 C764.575535,486.63727 762.878994,487.34 761.11,487.34 Z M801.11,487.34 C798.412237,487.34 795.980113,485.714907 794.947724,483.222498 C793.915334,480.73009 794.485991,477.861204 796.393598,475.953598 C798.301204,474.045991 801.17009,473.475334 803.662498,474.507724 C806.154907,475.540113 807.78,477.972237 807.78,480.67 C807.78,484.353739 804.793739,487.34 801.11,487.34 Z M781.11,487.34 C778.412237,487.34 775.980113,485.714907 774.947724,483.222498 C773.915334,480.73009 774.485991,477.861204 776.393598,475.953598 C778.301204,474.045991 781.17009,473.475334 783.662498,474.507724 C786.154907,475.540113 787.78,477.972237 787.78,480.67 C787.78,484.353739 784.793739,487.34 781.11,487.34 L781.11,487.34 Z M821.11,487.34 C818.412237,487.34 815.980113,485.714907 814.947724,483.222498 C813.915334,480.73009 814.485991,477.861204 816.393598,475.953598 C818.301204,474.045991 821.17009,473.475334 823.662498,474.507724 C826.154907,475.540113 827.78,477.972237 827.78,480.67 C827.78,484.353739 824.793739,487.34 821.11,487.34 Z M841.11,487.34 C838.412237,487.34 835.980113,485.714907 834.947724,483.222498 C833.915334,480.73009 834.485991,477.861204 836.393598,475.953598 C838.301204,474.045991 841.17009,473.475334 843.662498,474.507724 C846.154907,475.540113 847.78,477.972237 847.78,480.67 C847.78,484.353739 844.793739,487.34 841.11,487.34 Z M861.11,487.34 C858.412237,487.34 855.980113,485.714907 854.947724,483.222498 C853.915334,480.73009 854.485991,477.861204 856.393598,475.953598 C858.301204,474.045991 861.17009,473.475334 863.662498,474.507724 C866.154907,475.540113 867.78,477.972237 867.78,480.67 C867.78,484.353739 864.793739,487.34 861.11,487.34 L861.11,487.34 Z M881.11,487.34 C878.412237,487.34 875.980113,485.714907 874.947724,483.222498 C873.915334,480.73009 874.485991,477.861204 876.393598,475.953598 C878.301204,474.045991 881.17009,473.475334 883.662498,474.507724 C886.154907,475.540113 887.78,477.972237 887.78,480.67 C887.78,484.353739 884.793739,487.34 881.11,487.34 Z M901.11,487.34 C897.426261,487.34 894.44,484.353739 894.44,480.67 C894.44,476.986261 897.426261,474 901.11,474 C904.793739,474 907.78,476.986261 907.78,480.67 C907.78,482.438994 907.07727,484.135535 905.826402,485.386402 C904.575535,486.63727 902.878994,487.34 901.11,487.34 Z M921.11,487.34 C917.426261,487.34 914.44,484.353739 914.44,480.67 C914.44,476.986261 917.426261,474 921.11,474 C924.793739,474 927.78,476.986261 927.78,480.67 C927.78,482.438994 927.07727,484.135535 925.826402,485.386402 C924.575535,486.63727 922.878994,487.34 921.11,487.34 Z" id="Shape" fill="#FFFFFF"></path>
            <g id="Group" transform="translate(848.000000, 217.000000)">
                <path d="M23.44,183.48 L23.44,12 C23.4399992,5.55483751 18.2151625,0.330001391 11.77,0.330001391 C5.32483751,0.330001391 0.100000768,5.55483751 0.1,12 L0.1,183.48 C0.099999503,187.64929 2.32428883,191.501873 5.9349996,193.586518 C9.54571037,195.671163 13.9942896,195.671163 17.6050004,193.586518 C21.2157112,191.501873 23.4400005,187.64929 23.44,183.48 Z M5.1,18.48 C5.1,15.7822368 6.72509333,13.3501128 9.21750151,12.3177235 C11.7099097,11.2853342 14.5787956,11.8559911 16.4864022,13.7635978 C18.3940089,15.6712044 18.9646658,18.5400903 17.9322765,21.0324985 C16.8998872,23.5249067 14.4677632,25.15 11.77,25.15 C10.001006,25.15 8.30446541,24.4472699 7.05359777,23.1964022 C5.80273013,21.9455346 5.1,20.248994 5.1,18.48 L5.1,18.48 Z M5.1,38.48 C5.1,34.7962607 8.08626072,31.81 11.77,31.81 C15.4537393,31.81 18.44,34.7962607 18.44,38.48 C18.44,42.1637393 15.4537393,45.15 11.77,45.15 C10.001006,45.15 8.30446541,44.4472699 7.05359777,43.1964022 C5.80273013,41.9455346 5.1,40.248994 5.1,38.48 L5.1,38.48 Z M5.1,58.48 C5.1,54.7962607 8.08626072,51.81 11.77,51.81 C15.4537393,51.81 18.44,54.7962607 18.44,58.48 C18.44,62.1637393 15.4537393,65.15 11.77,65.15 C10.001006,65.15 8.30446541,64.4472699 7.05359777,63.1964022 C5.80273013,61.9455346 5.1,60.248994 5.1,58.48 L5.1,58.48 Z M5.1,78.48 C5.1,74.7962607 8.08626072,71.81 11.77,71.81 C15.4537393,71.81 18.44,74.7962607 18.44,78.48 C18.44,82.1637393 15.4537393,85.15 11.77,85.15 C10.001006,85.15 8.30446541,84.4472699 7.05359777,83.1964022 C5.80273013,81.9455346 5.1,80.248994 5.1,78.48 L5.1,78.48 Z M5.1,98.48 C5.1,95.7822368 6.72509333,93.3501128 9.21750151,92.3177235 C11.7099097,91.2853342 14.5787956,91.8559911 16.4864022,93.7635978 C18.3940089,95.6712044 18.9646658,98.5400903 17.9322765,101.032498 C16.8998872,103.524907 14.4677632,105.15 11.77,105.15 C10.001006,105.15 8.30446541,104.44727 7.05359777,103.196402 C5.80273013,101.945535 5.1,100.248994 5.1,98.48 L5.1,98.48 Z M5.1,118.48 C5.1,114.796261 8.08626072,111.81 11.77,111.81 C15.4537393,111.81 18.44,114.796261 18.44,118.48 C18.44,122.163739 15.4537393,125.15 11.77,125.15 C10.001006,125.15 8.30446541,124.44727 7.05359777,123.196402 C5.80273013,121.945535 5.1,120.248994 5.1,118.48 L5.1,118.48 Z M5.1,138.48 C5.1,134.796261 8.08626072,131.81 11.77,131.81 C15.4537393,131.81 18.44,134.796261 18.44,138.48 C18.44,142.163739 15.4537393,145.15 11.77,145.15 C10.001006,145.15 8.30446541,144.44727 7.05359777,143.196402 C5.80273013,141.945535 5.1,140.248994 5.1,138.48 L5.1,138.48 Z M5.1,158.48 C5.1,155.782237 6.72509333,153.350113 9.21750151,152.317724 C11.7099097,151.285334 14.5787956,151.855991 16.4864022,153.763598 C18.3940089,155.671204 18.9646658,158.54009 17.9322765,161.032498 C16.8998872,163.524907 14.4677632,165.15 11.77,165.15 C10.001006,165.15 8.30446541,164.44727 7.05359777,163.196402 C5.80273013,161.945535 5.1,160.248994 5.1,158.48 L5.1,158.48 Z M5.1,178.48 C5.1,174.796261 8.08626072,171.81 11.77,171.81 C15.4537393,171.81 18.44,174.796261 18.44,178.48 C18.44,182.163739 15.4537393,185.15 11.77,185.15 C10.001006,185.15 8.30446541,184.44727 7.05359777,183.196402 C5.80273013,181.945535 5.1,180.248994 5.1,178.48 L5.1,178.48 Z" id="Shape" fill="#FFFFFF"></path>
                <path d="M90.57,183.48 L90.57,12 C90.57,5.55483697 85.345163,0.33 78.9,0.33 C72.454837,0.33 67.23,5.55483697 67.23,12 L67.23,183.48 C67.23,189.925163 72.454837,195.15 78.9,195.15 C85.345163,195.15 90.57,189.925163 90.57,183.48 Z M72.23,18.48 C72.23,15.7822368 73.8550933,13.3501128 76.3475015,12.3177235 C78.8399097,11.2853342 81.7087956,11.8559911 83.6164022,13.7635978 C85.5240089,15.6712044 86.0946658,18.5400903 85.0622765,21.0324985 C84.0298872,23.5249067 81.5977632,25.15 78.9,25.15 C75.2162607,25.15 72.23,22.1637393 72.23,18.48 Z M72.23,38.48 C72.23,34.7962607 75.2162607,31.81 78.9,31.81 C82.5837393,31.81 85.57,34.7962607 85.57,38.48 C85.57,42.1637393 82.5837393,45.15 78.9,45.15 C75.2162607,45.15 72.23,42.1637393 72.23,38.48 Z M72.23,58.48 C72.23,54.7962607 75.2162607,51.81 78.9,51.81 C82.5837393,51.81 85.57,54.7962607 85.57,58.48 C85.57,62.1637393 82.5837393,65.15 78.9,65.15 C75.2162607,65.15 72.23,62.1637393 72.23,58.48 Z M72.23,78.48 C72.23,74.7962607 75.2162607,71.81 78.9,71.81 C82.5837393,71.81 85.57,74.7962607 85.57,78.48 C85.57,82.1637393 82.5837393,85.15 78.9,85.15 C75.2162607,85.15 72.23,82.1637393 72.23,78.48 Z M72.23,98.48 C72.23,95.7822368 73.8550933,93.3501128 76.3475015,92.3177235 C78.8399097,91.2853342 81.7087956,91.8559911 83.6164022,93.7635978 C85.5240089,95.6712044 86.0946658,98.5400903 85.0622765,101.032498 C84.0298872,103.524907 81.5977632,105.15 78.9,105.15 C75.2162607,105.15 72.23,102.163739 72.23,98.48 Z M72.23,118.48 C72.23,114.796261 75.2162607,111.81 78.9,111.81 C82.5837393,111.81 85.57,114.796261 85.57,118.48 C85.57,122.163739 82.5837393,125.15 78.9,125.15 C75.2162607,125.15 72.23,122.163739 72.23,118.48 Z M72.23,138.48 C72.23,134.796261 75.2162607,131.81 78.9,131.81 C82.5837393,131.81 85.57,134.796261 85.57,138.48 C85.57,142.163739 82.5837393,145.15 78.9,145.15 C75.2162607,145.15 72.23,142.163739 72.23,138.48 Z M72.23,158.48 C72.23,155.782237 73.8550933,153.350113 76.3475015,152.317724 C78.8399097,151.285334 81.7087956,151.855991 83.6164022,153.763598 C85.5240089,155.671204 86.0946658,158.54009 85.0622765,161.032498 C84.0298872,163.524907 81.5977632,165.15 78.9,165.15 C75.2162607,165.15 72.23,162.163739 72.23,158.48 L72.23,158.48 Z M72.23,178.48 C72.23,174.796261 75.2162607,171.81 78.9,171.81 C82.5837393,171.81 85.57,174.796261 85.57,178.48 C85.57,182.163739 82.5837393,185.15 78.9,185.15 C75.2162607,185.15 72.23,182.163739 72.23,178.48 Z" id="Shape" fill="#FFFFFF"></path>
                <path d="M56.78,183.48 L56.78,12 C56.7799992,5.55483751 51.5551625,0.330001391 45.11,0.330001391 C38.6648375,0.330001391 33.4400008,5.55483751 33.44,12 L33.44,183.48 C33.4399995,187.64929 35.6642888,191.501873 39.2749996,193.586518 C42.8857104,195.671163 47.3342896,195.671163 50.9450004,193.586518 C54.5557112,191.501873 56.7800005,187.64929 56.78,183.48 Z M38.44,18.48 C38.44,15.7822368 40.0650933,13.3501128 42.5575015,12.3177235 C45.0499097,11.2853342 47.9187956,11.8559911 49.8264022,13.7635978 C51.7340089,15.6712044 52.3046658,18.5400903 51.2722765,21.0324985 C50.2398872,23.5249067 47.8077632,25.15 45.11,25.15 C43.341006,25.15 41.6444654,24.4472699 40.3935978,23.1964022 C39.1427301,21.9455346 38.44,20.248994 38.44,18.48 Z M38.44,38.48 C38.44,34.7962607 41.4262607,31.81 45.11,31.81 C48.7937393,31.81 51.78,34.7962607 51.78,38.48 C51.78,42.1637393 48.7937393,45.15 45.11,45.15 C43.341006,45.15 41.6444654,44.4472699 40.3935978,43.1964022 C39.1427301,41.9455346 38.44,40.248994 38.44,38.48 Z M38.44,58.48 C38.44,54.7962607 41.4262607,51.81 45.11,51.81 C48.7937393,51.81 51.78,54.7962607 51.78,58.48 C51.78,62.1637393 48.7937393,65.15 45.11,65.15 C43.341006,65.15 41.6444654,64.4472699 40.3935978,63.1964022 C39.1427301,61.9455346 38.44,60.248994 38.44,58.48 Z M38.44,78.48 C38.44,74.7962607 41.4262607,71.81 45.11,71.81 C48.7937393,71.81 51.78,74.7962607 51.78,78.48 C51.78,82.1637393 48.7937393,85.15 45.11,85.15 C43.341006,85.15 41.6444654,84.4472699 40.3935978,83.1964022 C39.1427301,81.9455346 38.44,80.248994 38.44,78.48 Z M38.44,98.48 C38.44,95.7822368 40.0650933,93.3501128 42.5575015,92.3177235 C45.0499097,91.2853342 47.9187956,91.8559911 49.8264022,93.7635978 C51.7340089,95.6712044 52.3046658,98.5400903 51.2722765,101.032498 C50.2398872,103.524907 47.8077632,105.15 45.11,105.15 C43.341006,105.15 41.6444654,104.44727 40.3935978,103.196402 C39.1427301,101.945535 38.44,100.248994 38.44,98.48 Z M38.44,118.48 C38.44,114.796261 41.4262607,111.81 45.11,111.81 C48.7937393,111.81 51.78,114.796261 51.78,118.48 C51.78,122.163739 48.7937393,125.15 45.11,125.15 C43.341006,125.15 41.6444654,124.44727 40.3935978,123.196402 C39.1427301,121.945535 38.44,120.248994 38.44,118.48 Z M38.44,138.48 C38.44,134.796261 41.4262607,131.81 45.11,131.81 C48.7937393,131.81 51.78,134.796261 51.78,138.48 C51.78,142.163739 48.7937393,145.15 45.11,145.15 C43.341006,145.15 41.6444654,144.44727 40.3935978,143.196402 C39.1427301,141.945535 38.44,140.248994 38.44,138.48 Z M38.44,158.48 C38.44,155.782237 40.0650933,153.350113 42.5575015,152.317724 C45.0499097,151.285334 47.9187956,151.855991 49.8264022,153.763598 C51.7340089,155.671204 52.3046658,158.54009 51.2722765,161.032498 C50.2398872,163.524907 47.8077632,165.15 45.11,165.15 C43.341006,165.15 41.6444654,164.44727 40.3935978,163.196402 C39.1427301,161.945535 38.44,160.248994 38.44,158.48 L38.44,158.48 Z M38.44,178.48 C38.44,174.796261 41.4262607,171.81 45.11,171.81 C48.7937393,171.81 51.78,174.796261 51.78,178.48 C51.78,182.163739 48.7937393,185.15 45.11,185.15 C43.341006,185.15 41.6444654,184.44727 40.3935978,183.196402 C39.1427301,181.945535 38.44,180.248994 38.44,178.48 Z" id="Shape" fill="#FD812D"></path>
            </g>
            <g id="Group" transform="translate(629.000000, 226.000000)" fill="#FFFFFF">
                <circle id="Oval" fill-rule="nonzero" cx="21.83" cy="73.66" r="19.06"></circle>
                <polygon id="Shape" points="55.7 38.84 55.7 4.48 90.06 4.48"></polygon>
                <rect id="Rectangle-path" fill-rule="nonzero" transform="translate(21.822408, 21.659179) rotate(45.000000) translate(-21.822408, -21.659179) " x="7.00240769" y="6.83917924" width="29.64" height="29.64"></rect>
            </g>
            <g id="Group" transform="translate(531.000000, 527.000000)">
                <polygon id="Shape" fill="#FFFFFF" points="41.99 76.89 76.35 76.89 76.35 42.54"></polygon>
                <rect id="Rectangle-path" fill="#FFFFFF" fill-rule="nonzero" transform="translate(59.160000, 18.070000) rotate(-180.000000) translate(-59.160000, -18.070000) " x="41.98" y="0.89" width="34.36" height="34.36"></rect>
                <circle id="Oval" fill="#FFFFFF" fill-rule="nonzero" cx="17.5" cy="18.07" r="17.18"></circle>
                <path d="M32.49,42.54 L32.49,76.89" id="Shape" stroke="#FFFFFF" stroke-width="2" stroke-linecap="round" stroke-linejoin="round"></path>
                <path d="M25.19,42.54 L25.19,76.89" id="Shape" stroke="#FFFFFF" stroke-width="2" stroke-linecap="round" stroke-linejoin="round"></path>
                <path d="M17.88,42.54 L17.88,76.89" id="Shape" stroke="#FFFFFF" stroke-width="2" stroke-linecap="round" stroke-linejoin="round"></path>
                <path d="M10.58,42.54 L10.58,76.89" id="Shape" stroke="#FFFFFF" stroke-width="2" stroke-linecap="round" stroke-linejoin="round"></path>
                <path d="M3.28,42.54 L3.28,76.89" id="Shape" stroke="#FFFFFF" stroke-width="2" stroke-linecap="round" stroke-linejoin="round"></path>
            </g>
            <g id="Group" transform="translate(439.000000, 527.000000)" fill-rule="nonzero" fill="#FFFFFF">
                <path d="M38.25,2.9 C58.132251,2.9 74.25,19.017749 74.25,38.9 C74.25,58.782251 58.132251,74.9 38.25,74.9 C18.367749,74.9 2.25,58.782251 2.25,38.9 C2.25,19.017749 18.367749,2.9 38.25,2.9 L38.25,2.9 Z M38.25,0.9 C17.2631795,0.9 0.25,17.9131795 0.25,38.9 C0.25,59.8868205 17.2631795,76.9 38.25,76.9 C59.2368205,76.9 76.25,59.8868205 76.25,38.9 C76.25,17.9131795 59.2368205,0.9 38.25,0.9 Z" id="Shape"></path>
                <path d="M38.25,12.89 C52.6094035,12.89 64.25,24.5305965 64.25,38.89 C64.25,53.2494035 52.6094035,64.89 38.25,64.89 C23.8905965,64.89 12.25,53.2494035 12.25,38.89 C12.25,24.5305965 23.8905965,12.89 38.25,12.89 L38.25,12.89 Z M38.25,10.89 C22.786027,10.89 10.25,23.426027 10.25,38.89 C10.25,54.353973 22.786027,66.89 38.25,66.89 C53.713973,66.89 66.25,54.353973 66.25,38.89 C66.25,23.426027 53.713973,10.89 38.25,10.89 Z" id="Shape"></path>
            </g>
            <g id="Group" transform="translate(5.000000, 235.000000)" fill-rule="nonzero" fill="#FFFFFF">
                <rect id="Rectangle-path" transform="translate(165.320000, 79.180000) rotate(90.000000) translate(-165.320000, -79.180000) " x="86.31" y="74.18" width="158.02" height="10" rx="4.44"></rect>
                <rect id="Rectangle-path" transform="translate(145.320000, 79.180000) rotate(90.000000) translate(-145.320000, -79.180000) " x="66.31" y="74.18" width="158.02" height="10" rx="4.44"></rect>
                <rect id="Rectangle-path" transform="translate(125.320000, 79.180000) rotate(90.000000) translate(-125.320000, -79.180000) " x="46.31" y="74.18" width="158.02" height="10" rx="4.44"></rect>
                <rect id="Rectangle-path" transform="translate(105.320000, 79.180000) rotate(90.000000) translate(-105.320000, -79.180000) " x="26.31" y="74.18" width="158.02" height="10" rx="4.44"></rect>
                <rect id="Rectangle-path" transform="translate(85.320000, 79.180000) rotate(90.000000) translate(-85.320000, -79.180000) " x="6.31" y="74.18" width="158.02" height="10" rx="4.44"></rect>
                <rect id="Rectangle-path" transform="translate(65.320000, 79.180000) rotate(90.000000) translate(-65.320000, -79.180000) " x="-13.69" y="74.18" width="158.02" height="10" rx="4.44"></rect>
                <rect id="Rectangle-path" transform="translate(45.320000, 79.180000) rotate(90.000000) translate(-45.320000, -79.180000) " x="-33.69" y="74.18" width="158.02" height="10" rx="4.44"></rect>
                <rect id="Rectangle-path" transform="translate(25.320000, 79.180000) rotate(90.000000) translate(-25.320000, -79.180000) " x="-53.69" y="74.18" width="158.02" height="10" rx="4.44"></rect>
                <rect id="Rectangle-path" transform="translate(5.320000, 79.180000) rotate(90.000000) translate(-5.320000, -79.180000) " x="-73.69" y="74.18" width="158.02" height="10" rx="4.44"></rect>
            </g>
        </g>
    </g>
</svg>