<?xml version="1.0" encoding="UTF-8"?>
<svg width="70px" height="70px" viewBox="0 0 70 70" version="1.1" xmlns="http://www.w3.org/2000/svg" xmlns:xlink="http://www.w3.org/1999/xlink">
    <!-- Generator: Sketch 43.2 (39069) - http://www.bohemiancoding.com/sketch -->
    <title>Group</title>
    <desc>Created with Sketch.</desc>
    <defs></defs>
    <g id="Page-1" stroke="none" stroke-width="1" fill="none" fill-rule="evenodd">
        <g id="Group" fill-rule="nonzero" fill="#00C66B">
            <path d="M35.07,4.68 C51.7766137,4.68 65.32,18.2233863 65.32,34.93 C65.32,51.6366137 51.7766137,65.18 35.07,65.18 C18.3633863,65.18 4.82,51.6366137 4.82,34.93 C4.83653716,18.230241 18.370241,4.69653716 35.07,4.68 L35.07,4.68 Z M35.07,0.68 C16.1542473,0.68 0.82,16.0142473 0.82,34.93 C0.82,53.8457527 16.1542473,69.18 35.07,69.18 C53.9857527,69.18 69.32,53.8457527 69.32,34.93 C69.32,16.0142473 53.9857527,0.68 35.07,0.68 Z" id="Shape"></path>
            <path d="M35.07,14.68 C46.2537662,14.68 55.32,23.7462338 55.32,34.93 C55.32,46.1137662 46.2537662,55.18 35.07,55.18 C23.8862338,55.18 14.82,46.1137662 14.82,34.93 C14.8310249,23.7508036 23.8908036,14.6910249 35.07,14.68 L35.07,14.68 Z M35.07,10.68 C21.6770948,10.68 10.82,21.5370948 10.82,34.93 C10.82,48.3229052 21.6770948,59.18 35.07,59.18 C48.4629052,59.18 59.32,48.3229052 59.32,34.93 C59.3034706,21.5439475 48.4560525,10.6965294 35.07,10.68 L35.07,10.68 Z" id="Shape"></path>
            <path d="M35.07,24.68 C40.7309187,24.68 45.32,29.2690813 45.32,34.93 C45.32,40.5909187 40.7309187,45.18 35.07,45.18 C29.4090813,45.18 24.82,40.5909187 24.82,34.93 C24.8255126,29.2713663 29.4113663,24.6855126 35.07,24.68 L35.07,24.68 Z M35.07,20.68 C27.1999423,20.68 20.82,27.0599423 20.82,34.93 C20.82,42.8000577 27.1999423,49.18 35.07,49.18 C42.9400577,49.18 49.32,42.8000577 49.32,34.93 C49.3089839,27.0645099 42.9354901,20.6910161 35.07,20.68 Z" id="Shape"></path>
            <path d="M35.07,34.68 C35.2080712,34.68 35.32,34.7919288 35.32,34.93 C35.32,35.0680712 35.2080712,35.18 35.07,35.18 C34.9319288,35.18 34.82,35.0680712 34.82,34.93 C34.82,34.7919288 34.9319288,34.68 35.07,34.68 L35.07,34.68 Z M35.07,30.68 C32.7227898,30.68 30.82,32.5827898 30.82,34.93 C30.82,37.2772102 32.7227898,39.18 35.07,39.18 C37.4172102,39.18 39.32,37.2772102 39.32,34.93 C39.32,32.5827898 37.4172102,30.68 35.07,30.68 Z" id="Shape"></path>
        </g>
    </g>
</svg>