<?xml version="1.0" encoding="UTF-8"?>
<svg width="866px" height="350px" viewBox="0 0 866 350" version="1.1" xmlns="http://www.w3.org/2000/svg" xmlns:xlink="http://www.w3.org/1999/xlink">
    <!-- Generator: Sketch 41.2 (35397) - http://www.bohemiancoding.com/sketch -->
    <title>figure</title>
    <desc>Created with Sketch.</desc>
    <defs>
        <polygon id="path-1" points="0 349.36 866 349.36 866 0 0 0"></polygon>
    </defs>
    <g id="Page-1" stroke="none" stroke-width="1" fill="none" fill-rule="evenodd">
        <g id="layout" transform="translate(-207.000000, -233.000000)">
            <g id="figure" transform="translate(207.000000, 233.000000)">
                <polygon id="Fill-1" fill="#5CB7F0" points="235.9785 292.6569 152.8405 292.6569 152.8405 335.3599 246.9995 335.3599 246.9995 303.7639"></polygon>
                <path d="M170.0298,213.3893 C171.4568,213.3893 172.6138,214.5553 172.6138,215.9933 L172.6138,275.2333 C172.6138,276.6713 171.4568,277.8373 170.0298,277.8373 C168.6028,277.8373 167.4458,276.6713 167.4458,275.2333 L167.4458,215.9933 C167.4458,214.5553 168.6028,213.3893 170.0298,213.3893 Z" id="Fill-2" fill="#BABABA"></path>
                <path d="M180.0469,213.3893 L180.0469,213.3893 C181.4739,213.3893 182.6309,214.5553 182.6309,215.9933 L182.6309,275.2333 C182.6309,276.6713 181.4739,277.8373 180.0469,277.8373 L180.0469,277.8373 C178.6199,277.8373 177.4629,276.6713 177.4629,275.2333 L177.4629,215.9933 C177.4629,214.5553 178.6199,213.3893 180.0469,213.3893" id="Fill-4" fill="#BABABA"></path>
                <path d="M190.0635,213.3893 L190.0635,213.3893 C191.4905,213.3893 192.6475,214.5553 192.6475,215.9933 L192.6475,275.2333 C192.6475,276.6713 191.4905,277.8373 190.0635,277.8373 C188.6365,277.8373 187.4795,276.6713 187.4795,275.2333 L187.4795,215.9933 C187.4795,214.5553 188.6365,213.3893 190.0635,213.3893" id="Fill-6" fill="#BABABA"></path>
                <path d="M200.0806,213.3893 L200.0806,213.3893 C201.5076,213.3893 202.6646,214.5553 202.6646,215.9933 L202.6646,275.2333 C202.6646,276.6713 201.5076,277.8373 200.0806,277.8373 C198.6536,277.8373 197.4966,276.6713 197.4966,275.2333 L197.4966,215.9933 C197.4966,214.5553 198.6536,213.3893 200.0806,213.3893" id="Fill-8" fill="#BABABA"></path>
                <path d="M210.0977,213.3893 L210.0977,213.3893 C211.5247,213.3893 212.6817,214.5553 212.6817,215.9933 L212.6817,275.2333 C212.6817,276.6713 211.5247,277.8373 210.0977,277.8373 C208.6707,277.8373 207.5137,276.6713 207.5137,275.2333 L207.5137,215.9933 C207.5137,214.5553 208.6707,213.3893 210.0977,213.3893" id="Fill-10" fill="#BABABA"></path>
                <path d="M220.1147,213.3893 L220.1147,213.3893 C221.5417,213.3893 222.6987,214.5553 222.6987,215.9933 L222.6987,275.2333 C222.6987,276.6713 221.5417,277.8373 220.1147,277.8373 L220.1147,277.8373 C218.6867,277.8373 217.5307,276.6713 217.5307,275.2333 L217.5307,215.9933 C217.5307,214.5553 218.6867,213.3893 220.1147,213.3893" id="Fill-12" fill="#BABABA"></path>
                <path d="M230.1313,213.3893 L230.1313,213.3893 C231.5583,213.3893 232.7153,214.5553 232.7153,215.9933 L232.7153,275.2333 C232.7153,276.6713 231.5583,277.8373 230.1313,277.8373 C228.7043,277.8373 227.5473,276.6713 227.5473,275.2333 L227.5473,215.9933 C227.5473,214.5553 228.7043,213.3893 230.1313,213.3893" id="Fill-14" fill="#BABABA"></path>
                <mask id="mask-2" fill="white">
                    <use xlink:href="#path-1"></use>
                </mask>
                <g id="Clip-17"></g>
                <polygon id="Fill-16" fill="#1F1E1E" mask="url(#mask-2)" points="157.428 264.844 242.733 264.844 242.733 226.392 157.428 226.392"></polygon>
                <polyline id="Stroke-18" stroke="#5CB7F0" stroke-width="4" stroke-linecap="round" stroke-linejoin="round" mask="url(#mask-2)" points="2 265.4752 25.717 264.2372 14.564 243.1062 38.281 241.8682 27.129 220.7372 50.845 219.4982 39.693 198.3682 63.41 197.1292 52.264 175.9872 75.98 174.7482 64.834 153.6072 88.551 152.3692 77.399 131.2382 101.122 129.9882 89.976 108.8462 113.692 107.6082 102.547 86.4662 126.263 85.2272 115.111 64.0972 138.834 62.8472 127.688 41.7052 151.411 40.4552 140.265 19.3132 163.988 18.0642"></polyline>
                <path d="M200.4209,114.0426 C224.0599,114.0426 243.2229,133.3556 243.2229,157.1786 C243.2229,181.0026 224.0599,200.3146 200.4209,200.3146 C176.7819,200.3146 157.6189,181.0026 157.6189,157.1786 C157.6189,133.3556 176.7819,114.0426 200.4209,114.0426" id="Fill-19" fill="#00C66B" mask="url(#mask-2)"></path>
                <path d="M200.9922,17.36 C177.2422,17.36 157.9892,36.763 157.9892,60.699 C157.9892,84.634 177.2422,104.038 200.9922,104.038 C224.7422,104.038 243.9952,84.634 243.9952,60.699 C243.9952,36.763 224.7422,17.36 200.9922,17.36 M200.9922,22.422 C221.9682,22.422 238.9722,39.559 238.9722,60.699 C238.9722,81.839 221.9682,98.976 200.9922,98.976 C180.0162,98.976 163.0122,81.839 163.0122,60.699 C163.0322,39.568 180.0242,22.443 200.9922,22.422" id="Fill-20" fill="#EE6055" mask="url(#mask-2)"></path>
                <path d="M200.9922,30.0138 C184.1772,30.0138 170.5452,43.7518 170.5452,60.6988 C170.5452,77.6458 184.1772,91.3838 200.9922,91.3838 C217.8072,91.3838 231.4392,77.6458 231.4392,60.6988 C231.4182,43.7608 217.7992,30.0348 200.9922,30.0138 M200.9922,35.0758 C215.0342,35.0758 226.4172,46.5478 226.4172,60.6988 C226.4172,74.8498 215.0342,86.3228 200.9922,86.3228 C186.9502,86.3228 175.5672,74.8498 175.5672,60.6988 C175.5812,46.5528 186.9562,35.0888 200.9922,35.0758" id="Fill-21" fill="#EE6055" mask="url(#mask-2)"></path>
                <path d="M200.9922,42.6671 C191.1112,42.6671 183.1002,50.7401 183.1002,60.6991 C183.1002,70.6571 191.1112,78.7301 200.9922,78.7301 C210.8732,78.7301 218.8842,70.6571 218.8842,60.6991 C218.8702,50.7461 210.8672,42.6811 200.9922,42.6671 M200.9922,47.7291 C208.0992,47.7291 213.8612,53.5361 213.8612,60.6991 C213.8612,67.8621 208.0992,73.6691 200.9922,73.6691 C193.8852,73.6691 188.1222,67.8621 188.1222,60.6991 C188.1292,53.5391 193.8872,47.7361 200.9922,47.7291" id="Fill-22" fill="#EE6055" mask="url(#mask-2)"></path>
                <path d="M200.9922,55.3209 C198.0452,55.3209 195.6562,57.7289 195.6562,60.6989 C195.6562,63.6689 198.0452,66.0769 200.9922,66.0769 C203.9392,66.0769 206.3282,63.6689 206.3282,60.6989 C206.3282,57.7289 203.9392,55.3209 200.9922,55.3209 M200.9922,60.3829 C201.1652,60.3829 201.3062,60.5239 201.3062,60.6989 C201.3062,60.8739 201.1652,61.0149 200.9922,61.0149 C200.8192,61.0149 200.6782,60.8739 200.6782,60.6989 C200.6782,60.5239 200.8192,60.3829 200.9922,60.3829" id="Fill-23" fill="#EE6055" mask="url(#mask-2)"></path>
                <polygon id="Fill-24" fill="#FD812D" mask="url(#mask-2)" points="48.9697 254.444 94.8947 208.16 140.8207 254.444"></polygon>
                <polygon id="Fill-25" fill="#FD812D" mask="url(#mask-2)" points="48.97 277.445 140.821 277.445 140.821 263.951 48.97 263.951"></polygon>
                <path d="M481.3301,0.0001 L401.1891,0.0001 C372.7801,0.0851 349.7701,23.0941 349.6851,51.5041 L349.6851,291.8561 C349.7701,320.2651 372.7801,343.2751 401.1891,343.3601 L481.3301,343.3601 C509.7391,343.2751 532.7491,320.2651 532.8341,291.8561 L532.8341,51.5041 C532.7491,23.0941 509.7391,0.0851 481.3301,0.0001 M481.3301,3.4341 C507.8781,3.4341 529.4001,24.9551 529.4001,51.5041 L529.4001,291.8561 C529.4001,318.4051 507.8781,339.9261 481.3301,339.9261 L401.1891,339.9261 C374.6411,339.9261 353.1191,318.4051 353.1191,291.8561 L353.1191,51.5041 C353.1191,24.9561 374.6411,3.4341 401.1891,3.4341 L481.3301,3.4341" id="Fill-26" fill="#00C66B" mask="url(#mask-2)"></path>
                <path d="M481.3301,17.1681 L401.1891,17.1681 C382.2261,17.1681 366.8531,32.5411 366.8531,51.5041 L366.8531,291.8561 C366.8531,310.8191 382.2261,326.1921 401.1891,326.1921 L481.3301,326.1921 C500.2931,326.1921 515.6661,310.8191 515.6661,291.8561 L515.6661,51.5041 C515.6661,32.5411 500.2931,17.1681 481.3301,17.1681 M481.3301,20.6021 C498.3961,20.6021 512.2321,34.4371 512.2321,51.5041 L512.2321,291.8561 C512.2321,308.9221 498.3961,322.7581 481.3301,322.7581 L401.1891,322.7581 C384.1221,322.7581 370.2871,308.9221 370.2871,291.8561 L370.2871,51.5041 C370.2871,34.4371 384.1221,20.6021 401.1891,20.6021 L481.3301,20.6021" id="Fill-27" fill="#00C66B" mask="url(#mask-2)"></path>
                <path d="M481.3301,34.3361 L401.1891,34.3361 C391.7081,34.3361 384.0211,42.0231 384.0211,51.5041 L384.0211,291.8561 C384.0211,301.3371 391.7081,309.0241 401.1891,309.0241 L481.3301,309.0241 C490.8111,309.0241 498.4981,301.3371 498.4981,291.8561 L498.4981,51.5041 C498.4981,42.0231 490.8111,34.3361 481.3301,34.3361 M481.3301,37.7701 C488.9151,37.7701 495.0641,43.9191 495.0641,51.5041 L495.0641,291.8561 C495.0641,299.4411 488.9151,305.5901 481.3301,305.5901 L401.1891,305.5901 C393.6041,305.5901 387.4551,299.4411 387.4551,291.8561 L387.4551,51.5041 C387.4551,43.9191 393.6041,37.7701 401.1891,37.7701 L481.3301,37.7701" id="Fill-28" fill="#00C66B" mask="url(#mask-2)"></path>
                <path d="M401.189,291.856 L481.33,291.856 L481.33,51.504 L401.189,51.504 L401.189,291.856 Z M404.623,288.422 L477.896,288.422 L477.896,54.937 L404.623,54.937 L404.623,288.422 Z" id="Fill-29" fill="#00C66B" mask="url(#mask-2)"></path>
                <path d="M418.358,274.688 L464.162,274.688 L464.162,68.672 L418.358,68.672 L418.358,274.688 Z M421.792,271.255 L460.729,271.255 L460.729,72.106 L421.792,72.106 L421.792,271.255 Z" id="Fill-30" fill="#00C66B" mask="url(#mask-2)"></path>
                <path d="M440.6934,85.84 L440.6934,257.52" id="Stroke-31" stroke="#00C66B" stroke-width="2" stroke-linecap="round" stroke-linejoin="round" mask="url(#mask-2)"></path>
                <polygon id="Fill-32" fill="#5CB7F0" mask="url(#mask-2)" points="854.9785 306.6569 771.8405 306.6569 771.8405 349.3599 865.9995 349.3599 865.9995 317.7639"></polygon>
                <path d="M789.0293,227.3893 L789.0293,227.3893 C790.4573,227.3893 791.6143,228.5553 791.6143,229.9933 L791.6143,289.2333 C791.6143,290.6713 790.4573,291.8373 789.0293,291.8373 C787.6023,291.8373 786.4453,290.6713 786.4453,289.2333 L786.4453,229.9933 C786.4453,228.5553 787.6023,227.3893 789.0293,227.3893" id="Fill-33" fill="#BABABA" mask="url(#mask-2)"></path>
                <path d="M799.0469,227.3893 L799.0469,227.3893 C800.4739,227.3893 801.6309,228.5553 801.6309,229.9933 L801.6309,289.2333 C801.6309,290.6713 800.4739,291.8373 799.0469,291.8373 C797.6189,291.8373 796.4619,290.6713 796.4619,289.2333 L796.4619,229.9933 C796.4619,228.5553 797.6189,227.3893 799.0469,227.3893" id="Fill-34" fill="#BABABA" mask="url(#mask-2)"></path>
                <path d="M809.0635,227.3893 L809.0635,227.3893 C810.4915,227.3893 811.6485,228.5553 811.6485,229.9933 L811.6485,289.2333 C811.6485,290.6713 810.4915,291.8373 809.0635,291.8373 C807.6365,291.8373 806.4795,290.6713 806.4795,289.2333 L806.4795,229.9933 C806.4795,228.5553 807.6365,227.3893 809.0635,227.3893" id="Fill-35" fill="#BABABA" mask="url(#mask-2)"></path>
                <path d="M819.0811,227.3893 L819.0801,227.3893 C820.5081,227.3893 821.6651,228.5553 821.6651,229.9933 L821.6651,289.2333 C821.6651,290.6713 820.5081,291.8373 819.0801,291.8373 L819.0811,291.8373 C817.6531,291.8373 816.4961,290.6713 816.4961,289.2333 L816.4961,229.9933 C816.4961,228.5553 817.6531,227.3893 819.0811,227.3893" id="Fill-36" fill="#BABABA" mask="url(#mask-2)"></path>
                <path d="M829.0977,227.3893 L829.0977,227.3893 C830.5247,227.3893 831.6817,228.5553 831.6817,229.9933 L831.6817,289.2333 C831.6817,290.6713 830.5247,291.8373 829.0977,291.8373 C827.6697,291.8373 826.5127,290.6713 826.5127,289.2333 L826.5127,229.9933 C826.5127,228.5553 827.6697,227.3893 829.0977,227.3893" id="Fill-37" fill="#BABABA" mask="url(#mask-2)"></path>
                <path d="M839.1143,227.3893 L839.1143,227.3893 C840.5423,227.3893 841.6993,228.5553 841.6993,229.9933 L841.6993,289.2333 C841.6993,290.6713 840.5423,291.8373 839.1143,291.8373 C837.6873,291.8373 836.5303,290.6713 836.5303,289.2333 L836.5303,229.9933 C836.5303,228.5553 837.6873,227.3893 839.1143,227.3893" id="Fill-38" fill="#BABABA" mask="url(#mask-2)"></path>
                <path d="M849.1318,227.3893 L849.1318,227.3893 C850.5588,227.3893 851.7158,228.5553 851.7158,229.9933 L851.7158,289.2333 C851.7158,290.6713 850.5588,291.8373 849.1318,291.8373 C847.7038,291.8373 846.5468,290.6713 846.5468,289.2333 L846.5468,229.9933 C846.5468,228.5553 847.7038,227.3893 849.1318,227.3893" id="Fill-39" fill="#BABABA" mask="url(#mask-2)"></path>
                <polygon id="Fill-40" fill="#1F1E1E" mask="url(#mask-2)" points="776.429 278.844 861.733 278.844 861.733 240.392 776.429 240.392"></polygon>
                <polyline id="Stroke-41" stroke="#5CB7F0" stroke-width="4" stroke-linecap="round" stroke-linejoin="round" mask="url(#mask-2)" points="621 279.4752 644.717 278.2372 633.564 257.1062 657.281 255.8682 646.129 234.7372 669.846 233.4982 658.693 212.3682 682.41 211.1292 671.264 189.9872 694.98 188.7482 683.835 167.6072 707.551 166.3692 696.399 145.2382 720.122 143.9882 708.976 122.8462 732.692 121.6082 721.547 100.4662 745.264 99.2272 734.111 78.0972 757.834 76.8472 746.688 55.7052 770.411 54.4552 759.266 33.3132 782.988 32.0642"></polyline>
                <path d="M819.4209,128.0426 C843.0599,128.0426 862.2229,147.3556 862.2229,171.1796 C862.2229,195.0026 843.0599,214.3146 819.4209,214.3146 C795.7819,214.3146 776.6189,195.0026 776.6189,171.1796 C776.6189,147.3556 795.7819,128.0426 819.4209,128.0426" id="Fill-42" fill="#00C66B" mask="url(#mask-2)"></path>
                <path d="M819.9922,31.36 C796.2422,31.36 776.9892,50.763 776.9892,74.699 C776.9892,98.634 796.2422,118.038 819.9922,118.038 C843.7422,118.038 862.9952,98.634 862.9952,74.699 C862.9952,50.763 843.7422,31.36 819.9922,31.36 M819.9922,36.422 C840.9682,36.422 857.9722,53.559 857.9722,74.699 C857.9722,95.839 840.9682,112.976 819.9922,112.976 C799.0152,112.976 782.0122,95.839 782.0122,74.699 C782.0322,53.568 799.0242,36.443 819.9922,36.422" id="Fill-43" fill="#EE6055" mask="url(#mask-2)"></path>
                <path d="M819.9922,44.0138 C803.1772,44.0138 789.5452,57.7518 789.5452,74.6988 C789.5452,91.6458 803.1772,105.3838 819.9922,105.3838 C836.8072,105.3838 850.4392,91.6458 850.4392,74.6988 C850.4192,57.7608 836.7992,44.0348 819.9922,44.0138 M819.9922,49.0758 C834.0342,49.0758 845.4172,60.5478 845.4172,74.6988 C845.4172,88.8498 834.0342,100.3228 819.9922,100.3228 C805.9502,100.3228 794.5672,88.8498 794.5672,74.6988 C794.5812,60.5528 805.9562,49.0888 819.9922,49.0758" id="Fill-44" fill="#EE6055" mask="url(#mask-2)"></path>
                <path d="M819.9922,56.6671 C810.1102,56.6671 802.1002,64.7401 802.1002,74.6991 C802.1002,84.6571 810.1102,92.7301 819.9922,92.7301 C829.8732,92.7301 837.8842,84.6571 837.8842,74.6991 C837.8702,64.7461 829.8672,56.6811 819.9922,56.6671 M819.9922,61.7291 C827.0992,61.7291 832.8612,67.5361 832.8612,74.6991 C832.8612,81.8621 827.0992,87.6691 819.9922,87.6691 C812.8852,87.6691 807.1232,81.8621 807.1232,74.6991 C807.1302,67.5391 812.8882,61.7361 819.9922,61.7291" id="Fill-45" fill="#EE6055" mask="url(#mask-2)"></path>
                <path d="M819.9922,69.3209 C817.0452,69.3209 814.6562,71.7289 814.6562,74.6989 C814.6562,77.6689 817.0452,80.0769 819.9922,80.0769 C822.9392,80.0769 825.3282,77.6689 825.3282,74.6989 C825.3282,71.7289 822.9392,69.3209 819.9922,69.3209 M819.9922,74.3829 C820.1652,74.3829 820.3052,74.5239 820.3052,74.6989 C820.3052,74.8739 820.1652,75.0149 819.9922,75.0149 C819.8182,75.0149 819.6792,74.8739 819.6792,74.6989 C819.6792,74.5239 819.8182,74.3829 819.9922,74.3829" id="Fill-46" fill="#EE6055" mask="url(#mask-2)"></path>
                <polygon id="Fill-47" fill="#FD812D" mask="url(#mask-2)" points="667.9697 268.444 713.8947 222.16 759.8207 268.444"></polygon>
                <polygon id="Fill-48" fill="#FD812D" mask="url(#mask-2)" points="667.97 291.445 759.821 291.445 759.821 277.951 667.97 277.951"></polygon>
            </g>
        </g>
    </g>
</svg>