<svg id="Layer_1" data-name="Layer 1" xmlns="http://www.w3.org/2000/svg" viewBox="0 0 297 245">
  <defs>
    <style>
      .cls-1 {
        fill: none;
        stroke: #f7b05b;
        stroke-linecap: round;
        stroke-linejoin: round;
        stroke-width: 4px;
      }
    </style>
  </defs>
  <title>born_in_sweden</title>
  <g>
    <rect class="cls-1" x="23.19" y="154.2" width="77.7" height="54.74" transform="translate(-110.22 97.05) rotate(-45)"/>
    <polyline class="cls-1" points="87.72 147.66 53.73 181.65 39.03 166.94"/>
    <polyline class="cls-1" points="80.48 208.4 61.96 189.88 93.62 158.22"/>
    <polyline class="cls-1" points="38.68 213.16 53.73 198.1 65.16 209.53"/>
    <polyline class="cls-1" points="27.45 171.82 45.5 189.88 30.45 204.93"/>
  </g>
  <g>
    <circle class="cls-1" cx="242.05" cy="56.34" r="39.74"/>
    <path class="cls-1" d="M203.32,47.45c13.16,1,17.16-12.76,30.16-13.18s17.17,11.67,7.83,22.07c-8.16,9.1-13.33,11.6-9.33,22.26s-5.55,14.29-5.55,14.29"/>
    <path class="cls-1" d="M276.89,37.23c-3.68,1-14.08-3.88-16.92.14-5,7.07,15,18.36,4.25,29.25-7.83,7.91-2.83,11.74,7.63,16"/>
  </g>
  <g>
    <path class="cls-1" d="M100.82,143.38s17.5-31.06,45.5-31.35,42.58,13.85,38.86,32.35c-5,24.89-36.86,28-36.86-6.82s41-57.29,41-57.29"/>
    <g>
      <line class="cls-1" x1="192.02" y1="79.36" x2="178.35" y2="75.22"/>
      <line class="cls-1" x1="188.32" y1="91.33" x2="192.02" y2="79.36"/>
    </g>
  </g>
</svg>
