<svg id="Layer_1" data-name="Layer 1" xmlns="http://www.w3.org/2000/svg" viewBox="0 0 2058 635">
  <defs>
    <style>
      .cls-1 {
        fill: none;
        stroke: #000;
        stroke-linecap: round;
        stroke-linejoin: round;
        stroke-width: 14px;
      }

      .cls-2 {
        fill: #f06543;
      }

      .cls-3 {
        fill: #f7b05b;
      }

      .cls-4 {
        fill: #e1dd8f;
      }
    </style>
  </defs>
  <title>index-hero</title>
  <path class="cls-1" d="M45.83,310.85c33.25-12.54,40.31,6.17,73.56-6.38s26.19-31.26,59.45-43.8,40.31,6.17,73.57-6.38,26.2-31.26,59.45-43.81,40.32,6.17,73.57-6.38"/>
  <path class="cls-1" d="M19.7,482.92s111.62-14.49,234.2-90c116.47-71.74,203.33-180.83,203.33-180.83"/>
  <path class="cls-1" d="M1543.38,200s111.62,14.49,234.2,90c116.47,71.74,203.33,180.83,203.33,180.83"/>
  <path class="cls-1" d="M538.06,345.49S617.76,425,752.45,475.83c128,48.32,267.41,50.38,267.41,50.38"/>
  <rect class="cls-1" x="74.63" y="127.87" width="281.99" height="439.26" rx="20" ry="20"/>
  <rect class="cls-1" x="570.61" y="127.87" width="528.64" height="439.26" rx="27.38" ry="27.38"/>
  <rect class="cls-1" x="1409.45" y="-13.03" width="528.64" height="721.06" rx="35.09" ry="35.09" transform="translate(2021.27 -1326.27) rotate(90)"/>
  <circle class="cls-2" cx="495.59" cy="170.3" r="29.7"/>
  <circle class="cls-1" cx="215.63" cy="512.61" r="15.58"/>
  <path class="cls-1" d="M622.62,303.25s54.17-72.08,212.82-9.24,225.18-8.24,225.18-8.24"/>
  <rect class="cls-3" x="1062.04" y="500.39" width="51.64" height="51.64" transform="translate(-53.46 923.36) rotate(-45)"/>
  <path class="cls-1" d="M1429.38,528.19s110-27,116-121-124-46-76,24,162,4,188-26"/>
  <polygon class="cls-4" points="1438.71 178.16 1488.19 164.33 1502.02 213.81 1438.71 178.16"/>
  <path class="cls-1" d="M1148.8,435.85s5.55-69.8,81-116.9c64-39.95,125-26.67,125-26.67"/>
</svg>
