<svg id="Layer_1" data-name="Layer 1" xmlns="http://www.w3.org/2000/svg" viewBox="0 0 209 209">
  <defs>
    <style>
      .cls-1 {
        fill: #201E1E;
      }

      .cls-2 {
        fill: none;
        stroke: #201E1E;
        stroke-miterlimit: 10;
        stroke-width: 15px;
      }
    </style>
  </defs>
  <title>kollegorna-k</title>
  <path class="cls-1" d="M99.2,131.94l-7.14-18.06-4.52,21.27c-2.33,10.93-7.43,16.46-17.77,16.46h-5.1c-9.61,0-15.3-5.83-13-16.75l13.4-62.79C67.44,61,72.54,55.89,82.59,55.89H88c9.62,0,15.3,5.83,13,16.75L96.28,94.5l33.65-40.06c.44-.44,22.44,3.5,22.44,17.19,0,5-2.77,10.34-8.74,16l-19.52,19.81,7.72,15.44c3.93,7.87,7.72,10.78,14,11.07,1,0,.15,18.07-20.83,18.07C109.83,152,104.29,144.91,99.2,131.94Z"/>
  <circle class="cls-2" cx="104.5" cy="104.5" r="92.12"/>
</svg>
