<?xml version="1.0" encoding="UTF-8"?>
<svg width="35px" height="35px" viewBox="0 0 35 35" version="1.1" xmlns="http://www.w3.org/2000/svg" xmlns:xlink="http://www.w3.org/1999/xlink">
    <!-- Generator: Sketch 44.1 (41455) - http://www.bohemiancoding.com/sketch -->
    <title>language-icon</title>
    <desc>Created with Sketch.</desc>
    <defs></defs>
    <g id="Page-1" stroke="none" stroke-width="1" fill="none" fill-rule="evenodd">
        <g id="language-icon" transform="translate(1.000000, 1.000000)">
            <g id="language" transform="translate(7.000000, 9.000000)" fill-rule="nonzero" fill="#222222">
                <path d="M8.63525791,8.40016167 C7.46432524,7.25921792 6.44457628,6.26785806 5.85762775,3.98597057 L9.96033868,3.98597057 L9.96033868,2.26722241 L5.85762775,2.26722241 L5.85762775,0.00586603469 L4.09974655,0.00586603469 L4.09974655,2.28775353 L0,2.28775353 L0,4.00943471 L4.09974655,4.00943471 C4.09974655,4.59017214 4.15606989,4.3467317 4.09974655,4.59017214 C3.5157624,6.84566248 2.81616719,8.28577399 0,9.68775628 L0.586948529,11.4094375 C3.251932,9.98985707 4.65112244,8.25057779 5.27364361,6.26785806 C5.86059213,7.76369691 6.85959039,8.96036798 7.99495042,10.0807806 L8.63525791,8.40016167 Z" id="Shape"></path>
                <path d="M14.0422989,2.84502682 L11.7004336,2.84502682 L7.59772263,14.2515313 L9.35560383,14.2515313 L10.5265365,10.8287 L15.2132316,10.8287 L16.3841643,14.2515313 L18.1420455,14.2515313 L14.0422989,2.84502682 Z M11.113485,9.12754997 L12.8713662,4.566708 L14.6292474,9.13048299 L11.113485,9.12754997 L11.113485,9.12754997 Z" id="Shape"></path>
            </g>
            <circle id="Oval" stroke="#222222" stroke-width="2" cx="16.109375" cy="16.109375" r="16.109375"></circle>
        </g>
    </g>
</svg>