<svg xmlns="http://www.w3.org/2000/svg" xmlns:xlink="http://www.w3.org/1999/xlink">
	<symbol id="language" viewBox="0 0 35 35">
		<title>Language Selector Icon</title>
		<path d="M16.6,18.4c-1.1-1.1-2.2-2.1-2.7-4.4H18v-1.7h-4.1V10h-1.8v2.3H8V14h4.1c0,0.6,0.1,0.3,0,0.6
			c-0.6,2.2-1.3,3.7-4.1,5.1l0.6,1.7c2.7-1.4,4.1-3.1,4.7-5.1c0.6,1.5,1.6,2.7,2.7,3.8L16.6,18.4z"/>
		<path d="M22,12.8h-2.3l-4.1,11.5h1.8l1.2-3.4h4.7l1.2,3.4h1.8L22,12.8z M19.1,19.1l1.8-4.6l1.8,4.6H19.1L19.1,19.1z"/>
		<path d="M17.1,34.2C7.7,34.2,0,26.5,0,17.1S7.7,0,17.1,0s17.1,7.7,17.1,17.1S26.5,34.2,17.1,34.2z M17.1,2
			C8.8,2,2,8.8,2,17.1s6.8,15.1,15.1,15.1s15.1-6.8,15.1-15.1S25.4,2,17.1,2z"/>
	</symbol>
</svg>
