<svg xmlns="http://www.w3.org/2000/svg" xmlns:xlink="http://www.w3.org/1999/xlink" viewBox="0 0 794 397.3" enable-background="new 0 0 794 397.3"><style type="text/css">.st0{enable-background:new ;} .st1{clip-path:url(#SVGID_2_);} .st2{clip-path:url(#SVGID_4_);} .st3{clip-path:url(#SVGID_6_);fill:#BABABA;} .st4{clip-path:url(#SVGID_8_);} .st5{clip-path:url(#SVGID_10_);} .st6{clip-path:url(#SVGID_12_);fill:#BABABA;} .st7{clip-path:url(#SVGID_14_);} .st8{clip-path:url(#SVGID_16_);} .st9{clip-path:url(#SVGID_18_);fill:#BABABA;} .st10{clip-path:url(#SVGID_20_);} .st11{clip-path:url(#SVGID_22_);} .st12{clip-path:url(#SVGID_24_);fill:#BABABA;} .st13{clip-path:url(#SVGID_26_);} .st14{clip-path:url(#SVGID_28_);} .st15{clip-path:url(#SVGID_30_);fill:#BABABA;} .st16{clip-path:url(#SVGID_32_);} .st17{clip-path:url(#SVGID_34_);} .st18{clip-path:url(#SVGID_36_);fill:#BABABA;} .st19{fill:#1F1E1E;} .st20{fill:#FFFFFF;} .st21{fill:none;stroke:#5CB7F0;stroke-width:3.2;stroke-linecap:round;stroke-linejoin:round;} .st22{fill:none;stroke:#FFFFFF;stroke-width:3.2;stroke-linecap:round;stroke-linejoin:round;} .st23{fill:#FFFC78;} .st24{fill:#F5F5F5;} .st25{fill:none;stroke:#F5F5F5;stroke-width:1.6;stroke-linecap:round;stroke-linejoin:round;} .st26{fill:none;stroke:#FFFFFF;stroke-width:1.6;stroke-linecap:round;stroke-linejoin:round;} .st27{fill:#FD812D;} .st28{fill:none;stroke:#00C66B;stroke-width:1.6;stroke-linecap:round;stroke-linejoin:round;} .st29{fill:none;stroke:#EE6055;stroke-width:1.6;stroke-linecap:round;stroke-linejoin:round;} .st30{fill:none;stroke:#FFFFFF;stroke-width:3;stroke-linecap:round;stroke-linejoin:round;stroke-miterlimit:10;} .st31{fill-rule:evenodd;clip-rule:evenodd;fill:none;stroke:#FFFFFF;stroke-width:3;stroke-linecap:round;stroke-linejoin:round;stroke-miterlimit:10;}</style><g class="st0"><defs><path id="SVGID_1_" d="M332.4 139h10.7v115.7h-10.7z"/></defs><clipPath id="SVGID_2_"><use xlink:href="#SVGID_1_" overflow="visible"/></clipPath><g class="st1"><defs><path id="SVGID_3_" d="M337.8 139.7c2.5 0 4.6 2.1 4.6 4.6v105.4c0 2.6-2.1 4.6-4.6 4.6-2.5 0-4.6-2.1-4.6-4.6v-105.4c0-2.5 2-4.6 4.6-4.6"/></defs><clipPath id="SVGID_4_"><use xlink:href="#SVGID_3_" overflow="visible"/></clipPath><g class="st2"><defs><path id="SVGID_5_" d="M314.6 139h153v115.7h-153z"/></defs><clipPath id="SVGID_6_"><use xlink:href="#SVGID_5_" overflow="visible"/></clipPath><path class="st3" d="M324.3 130.8h27v132.5h-27z"/></g></g></g><g class="st0"><defs><path id="SVGID_7_" d="M350.2 139h10.7v115.7h-10.7z"/></defs><clipPath id="SVGID_8_"><use xlink:href="#SVGID_7_" overflow="visible"/></clipPath><g class="st4"><defs><path id="SVGID_9_" d="M355.6 139.7c2.5 0 4.6 2.1 4.6 4.6v105.4c0 2.6-2.1 4.6-4.6 4.6-2.5 0-4.6-2.1-4.6-4.6v-105.4c0-2.5 2-4.6 4.6-4.6"/></defs><clipPath id="SVGID_10_"><use xlink:href="#SVGID_9_" overflow="visible"/></clipPath><g class="st5"><defs><path id="SVGID_11_" d="M314.6 139h153v115.7h-153z"/></defs><clipPath id="SVGID_12_"><use xlink:href="#SVGID_11_" overflow="visible"/></clipPath><path class="st6" d="M342.1 130.8h27v132.5h-27z"/></g></g></g><g class="st0"><defs><path id="SVGID_13_" d="M367.9 139h10.7v115.7h-10.7z"/></defs><clipPath id="SVGID_14_"><use xlink:href="#SVGID_13_" overflow="visible"/></clipPath><g class="st7"><defs><path id="SVGID_15_" d="M373.4 139.7c2.5 0 4.6 2.1 4.6 4.6v105.4c0 2.6-2.1 4.6-4.6 4.6-2.5 0-4.6-2.1-4.6-4.6v-105.4c0-2.5 2.1-4.6 4.6-4.6"/></defs><clipPath id="SVGID_16_"><use xlink:href="#SVGID_15_" overflow="visible"/></clipPath><g class="st8"><defs><path id="SVGID_17_" d="M314.6 139h153v115.7h-153z"/></defs><clipPath id="SVGID_18_"><use xlink:href="#SVGID_17_" overflow="visible"/></clipPath><path class="st9" d="M359.9 130.8h27v132.5h-27z"/></g></g></g><g class="st0"><defs><path id="SVGID_19_" d="M421.4 139h10.7v115.7h-10.7z"/></defs><clipPath id="SVGID_20_"><use xlink:href="#SVGID_19_" overflow="visible"/></clipPath><g class="st10"><defs><path id="SVGID_21_" d="M426.9 139.7c2.5 0 4.6 2.1 4.6 4.6v105.4c0 2.6-2.1 4.6-4.6 4.6-2.5 0-4.6-2.1-4.6-4.6v-105.4c0-2.5 2.1-4.6 4.6-4.6"/></defs><clipPath id="SVGID_22_"><use xlink:href="#SVGID_21_" overflow="visible"/></clipPath><g class="st11"><defs><path id="SVGID_23_" d="M339.1 139h146.4v115.7h-146.4z"/></defs><clipPath id="SVGID_24_"><use xlink:href="#SVGID_23_" overflow="visible"/></clipPath><path class="st12" d="M420.1 263.3h27l-6.7-132.5h-27z"/></g></g></g><g class="st0"><defs><path id="SVGID_25_" d="M439.2 139h10.7v115.7h-10.7z"/></defs><clipPath id="SVGID_26_"><use xlink:href="#SVGID_25_" overflow="visible"/></clipPath><g class="st13"><defs><path id="SVGID_27_" d="M444.7 139.7c2.5 0 4.6 2.1 4.6 4.6v105.4c0 2.6-2.1 4.6-4.6 4.6-2.5 0-4.6-2.1-4.6-4.6v-105.4c0-2.5 2.1-4.6 4.6-4.6"/></defs><clipPath id="SVGID_28_"><use xlink:href="#SVGID_27_" overflow="visible"/></clipPath><g class="st14"><defs><path id="SVGID_29_" d="M339.1 139h146.4v115.7h-146.4z"/></defs><clipPath id="SVGID_30_"><use xlink:href="#SVGID_29_" overflow="visible"/></clipPath><path class="st15" d="M437.9 263.3h27l-6.7-132.5h-27z"/></g></g></g><g class="st0"><defs><path id="SVGID_31_" d="M457 139h10.7v115.7h-10.7z"/></defs><clipPath id="SVGID_32_"><use xlink:href="#SVGID_31_" overflow="visible"/></clipPath><g class="st16"><defs><path id="SVGID_33_" d="M462.6 139.7c2.5 0 4.6 2.1 4.6 4.6v105.4c0 2.6-2.1 4.6-4.6 4.6-2.5 0-4.6-2.1-4.6-4.6v-105.4c0-2.5 2-4.6 4.6-4.6"/></defs><clipPath id="SVGID_34_"><use xlink:href="#SVGID_33_" overflow="visible"/></clipPath><g class="st17"><defs><path id="SVGID_35_" d="M339.1 139h146.4v115.7h-146.4z"/></defs><clipPath id="SVGID_36_"><use xlink:href="#SVGID_35_" overflow="visible"/></clipPath><path class="st18" d="M455.7 263.3h27l-6.6-132.5h-27z"/></g></g></g><path class="st19" d="M323 231.2h76l4.3-10.3-4.6-7.6 2.3-10.7-6.9-6.2 12.3-14.5-7.7-5.4 4.6-7.6-1.4-6.1h-78.9zM408.9 176.5l7.7 5.4-12.2 14.5 6.8 6.2-2.3 10.7 4.6 7.6-4.2 10.3h75.7v-68.4h-72.9l1.4 6.1z"/><path id="Fill-50" class="st20" d="M202.4 113.2c0-4.5 3.5-8.1 7.9-8.1s7.9 3.6 7.9 8.1-3.5 8.1-7.9 8.1-7.9-3.6-7.9-8.1z"/><path id="Fill-51" class="st20" d="M694.8 207.1c0 4.5-3.5 8.1-7.9 8.1s-7.9-3.6-7.9-8.1 3.5-8.1 7.9-8.1c4.3 0 7.9 3.6 7.9 8.1z"/><path id="Fill-52" class="st20" d="M718.5 207.1c0 4.5-3.5 8.1-7.9 8.1s-7.9-3.6-7.9-8.1 3.5-8.1 7.9-8.1 7.9 3.6 7.9 8.1z"/><path id="Fill-53" class="st20" d="M395.3 8.1c0 4.5-3.5 8.1-7.9 8.1s-7.9-3.6-7.9-8.1 3.5-8.1 7.9-8.1 7.9 3.6 7.9 8.1z"/><path id="Fill-54" class="st20" d="M419 8.1c0 4.5-3.5 8.1-7.9 8.1s-7.9-3.6-7.9-8.1 3.5-8.1 7.9-8.1 7.9 3.6 7.9 8.1z"/><path id="Fill-55" class="st20" d="M226.2 89.1c0-4.5 3.5-8.1 7.9-8.1s7.9 3.6 7.9 8.1-3.5 8.1-7.9 8.1-7.9-3.7-7.9-8.1z"/><path id="Fill-56" class="st20" d="M202.4 89.1c0-4.5 3.5-8.1 7.9-8.1s7.9 3.6 7.9 8.1-3.5 8.1-7.9 8.1-7.9-3.7-7.9-8.1z"/><path id="Fill-57" class="st20" d="M694.8 231.2c0 4.5-3.5 8.1-7.9 8.1s-7.9-3.6-7.9-8.1 3.5-8.1 7.9-8.1c4.3.1 7.9 3.7 7.9 8.1z"/><path id="Fill-58" class="st20" d="M718.5 231.2c0 4.5-3.5 8.1-7.9 8.1s-7.9-3.6-7.9-8.1 3.5-8.1 7.9-8.1c4.4.1 7.9 3.7 7.9 8.1z"/><path id="Fill-59" class="st20" d="M395.3 32.2c0 4.5-3.5 8.1-7.9 8.1s-7.9-3.6-7.9-8.1 3.5-8.1 7.9-8.1 7.9 3.7 7.9 8.1z"/><path id="Fill-60" class="st20" d="M419 32.2c0 4.5-3.5 8.1-7.9 8.1s-7.9-3.6-7.9-8.1 3.5-8.1 7.9-8.1 7.9 3.7 7.9 8.1z"/><path id="Stroke-98" class="st21" d="M44 266.5l15 64.5 15-64.5 15 64.5 15-64.5 15 64.5 15-64.5 15 64.5s7.5-64.5 15-64.5l15 64.5"/><path id="Fill-123" class="st20" d="M2.9 176.9l44.5 45.3h-44.5v-45.3zm-2.9-7.1v55.3h54.3l-4.9-5-44.5-45.2-4.9-5.1z"/><path id="Stroke-154" class="st22" d="M22.2 171.6l50.5 51.5"/><path id="Fill-208" class="st23" d="M165.5 73.5h-32l-7.7-7.8v-32.6l7.7-7.9h32l7.8 7.9v32.6z"/><path id="Fill-312" class="st20" d="M685.1 73.4l-23.5 24v-48.2l23.5 24.1z"/><path id="Fill-313" class="st20" d="M708.5 73.4l-23.4 24v-48.2l23.4 24.1z"/><path id="Fill-314" class="st20" d="M708.5 97.4h4.5v-48.2h-4.5z"/><path id="Fill-342" class="st20" d="M233.2 382c0 8.5-6.8 15.4-15.1 15.4s-15.1-6.9-15.1-15.4 6.8-15.4 15.1-15.4 15.1 6.9 15.1 15.4z"/><path id="Fill-343" class="st20" d="M130 238.5v-27.7h27.2z"/><path id="Fill-344" class="st20" d="M190.1 163.1l16.6 16.9-16.6 16.9-16.6-16.9z"/><path id="Fill-347" class="st20" d="M569.7 318.8c0 7.6-6.1 13.8-13.6 13.8s-13.6-6.2-13.6-13.8 6.1-13.9 13.6-13.9c7.5.1 13.6 6.3 13.6 13.9z"/><path id="Fill-127" class="st20" d="M637.2 321.1l-31.2 19.6v-39.1z"/><path id="Fill-423" class="st20" d="M178.3 249.8v-28.6h64.5v28.6z"/><path id="Fill-424" class="st24" d="M202.7 235.6c0 4.7-3.7 8.5-8.3 8.5s-8.3-3.8-8.3-8.5 3.7-8.5 8.3-8.5 8.3 3.8 8.3 8.5z"/><path id="Stroke-425" class="st25" d="M210.5 244.1v-17"/><path id="Stroke-426" class="st25" d="M218.3 244.1v-17"/><path id="Stroke-427" class="st25" d="M226.1 244.1v-17"/><path id="Stroke-428" class="st25" d="M233.9 244.1v-17"/><path id="Fill-429" class="st20" d="M340.8 18.5v28.6h-64.5v-28.6z"/><path id="Fill-430" class="st24" d="M332.9 32.9c0 4.7-3.7 8.5-8.3 8.5s-8.3-3.8-8.3-8.5 3.7-8.5 8.3-8.5 8.3 3.8 8.3 8.5z"/><path id="Stroke-431" class="st25" d="M308.5 24.4v17"/><path id="Stroke-432" class="st25" d="M300.7 24.4v17"/><path id="Stroke-433" class="st25" d="M292.8 24.4v17"/><path id="Stroke-434" class="st25" d="M285 24.4v17"/><path id="Fill-498" class="st20" d="M555.7 170.8h30.8v-31.1h-30.8z"/><path id="Stroke-508" class="st26" d="M604.5 127.6h72.5v39.8h-72.5z"/><path id="Stroke-509" class="st26" d="M613.3 127.6v39.7"/><path id="Stroke-510" class="st26" d="M621.1 127.6v39.7"/><path id="Stroke-511" class="st26" d="M628.9 127.6v39.7"/><path id="Stroke-512" class="st26" d="M636.7 127.6v39.7"/><path id="Stroke-513" class="st26" d="M644.5 127.6v39.7"/><path id="Stroke-514" class="st26" d="M652.3 127.6v39.7"/><path id="Stroke-515" class="st26" d="M660.1 127.6v39.7"/><path id="Fill-534_1_" class="st20" d="M695.7 309.5h3.3v-18.7h-3.3z"/><path id="Fill-535_1_" class="st20" d="M691.8 328.4h3.2l.1-18.7h-3.3z"/><path id="Fill-537_1_" class="st20" d="M698.6 328.4h3.2l.1-18.7h-3.3z"/><path id="Fill-541_1_" class="st20" d="M688.9 309.5h3.2l.1-18.7h-3.3z"/><path id="Fill-534_2_" class="st20" d="M717.7 309.6h3.3v-18.8h-3.3z"/><path id="Fill-535_2_" class="st20" d="M713.8 328.4l3.2.1.1-18.8h-3.3z"/><path id="Fill-537_2_" class="st20" d="M720.6 328.5h3.2l.1-18.8h-3.3z"/><path id="Fill-541_2_" class="st20" d="M710.9 309.6h3.2l.1-18.8h-3.3z"/><path id="Fill-534_3_" class="st20" d="M222.7 299.6h3.3v-18.7h-3.3z"/><path id="Fill-535_3_" class="st20" d="M218.8 318.5h3.2l.1-18.7h-3.3z"/><path id="Fill-537_3_" class="st20" d="M225.6 318.5h3.2l.1-18.7h-3.3z"/><path id="Fill-541_3_" class="st20" d="M215.9 299.6h3.2l.1-18.7h-3.3z"/><path id="Fill-534_4_" class="st20" d="M244.7 299.7h3.3v-18.8h-3.3z"/><path id="Fill-535_4_" class="st20" d="M240.8 318.5l3.2.1.1-18.8h-3.3z"/><path id="Fill-537_4_" class="st20" d="M247.6 318.6h3.2l.1-18.8h-3.3z"/><path id="Fill-541_4_" class="st20" d="M237.9 299.7h3.2l.1-18.8h-3.3z"/><path id="Fill-561" class="st20" d="M645.1 210.8v50.1h-49.2v-50.1h49.2zm1.6-1.6h-52.3v53.3h52.3v-53.3z"/><path id="Fill-562" class="st27" d="M609.9 246.5h21.1v-21.4h-21.1z"/><path id="Fill-565" class="st20" d="M724.1 132.2h-17.8l-8.8 15.6 8.8 15.7h17.8l8.9-15.7z"/><path id="Stroke-567" class="st28" d="M589.5 81.9v-56"/><path id="Stroke-568" class="st28" d="M597.3 81.9v-56"/><path id="Stroke-569" class="st28" d="M605.1 81.9v-56"/><path id="Stroke-570" class="st28" d="M613 81.9v-56"/><path id="Stroke-571" class="st28" d="M620.8 81.9v-56"/><path id="Stroke-572" class="st28" d="M628.6 81.9v-56"/><path id="Stroke-573" class="st28" d="M581.7 73.9v-48"/><path id="Stroke-574" class="st28" d="M566.1 58v-32.1"/><path id="Stroke-575" class="st28" d="M558.3 50.1v-24.2"/><path id="Stroke-576" class="st28" d="M550.5 42.1v-16.2"/><path id="Stroke-577" class="st28" d="M573.9 66v-40.1"/><path id="Stroke-578" class="st29" d="M477 352.3h-27"/><path id="Stroke-578_1_" class="st29" d="M477 362.3h-27"/><path id="Stroke-578_2_" class="st29" d="M477 372.3h-27"/><path id="Stroke-578_3_" class="st29" d="M477 382.3h-27"/><path id="Stroke-579" class="st26" d="M530.3 374.4h51c4 0 7.2 3.3 7.2 7.4 0 4.1-3.2 7.4-7.2 7.4h-51c-4 0-7.2-3.3-7.2-7.4 0-4.1 3.2-7.4 7.2-7.4z"/><path id="Stroke-580" class="st26" d="M534.8 381.4c0 2.2-1.8 4-3.9 4-2.2 0-3.9-1.8-3.9-4s1.7-4 3.9-4 3.9 1.8 3.9 4z"/><path id="Stroke-581" class="st26" d="M583.6 381.4c0 2.2-1.7 4-3.9 4s-3.9-1.8-3.9-4 1.8-4 3.9-4c2.2 0 3.9 1.8 3.9 4z"/><path id="Fill-582" class="st20" d="M303.7 336.7v28.2h-15.8l-11.8-12.1v-16.1h27.6zm1.6-1.5h-30.8v18.4l12.8 13h18v-31.4z"/><path id="Fill-585" class="st20" d="M365.3 377.2l30.9-33v-.5h-30.9z"/><path id="Stroke-586" class="st26" d="M474.7 63.8h30.8"/><path id="Stroke-587" class="st26" d="M474.7 55.8h30.8"/><path id="Stroke-588" class="st26" d="M474.7 47.9h30.8"/><path id="Stroke-589" class="st26" d="M474.7 39.9h30.8"/><path class="st30" d="M95.4 109.6v7.2M88.6 110.5l1.8 7M82.1 113.2l3.6 6.2M76.6 117.4l5.1 5.1M72.4 122.9l6.2 3.6M69.7 129.3l7 1.9M68.8 136.2h7.2M69.7 143.1l7-1.9M72.4 149.5l6.2-3.6M76.6 155l5.1-5.1M82.1 159.3l3.6-6.3M88.6 161.9l1.8-7M95.4 162.8v-7.2M102.3 161.9l-1.8-7M108.7 159.3l-3.6-6.3M114.3 155l-5.1-5.1M118.5 149.5l-6.3-3.6M121.1 143.1l-6.9-1.9M122 136.2h-7.2M121.1 129.3l-6.9 1.9M118.5 122.9l-6.3 3.6M114.3 117.4l-5.1 5.1M108.7 113.2l-3.6 6.2M102.3 110.5l-1.8 7"/><circle class="st31" cx="95.4" cy="136.2" r="10.2"/><path class="st20" d="M762.6 169.4v25h-3.8v-25h3.8m1.5-1.5h-6.8v28h6.8v-28zM762.6 200.1v28.2h-3.8v-28.2h3.8m1.5-1.5h-6.8v31.2h6.8v-31.2zM772.6 169.4v34.6h-3.8v-34.6h3.8m1.5-1.5h-6.8v37.6h6.8v-37.6zM772.6 209.7v18.6h-3.8v-18.6h3.8m1.5-1.5h-6.8v21.6h6.8v-21.6zM782.5 169.4v14.5h-3.8v-14.5h3.8m1.5-1.5h-6.8v17.5h6.8v-17.5zM782.5 189.6v38.7h-3.8v-38.7h3.8m1.5-1.5h-6.8v41.7h6.8v-41.7zM792.5 169.4v41.9h-3.8v-41.9h3.8m1.5-1.5h-6.8v44.9h6.8v-44.9zM792.5 217.1v11.3h-3.8v-11.3h3.8m1.5-1.5h-6.8v14.3h6.8v-14.3z"/></svg>