<svg xmlns="http://www.w3.org/2000/svg" xmlns:xlink="http://www.w3.org/1999/xlink">

  <symbol id="icon-logo" viewBox="0 0 199.2 199.2">
    <title>logo</title>
    <path d="M94.3 127.1l-7.1-18.1-4.5 21.3c-2.3 10.9-7.4 16.5-17.8 16.5h-5.1c-9.6 0-15.3-5.8-13-16.8l13.4-62.8c2.4-11.1 7.5-16.2 17.5-16.2h5.4c9.6 0 15.3 5.8 13 16.8l-4.7 21.9 33.6-40.1c.4-.4 22.4 3.5 22.4 17.2 0 5-2.8 10.3-8.7 16l-19.5 19.8 7.8 15.4c3.9 7.9 7.7 10.8 14 11.1 1 0 .1 18.1-20.8 18.1-15.2-.1-20.8-7.2-25.9-20.1zM99.6 199.2c-54.9 0-99.6-44.6-99.6-99.6s44.7-99.6 99.6-99.6 99.6 44.7 99.6 99.6-44.6 99.6-99.6 99.6zm0-184.2c-46.6 0-84.6 38-84.6 84.6 0 46.7 38 84.6 84.6 84.6 46.7 0 84.6-38 84.6-84.6 0-46.6-37.9-84.6-84.6-84.6z"/>
  </symbol>

  <symbol id="icon-lang" viewBox="0 0 35 35">
    <title>language</title>
    <path d="M16.6,18.4c-1.1-1.1-2.2-2.1-2.7-4.4H18v-1.7h-4.1V10h-1.8v2.3H8V14h4.1c0,0.6,0.1,0.3,0,0.6
      c-0.6,2.2-1.3,3.7-4.1,5.1l0.6,1.7c2.7-1.4,4.1-3.1,4.7-5.1c0.6,1.5,1.6,2.7,2.7,3.8L16.6,18.4z"/>
    <path d="M22,12.8h-2.3l-4.1,11.5h1.8l1.2-3.4h4.7l1.2,3.4h1.8L22,12.8z M19.1,19.1l1.8-4.6l1.8,4.6H19.1L19.1,19.1z"/>
    <path d="M17.1,34.2C7.7,34.2,0,26.5,0,17.1S7.7,0,17.1,0s17.1,7.7,17.1,17.1S26.5,34.2,17.1,34.2z M17.1,2
      C8.8,2,2,8.8,2,17.1s6.8,15.1,15.1,15.1s15.1-6.8,15.1-15.1S25.4,2,17.1,2z"/>
  </symbol>

  <symbol id="icon-rss" viewBox="0 0 12 13">
    <title>rss</title>
    <path d="M2.834 10.952c.18.772-.301 1.544-1.073 1.724-.772.179-1.544-.301-1.724-1.073-.18-.772.301-1.544 1.073-1.724.772-.179 1.544.301 1.723 1.073zm-.598-4.126l-.462 1.115c1.53.635 2.64 2.13 2.827 3.809l1.199-.133c-.234-2.109-1.633-3.99-3.563-4.79zm.626-3.524l-.517 1.09c2.879 1.368 4.938 4.189 5.374 7.362l1.195-.164c-.49-3.572-2.809-6.748-6.051-8.288zm.715-3.302l-.518 1.09c4.273 2.029 7.239 6.219 7.74 10.934l1.2-.128c-.545-5.13-3.772-9.688-8.422-11.897z" />
  </symbol>

  <symbol id="icon-larr" viewBox="0 0 15 11">
    <title>left arrow</title>
    <path d="M4.899 10.389c.204.211.544.211.756 0 .204-.204.204-.544 0-.748l-3.833-3.833h12.649c.295 0 .529-.235.529-.53 0-.295-.234-.537-.529-.537h-12.649l3.833-3.826c.204-.211.204-.552 0-.756-.211-.211-.552-.211-.756 0l-4.741 4.741c-.211.204-.211.544 0 .748l4.741 4.741z" />
  </symbol>

  <symbol id="icon-mail" viewBox="0 0 18 12">
    <title>mail</title>
    <path d="M.574 1.286l7.5 4.029c.252.135.578.199.906.199.328 0 .654-.064.906-.199l7.5-4.029c.489-.263.951-1.286.054-1.286h-16.919c-.897 0-.435 1.023.053 1.286zm17.039 2.203c-.555.289-7.387 3.849-7.727 4.027-.34.178-.578.199-.906.199-.328 0-.566-.021-.906-.199-.34-.178-7.133-3.739-7.688-4.028-.39-.204-.386.035-.386.219v7.293c0 .42.566 1 1 1h16c.434 0 1-.58 1-1v-7.292c0-.184.004-.423-.387-.219z"/>
  </symbol>

  <symbol id="icon-pin" viewBox="0 0 13 20">
    <title>pin</title>
    <path d="M12.392 6.196c0-3.422-2.774-6.196-6.196-6.196-3.422 0-6.196 2.774-6.196 6.196 0 .774.149 1.512.408 2.195h-.004l.012.022c.143.373.32.728.529 1.062l5.251 10.525 5.251-10.525c.209-.335.386-.689.53-1.062l.01-.022h-.003c.259-.683.408-1.421.408-2.195zm-6.196 3.19c-1.694 0-3.068-1.373-3.068-3.067 0-1.694 1.374-3.068 3.068-3.068s3.068 1.373 3.068 3.067c0 1.694-1.374 3.068-3.068 3.068z"/>
  </symbol>

  <symbol id="icon-quote" viewBox="0 0 65 65">
    <title>quote</title>
    <path d="M48.75 23a4.16 4.16 0 0 0 1.17-1 1.81 1.81 0 0 0 .39-1.13 1.55 1.55 0 0 0-.16-.7 4.1 4.1 0 0 0-.39-.62 2.53 2.53 0 0 0-.62-.35 2.24 2.24 0 0 0-.78-.12 6.49 6.49 0 0 0-2.42.59 23.31 23.31 0 0 0-3.28 1.76 25 25 0 0 0-3.83 3.13 20.44 20.44 0 0 0-3 3.75 16.3 16.3 0 0 0-2 4 13.13 13.13 0 0 0-.62 3.95 11.39 11.39 0 0 0 .16 1.88 7.17 7.17 0 0 0 .55 1.8 8.64 8.64 0 0 0 .78 1.72 7.26 7.26 0 0 0 1.16 1.34 8.45 8.45 0 0 0 2.77 2.11 7.83 7.83 0 0 0 3.32.7 8.66 8.66 0 0 0 3.32-.62 7.24 7.24 0 0 0 2.7-2 5 5 0 0 0 .82-1.09q.35-.63.66-1.33a5.81 5.81 0 0 0 .43-1.41 8.54 8.54 0 0 0 .12-1.36 8.72 8.72 0 0 0-.43-2.77 7.78 7.78 0 0 0-1.21-2.23 6.74 6.74 0 0 0-2-1.72 6.31 6.31 0 0 0-2.36-.81l-.62-.08-.55-.08a2 2 0 0 1-.94-.31.74.74 0 0 1-.31-.62 2.17 2.17 0 0 1 .42-1.06 12.23 12.23 0 0 1 1.2-1.52 13.58 13.58 0 0 1 2.27-1.91 26.69 26.69 0 0 1 3.28-1.89zm-19.75 0a4.16 4.16 0 0 0 1.17-1 1.81 1.81 0 0 0 .39-1.13 2 2 0 0 0-.12-.7 1.8 1.8 0 0 0-.43-.62 1.47 1.47 0 0 0-.59-.35 2.33 2.33 0 0 0-.74-.12 6.78 6.78 0 0 0-2.46.59 19.49 19.49 0 0 0-3.22 1.74 22 22 0 0 0-3.87 3.13 24.66 24.66 0 0 0-3 3.75 18 18 0 0 0-1.87 4 13.13 13.13 0 0 0-.62 3.95 11.39 11.39 0 0 0 .16 1.88 7.17 7.17 0 0 0 .55 1.8 7.47 7.47 0 0 0 .82 1.72 12.36 12.36 0 0 0 1 1.36 8.45 8.45 0 0 0 2.77 2.11 7.64 7.64 0 0 0 3.24.7 8.58 8.58 0 0 0 3.36-.62 7.32 7.32 0 0 0 2.66-2 6.33 6.33 0 0 0 1.48-2.42 5.81 5.81 0 0 0 .43-1.41 8.54 8.54 0 0 0 .12-1.36 9.52 9.52 0 0 0-.39-2.77 6.4 6.4 0 0 0-1.25-2.23 5.88 5.88 0 0 0-1.87-1.72 6.31 6.31 0 0 0-2.42-.78l-.7-.08-.47-.08a2 2 0 0 1-.94-.31.74.74 0 0 1-.31-.62 2.17 2.17 0 0 1 .43-1.05 12.23 12.23 0 0 1 1.21-1.52 12.94 12.94 0 0 1 2.23-1.87 36.59 36.59 0 0 1 3.25-1.97zm3.5 37a26.82 26.82 0 0 1-10.7-2.15 27.61 27.61 0 0 1-14.65-14.65 26.82 26.82 0 0 1-2.15-10.7 26.82 26.82 0 0 1 2.15-10.7 27.61 27.61 0 0 1 14.65-14.65 26.82 26.82 0 0 1 10.7-2.15 26.82 26.82 0 0 1 10.7 2.15 27.61 27.61 0 0 1 14.65 14.65 26.82 26.82 0 0 1 2.15 10.7 26.82 26.82 0 0 1-2.15 10.7 27.61 27.61 0 0 1-14.65 14.65 26.82 26.82 0 0 1-10.7 2.15zm0-60a31.85 31.85 0 0 0-12.66 2.54 32.35 32.35 0 0 0-17.3 17.3 31.85 31.85 0 0 0-2.54 12.66 31.85 31.85 0 0 0 2.54 12.66 32.35 32.35 0 0 0 17.3 17.3 31.85 31.85 0 0 0 12.66 2.54 31.85 31.85 0 0 0 12.66-2.54 32.35 32.35 0 0 0 17.3-17.3 31.85 31.85 0 0 0 2.54-12.66 31.85 31.85 0 0 0-2.54-12.66 32.35 32.35 0 0 0-17.3-17.3 31.85 31.85 0 0 0-12.66-2.54z"/>
  </symbol>


  <symbol id="icon-dribbble" viewBox="0 0 18 18">
    <title>dribbble</title>
    <path d="M17.815 7.187c-.118-.578-.295-1.148-.524-1.691-.226-.534-.505-1.049-.83-1.529-.322-.477-.692-.925-1.099-1.331-.407-.408-.854-.778-1.331-1.099-.481-.326-.996-.605-1.529-.831-.544-.229-1.113-.406-1.692-.524-.592-.121-1.202-.183-1.811-.183-.61 0-1.22.062-1.813.183-.579.118-1.148.295-1.691.524-.534.226-1.049.505-1.53.831-.476.321-.924.691-1.331 1.098-.407.407-.776.855-1.098 1.331-.325.481-.605.995-.83 1.529-.23.544-.407 1.114-.525 1.692-.121.591-.183 1.202-.183 1.811 0 .611.062 1.221.183 1.814.118.578.295 1.147.525 1.691.225.533.505 1.048.83 1.529.322.477.691.924 1.098 1.331.407.407.855.776 1.331 1.098.481.325.996.605 1.529.83.544.23 1.113.406 1.691.525.594.122 1.203.183 1.813.183.61 0 1.219-.061 1.812-.183.579-.119 1.148-.295 1.691-.525.534-.225 1.049-.505 1.53-.83.476-.322.924-.691 1.331-1.098.407-.407.777-.854 1.098-1.331.325-.481.605-.996.83-1.529.23-.544.407-1.113.525-1.691.121-.593.183-1.203.183-1.814 0-.609-.061-1.219-.183-1.811zm-8.816-5.874c1.945 0 3.721.725 5.076 1.917-.019.03-1.114 1.696-4.015 2.784-1.314-2.414-2.757-4.332-2.873-4.484.581-.141 1.187-.217 1.812-.217zm-1.841.223l-.002.001-.023.005.025-.006zm-1.439.511c.102.138 1.523 2.065 2.854 4.429-3.691.981-6.893.942-7.097.938.5-2.38 2.099-4.354 4.243-5.367zm-2.438 12.089c-1.223-1.362-1.968-3.163-1.968-5.138l.006-.242c.135.003 3.933.089 7.891-1.095.22.43.431.869.624 1.306l-.303.092c-4.149 1.34-6.252 5.073-6.252 5.073l.002.004zm5.718 2.549c-1.783 0-3.419-.612-4.723-1.629l-.002.002-.172-.134.174.132c.028-.062 1.516-3.227 6.03-4.799l.051-.016c1.082 2.81 1.529 5.164 1.642 5.836-.922.391-1.936.608-3 .608zm4.294-1.311c-.078-.464-.487-2.72-1.496-5.49 2.482-.397 4.632.284 4.79.335-.342 2.142-1.568 3.989-3.294 5.155zm-1.964-6.703l-.166-.397c-.16-.376-.332-.749-.511-1.115 3.035-1.239 4.268-3.021 4.282-3.042 1.078 1.309 1.73 2.981 1.748 4.805-.111-.024-2.712-.584-5.353-.251z"/>
  </symbol>

  <symbol id="icon-facebook" viewBox="0 0 18 18">
    <title>facebook</title>
    <path d="M16 0h-14c-1.1 0-2 .9-2 2v14c0 1.101.9 2 2 2h7v-7h-2v-2.475h2v-2.05c0-2.164 1.212-3.684 3.766-3.684l1.803.002v2.605h-1.197c-.994 0-1.372.746-1.372 1.438v1.69h2.568l-.568 2.474h-2v7h4c1.1 0 2-.899 2-2v-14c0-1.1-.9-2-2-2z"/>
  </symbol>

  <symbol id="icon-twitter" viewBox="0 0 19 15">
    <title>twitter</title>
    <path d="M16.516 3.722l.011.488c0 4.99-3.797 10.742-10.74 10.742-2.133 0-4.116-.625-5.787-1.697.296.035.596.053.9.053 1.77 0 3.397-.604 4.688-1.615-1.651-.031-3.046-1.121-3.526-2.621.23.043.467.066.71.066.345 0 .679-.045.995-.131-1.727-.348-3.028-1.873-3.028-3.703v-.047c.509.283 1.092.453 1.71.473-1.013-.678-1.68-1.832-1.68-3.143 0-.691.186-1.34.512-1.898 1.861 2.285 4.644 3.787 7.781 3.945-.064-.277-.097-.564-.097-.861 0-2.084 1.689-3.773 3.774-3.773 1.086 0 2.067.457 2.756 1.191.859-.17 1.667-.484 2.397-.916-.282.881-.881 1.621-1.66 2.088.764-.092 1.49-.293 2.168-.594-.506.758-1.146 1.422-1.884 1.953z"/>
  </symbol>

  <symbol id="icon-tumblr" viewBox="0 0 18 18">
    <title>tumblr</title>
    <path d="M9,18 C4.02943725,18 0,13.9705627 0,9 C0,4.02943725 4.02943725,-2.08166817e-16 9,-2.08166817e-16 C13.9705627,-2.08166817e-16 18,4.02943725 18,9 C18,13.9705627 13.9705627,18 9,18 Z M12.206957,13.6407343 L12.206957,13.6407343 L12.206957,12.03413 C11.7026418,12.3694165 11.1950013,12.5373369 10.6851442,12.5373369 C10.3980724,12.5373369 10.1431438,12.4691712 9.9198042,12.3339482 C9.75188384,12.2341935 9.63661178,12.1000789 9.57509641,11.9321586 C9.51302683,11.7642382 9.48199205,11.3840621 9.48199205,10.7932928 L9.48199205,8.17805794 L11.8727789,8.17805794 L11.8727789,6.57810393 L9.48199205,6.57810393 L9.48199205,4 L8.0494042,4 C7.98456367,4.52592877 7.86762903,4.95986157 7.69693771,5.29958163 C7.5256922,5.64041007 7.29958163,5.93246957 7.0169434,6.17520592 C6.73485938,6.41905066 6.39569351,6.60525937 6,6.73494044 L6,8.17805794 L7.11337292,8.17805794 L7.11337292,11.7553711 C7.11337292,12.2208929 7.16158767,12.5772387 7.25801718,12.822746 C7.35444669,13.0676992 7.52790897,13.2987975 7.77784983,13.5177036 C8.02834488,13.7349471 8.32982565,13.9028674 8.68395472,14.0209104 C9.03808378,14.1378451 9.44541534,14.1971437 9.90594938,14.1971437 C10.3116184,14.1971437 10.6890235,14.1555792 11.0381648,14.0735587 C11.386752,13.9904298 11.7763494,13.8463398 12.206957,13.6407343 Z"/>
  </symbol>

  <symbol id="icon-instagram" viewBox="0 0 18 18">
    <title>instagram</title>
    <path d="M16 0h-14c-1.1 0-2 .9-2 2v14c0 1.101.9 2 2 2h14c1.1 0 2-.899 2-2v-14c0-1.1-.9-2-2-2zm-7.016 14.523c3.059 0 5.538-2.481 5.538-5.539 0-.338-.043-.664-.103-.984h1.581v7.216c0 .382-.31.69-.693.69h-12.614c-.383 0-.693-.308-.693-.69v-7.216h1.549c-.061.32-.104.646-.104.984 0 3.059 2.481 5.539 5.539 5.539zm-3.461-5.539c0-1.912 1.55-3.461 3.462-3.461 1.911 0 3.462 1.549 3.462 3.461s-1.551 3.462-3.462 3.462c-1.913 0-3.462-1.55-3.462-3.462zm9.784-3.984h-1.615c-.382 0-.692-.312-.692-.692v-1.617c0-.382.31-.691.691-.691h1.615c.384 0 .694.309.694.691v1.616c0 .381-.31.693-.693.693z"/>
  </symbol>

  <symbol id="icon-linkedin" viewBox="0 0 18 18">
    <title>linkedin</title>
    <path d="M4 2c0 1.1-.7 2-2 2-1.2 0-2-.9-2-1.9 0-1.1.8-2.1 2-2.1s2 .9 2 2zm-4 16h4v-13h-4v13zm13.6-12.8c-2.1 0-3.3 1.2-3.8 2h-.1l-.2-1.7h-3.6c0 1.1.1 2.4.1 3.9v8.6h4v-7.1c0-.4 0-.7.1-1 .3-.7.8-1.6 1.9-1.6 1.4 0 2 1.2 2 2.8v6.9h4v-7.4c0-3.7-1.9-5.4-4.4-5.4z"/>
  </symbol>

  <symbol id="icon-github" viewBox="0 0 18 16">
    <title>github</title>
    <path d="M12.111 8.911c-.702 0-1.272.789-1.272 1.76 0 .972.569 1.762 1.272 1.762.702 0 1.272-.789 1.272-1.762-.001-.97-.569-1.76-1.272-1.76zm4.428-4.581c.146-.357.152-2.386-.621-4.33 0 0-1.772.195-4.452 2.035-.563-.157-1.514-.233-2.464-.233-.952 0-1.903.076-2.465.233-2.681-1.84-4.453-2.035-4.453-2.035-.772 1.944-.764 3.973-.62 4.33-.908.986-1.462 2.171-1.462 3.787 0 7.03 5.833 7.142 7.305 7.142l1.696.002 1.694-.002c1.473 0 7.305-.112 7.305-7.142 0-1.616-.554-2.801-1.462-3.787zm-7.511 10.065h-.055c-3.689 0-6.563-.439-6.563-4.026 0-.86.303-1.656 1.024-2.317 1.2-1.102 3.233-.519 5.539-.519h.054c2.306 0 4.34-.583 5.541.519.719.661 1.022 1.458 1.022 2.317 0 3.586-2.873 4.026-6.563 4.026zm-3.137-5.484c-.702 0-1.272.789-1.272 1.76 0 .972.569 1.762 1.272 1.762.703 0 1.273-.789 1.273-1.762 0-.97-.569-1.76-1.273-1.76z"/>
  </symbol>

</svg>
