<svg xmlns="http://www.w3.org/2000/svg" xmlns:xlink="http://www.w3.org/1999/xlink">

  <!--
    ICON: RSS
  -->

  <symbol id="icon-rss" viewBox="0 0 12 13">
    <path d="M2.834 10.952c.18.772-.301 1.544-1.073 1.724-.772.179-1.544-.301-1.724-1.073-.18-.772.301-1.544 1.073-1.724.772-.179 1.544.301 1.723 1.073zm-.598-4.126l-.462 1.115c1.53.635 2.64 2.13 2.827 3.809l1.199-.133c-.234-2.109-1.633-3.99-3.563-4.79zm.626-3.524l-.517 1.09c2.879 1.368 4.938 4.189 5.374 7.362l1.195-.164c-.49-3.572-2.809-6.748-6.051-8.288zm.715-3.302l-.518 1.09c4.273 2.029 7.239 6.219 7.74 10.934l1.2-.128c-.545-5.13-3.772-9.688-8.422-11.897z" />
  </symbol>

  <!--
    ICON: LEFT ARROW
  -->

  <symbol id="icon-larr" viewBox="0 0 15 11">
    <path d="M4.899 10.389c.204.211.544.211.756 0 .204-.204.204-.544 0-.748l-3.833-3.833h12.649c.295 0 .529-.235.529-.53 0-.295-.234-.537-.529-.537h-12.649l3.833-3.826c.204-.211.204-.552 0-.756-.211-.211-.552-.211-.756 0l-4.741 4.741c-.211.204-.211.544 0 .748l4.741 4.741z" />
  </symbol>

</svg>
