<svg viewBox="0 0 13 20" xmlns="http://www.w3.org/2000/svg" fill-rule="evenodd" clip-rule="evenodd"><path d="M12.392 6.196c0-3.422-2.774-6.196-6.196-6.196-3.422 0-6.196 2.774-6.196 6.196 0 .774.149 1.512.408 2.195h-.004l.012.022c.143.373.32.728.529 1.062l5.251 10.525 5.251-10.525c.209-.335.386-.689.53-1.062l.01-.022h-.003c.259-.683.408-1.421.408-2.195zm-6.196 3.19c-1.694 0-3.068-1.373-3.068-3.067 0-1.694 1.374-3.068 3.068-3.068s3.068 1.373 3.068 3.067c0 1.694-1.374 3.068-3.068 3.068z" fill="#999"/></svg>