<?xml version="1.0" standalone="no"?>
<!DOCTYPE svg PUBLIC "-//W3C//DTD SVG 20010904//EN"
 "http://www.w3.org/TR/2001/REC-SVG-20010904/DTD/svg10.dtd">
<svg version="1.0" xmlns="http://www.w3.org/2000/svg"
 width="260.000000pt" height="260.000000pt" viewBox="0 0 260.000000 260.000000"
 preserveAspectRatio="xMidYMid meet">
<metadata>
Created by potrace 1.11, written by Peter Selinger 2001-2013
</metadata>
<g transform="translate(0.000000,260.000000) scale(0.100000,-0.100000)"
fill="#000000" stroke="none">
<path d="M1082 2485 c-485 -88 -883 -488 -967 -973 -19 -108 -19 -316 0 -424
85 -488 485 -888 973 -973 108 -19 316 -19 424 0 488 85 888 485 973 973 19
108 19 316 0 424 -85 488 -485 888 -973 973 -104 18 -330 18 -430 0z m493
-209 c348 -104 594 -350 702 -701 25 -84 27 -102 27 -275 0 -173 -2 -191 -27
-275 -108 -351 -351 -594 -702 -702 -84 -25 -102 -27 -275 -27 -173 0 -191 2
-275 27 -351 108 -594 351 -702 702 -25 84 -27 102 -27 275 0 173 2 191 27
275 116 377 393 634 777 720 46 10 111 14 225 11 139 -3 172 -7 250 -30z"/>
<path d="M1406 1672 c-109 -130 -196 -228 -193 -217 3 11 18 76 32 144 38 175
27 229 -55 272 -39 21 -170 26 -229 9 -42 -12 -86 -52 -111 -101 -10 -19 -60
-228 -110 -463 -97 -455 -100 -478 -57 -532 31 -40 76 -54 171 -54 95 0 128 9
169 48 45 42 63 86 95 235 17 77 32 141 35 143 2 2 28 -57 57 -131 67 -173
107 -230 184 -269 51 -26 69 -30 144 -31 75 0 95 4 144 28 60 29 117 97 120
144 0 13 1 28 2 34 1 7 -20 18 -46 26 -60 17 -85 48 -158 193 l-59 117 145
144 c155 154 194 212 194 283 0 84 -74 158 -198 196 -35 11 -67 20 -71 20 -3
0 -96 -107 -205 -238z"/>
</g>
</svg>
